<svg width="18" height="18" viewBox="0 0 18 18" fill="none" xmlns="http://www.w3.org/2000/svg">
<path d="M9 3.92188C8.625 3.92188 8.32031 3.61719 8.32031 3.24219V1.5625C8.32031 1.1875 8.625 0.882812 9 0.882812C9.36719 0.882812 9.67188 1.1875 9.67188 1.5625V3.24219C9.67188 3.61719 9.36719 3.92188 9 3.92188ZM12.8281 5.52344C12.5703 5.26562 12.5703 4.83594 12.8281 4.57031L14.0312 3.36719C14.2969 3.10938 14.7266 3.10938 14.9844 3.36719C15.2422 3.63281 15.2422 4.07031 14.9844 4.32812L13.7891 5.52344C13.5234 5.78906 13.0938 5.78125 12.8281 5.52344ZM5.15625 5.52344C4.89062 5.78125 4.46094 5.78125 4.20312 5.52344L3.00781 4.32031C2.75781 4.07031 2.75781 3.63281 3.01562 3.36719C3.27344 3.10938 3.71094 3.11719 3.96875 3.36719L5.16406 4.57031C5.41406 4.82812 5.41406 5.27344 5.15625 5.52344ZM8.99219 13.3438C6.82031 13.3438 5.01562 11.5391 5.01562 9.35938C5.01562 7.17188 6.82031 5.36719 8.99219 5.36719C11.1641 5.36719 12.9688 7.17188 12.9688 9.35938C12.9688 11.5391 11.1641 13.3438 8.99219 13.3438ZM8.99219 12.1484C10.5156 12.1484 11.7812 10.8828 11.7812 9.35938C11.7812 7.82812 10.5156 6.5625 8.99219 6.5625C7.46875 6.5625 6.20312 7.82812 6.20312 9.35938C6.20312 10.8828 7.46875 12.1484 8.99219 12.1484ZM14.4141 9.35938C14.4141 8.99219 14.7266 8.67969 15.0938 8.67969H16.7734C17.1406 8.67969 17.4453 8.99219 17.4453 9.35938C17.4453 9.72656 17.1406 10.0312 16.7734 10.0312H15.0938C14.7266 10.0312 14.4141 9.72656 14.4141 9.35938ZM3.57812 9.35938C3.57812 9.72656 3.26562 10.0312 2.89844 10.0312H1.21875C0.851562 10.0312 0.546875 9.72656 0.546875 9.35938C0.546875 8.99219 0.851562 8.67969 1.21875 8.67969H2.89844C3.26562 8.67969 3.57812 8.99219 3.57812 9.35938ZM5.16406 13.1953C5.41406 13.4609 5.41406 13.8906 5.15625 14.1484L3.96094 15.3516C3.69531 15.6016 3.25781 15.5938 3 15.3438C2.75 15.0781 2.75 14.6484 3.00781 14.3906L4.20312 13.1953C4.46094 12.9453 4.89844 12.9453 5.16406 13.1953ZM12.8281 13.1953C13.0938 12.9453 13.5234 12.9453 13.7812 13.1953L14.9844 14.3984C15.2422 14.6562 15.2422 15.0859 14.9844 15.3516C14.7266 15.6016 14.2969 15.6094 14.0312 15.3594L12.8281 14.1484C12.5703 13.8906 12.5703 13.4609 12.8281 13.1953ZM9 14.7969C9.36719 14.7969 9.67188 15.1016 9.67188 15.4688V17.1562C9.67188 17.5234 9.36719 17.8281 9 17.8281C8.625 17.8281 8.32031 17.5234 8.32031 17.1562V15.4688C8.32031 15.1016 8.625 14.7969 9 14.7969Z" fill="white" fill-opacity="0.4"/>
</svg>
