<svg width="16" height="17" viewBox="0 0 16 17" fill="none" xmlns="http://www.w3.org/2000/svg">
<path d="M8 16.3281C3.64844 16.3281 0.03125 12.7109 0.03125 8.35938C0.03125 4 3.64062 0.390625 7.99219 0.390625C12.3516 0.390625 15.9688 4 15.9688 8.35938C15.9688 12.7109 12.3594 16.3281 8 16.3281ZM8 15C11.6875 15 14.6406 12.0469 14.6406 8.35938C14.6406 4.67188 11.6797 1.71875 7.99219 1.71875C4.30469 1.71875 1.36719 4.67188 1.36719 8.35938C1.36719 12.0469 4.3125 15 8 15ZM7.83594 9.97656C7.4375 9.97656 7.21094 9.76562 7.21094 9.35938V9.25781C7.21094 8.49219 7.63281 8.07812 8.19531 7.6875C8.875 7.21094 9.20312 6.95312 9.20312 6.42188C9.20312 5.82812 8.74219 5.42188 8.03125 5.42188C7.50781 5.42188 7.10156 5.6875 6.82812 6.14062L6.6875 6.32812C6.54688 6.51562 6.375 6.64062 6.10938 6.64062C5.85156 6.64062 5.57812 6.45312 5.57812 6.10156C5.57812 5.96875 5.60156 5.84375 5.64062 5.71875C5.85156 5 6.73438 4.35938 8.07812 4.35938C9.40625 4.35938 10.5625 5.0625 10.5625 6.35938C10.5625 7.29688 10.0234 7.75 9.26562 8.25C8.71875 8.60938 8.46875 8.89062 8.46875 9.32812V9.42188C8.46875 9.72656 8.22656 9.97656 7.83594 9.97656ZM7.82031 12.3047C7.36719 12.3047 6.97656 11.9375 6.97656 11.4922C6.97656 11.0469 7.35938 10.6797 7.82031 10.6797C8.28125 10.6797 8.66406 11.0391 8.66406 11.4922C8.66406 11.9453 8.27344 12.3047 7.82031 12.3047Z" fill="white" fill-opacity="0.4"/>
</svg>
