<svg width="40" height="40" viewBox="0 0 40 40" fill="none" xmlns="http://www.w3.org/2000/svg">
<g clip-path="url(#clip0_23162_78926)">
<path fill-rule="evenodd" clip-rule="evenodd" d="M15.0892 10.7144H19.2856L17.0535 17.8572H23.5714L22.4553 21.4286H15.9374L13.4821 29.2858H9.28564L15.0892 10.7144ZM26.5178 10.7144H30.7142L24.9106 29.2858H20.7142L26.5178 10.7144Z" fill="#EB7104"/>
<path fill-rule="evenodd" clip-rule="evenodd" d="M20 2C10.0589 2 2 10.0589 2 20C2 29.9411 10.0589 38 20 38C21.9881 38 23.8989 37.6781 25.6844 37.0843C26.2085 36.91 26.7746 37.1936 26.9489 37.7176C27.1232 38.2417 26.8396 38.8078 26.3156 38.9821C24.3291 39.6427 22.2053 40 20 40C8.95431 40 0 31.0457 0 20C0 8.95431 8.95431 0 20 0C31.0457 0 40 8.95431 40 20C40 22.2439 39.6301 24.4034 38.9471 26.4197C38.77 26.9428 38.2023 27.2232 37.6792 27.046C37.1561 26.8688 36.8757 26.3012 37.0529 25.7781C37.6667 23.9657 38 22.0228 38 20C38 10.0589 29.9411 2 20 2Z" fill="#EB7104"/>
<path fill-rule="evenodd" clip-rule="evenodd" d="M20 38C29.9411 38 38 29.9411 38 20C38 10.0589 29.9411 2 20 2C10.0589 2 2 10.0589 2 20C2 29.9411 10.0589 38 20 38ZM20 40C31.0457 40 40 31.0457 40 20C40 8.9543 31.0457 0 20 0C8.9543 0 0 8.9543 0 20C0 31.0457 8.9543 40 20 40Z" fill="#EB7104"/>
</g>
<defs>
<clipPath id="clip0_23162_78926">
<rect width="40" height="40" fill="white"/>
</clipPath>
</defs>
</svg>
