<svg width="40" height="40" viewBox="0 0 40 40" fill="none" xmlns="http://www.w3.org/2000/svg">
<g clip-path="url(#clip0_23162_78938)">
<path fill-rule="evenodd" clip-rule="evenodd" d="M15.0892 10.7144H19.2856L17.0535 17.8572H23.5714L22.4553 21.4286H15.9374L13.4821 29.2858H9.28564L15.0892 10.7144ZM26.5178 10.7144H30.7142L24.9106 29.2858H20.7142L26.5178 10.7144Z" fill="#707070"/>
<path fill-rule="evenodd" clip-rule="evenodd" d="M20 38C29.9411 38 38 29.9411 38 20C38 10.0589 29.9411 2 20 2C10.0589 2 2 10.0589 2 20C2 29.9411 10.0589 38 20 38ZM20 40C31.0457 40 40 31.0457 40 20C40 8.9543 31.0457 0 20 0C8.9543 0 0 8.9543 0 20C0 31.0457 8.9543 40 20 40Z" fill="#707070"/>
</g>
<defs>
<clipPath id="clip0_23162_78938">
<rect width="40" height="40" fill="white"/>
</clipPath>
</defs>
</svg>
