<svg width="20" height="17" viewBox="0 0 20 17" fill="none" xmlns="http://www.w3.org/2000/svg">
<path d="M4.6875 16.9062C3.57031 16.9062 2.92188 16.2734 2.92188 15.1797V7.72656L1.90625 8.58594C1.74219 8.71875 1.5625 8.83594 1.34375 8.83594C0.921875 8.83594 0.671875 8.53125 0.671875 8.21094C0.671875 8.03125 0.75 7.84375 0.921875 7.70312L9.0625 0.867188C9.64844 0.375 10.3672 0.375 10.9453 0.867188L15.0547 4.32031V2.73438C15.0547 2.39062 15.2812 2.17188 15.6172 2.17188H16.4531C16.7969 2.17188 17.0156 2.39062 17.0156 2.73438V5.96875L19.0781 7.70312C19.2422 7.84375 19.3203 8 19.3203 8.23438C19.3203 8.60938 19.0234 8.83594 18.6562 8.83594C18.4375 8.83594 18.2578 8.71875 18.1016 8.58594L17.0156 7.67188V15.1797C17.0156 16.2734 16.3672 16.9062 15.2578 16.9062H4.6875ZM12.25 10.4141V15.6484H14.9922C15.4844 15.6484 15.7578 15.3672 15.7578 14.8594V6.61719L10.2812 2.02344C10.1094 1.86719 9.89844 1.86719 9.72656 2.02344L4.17969 6.67188V14.8594C4.17969 15.3672 4.45312 15.6484 4.95312 15.6484H7.74219V10.4141C7.74219 10.0547 7.97656 9.82031 8.34375 9.82031H11.6562C12.0156 9.82031 12.25 10.0547 12.25 10.4141Z" fill="white" fill-opacity="0.4"/>
</svg>
