<svg width="18" height="17" viewBox="0 0 18 17" fill="none" xmlns="http://www.w3.org/2000/svg">
<path d="M5.19531 16.9453C4.64844 16.9453 4.34375 16.5547 4.34375 15.9531V13.9219H3.96875C1.64062 13.9219 0.390625 12.6406 0.390625 10.3438V4.35938C0.390625 2.0625 1.64062 0.78125 3.96875 0.78125H14.0312C16.3594 0.78125 17.6094 2.07031 17.6094 4.35938V10.3438C17.6094 12.6328 16.3594 13.9219 14.0312 13.9219H9.01562L6.32031 16.3203C5.84375 16.7422 5.57812 16.9453 5.19531 16.9453ZM5.51562 15.5156L8.01562 13.0312C8.3125 12.7266 8.53125 12.6641 8.96875 12.6641H14.0312C15.6016 12.6641 16.3516 11.8594 16.3516 10.3359V4.35938C16.3516 2.83594 15.6016 2.03906 14.0312 2.03906H3.96875C2.39062 2.03906 1.64844 2.83594 1.64844 4.35938V10.3359C1.64844 11.8594 2.39062 12.6641 3.96875 12.6641H4.92969C5.35156 12.6641 5.51562 12.8281 5.51562 13.25V15.5156Z" fill="white" fill-opacity="0.4"/>
</svg>
