<svg width="18" height="17" viewBox="0 0 18 17" fill="none" xmlns="http://www.w3.org/2000/svg">
<path d="M8.21094 16.7109C7.60938 16.7109 7.14844 16.3438 7.00781 15.7656L6.66406 14.3047L6.41406 14.2188L5.14844 15C4.64062 15.3203 4.04688 15.2422 3.61719 14.8125L2.53125 13.7266C2.10156 13.2969 2.01562 12.7031 2.34375 12.2031L3.13281 10.9375L3.04688 10.7031L1.58594 10.3594C1.01562 10.2188 0.640625 9.75 0.640625 9.15625V7.60938C0.640625 7.01562 1.00781 6.54688 1.58594 6.40625L3.03125 6.05469L3.125 5.80469L2.33594 4.53906C2.00781 4.03906 2.09375 3.45312 2.52344 3.01562L3.60938 1.92188C4.03125 1.5 4.625 1.42188 5.13281 1.73438L6.39844 2.51562L6.66406 2.41406L7.00781 0.953125C7.14844 0.375 7.60938 0.0078125 8.21094 0.0078125H9.78906C10.3906 0.0078125 10.8516 0.375 10.9922 0.953125L11.3281 2.41406L11.5938 2.51562L12.8672 1.73438C13.375 1.42188 13.9609 1.5 14.3828 1.92188L15.4766 3.01562C15.9062 3.45312 15.9844 4.03906 15.6641 4.53906L14.8672 5.80469L14.9688 6.05469L16.4141 6.40625C16.9922 6.54688 17.3594 7.01562 17.3594 7.60938V9.15625C17.3594 9.75 16.9844 10.2188 16.4141 10.3594L14.9531 10.7031L14.8594 10.9375L15.6562 12.2031C15.9766 12.7031 15.8984 13.2969 15.4688 13.7266L14.375 14.8125C13.9453 15.2422 13.3594 15.3203 12.8516 15L11.5781 14.2188L11.3281 14.3047L10.9922 15.7656C10.8516 16.3438 10.3906 16.7109 9.78906 16.7109H8.21094ZM8.33594 15.4922H9.66406C9.79688 15.4922 9.86719 15.4375 9.88281 15.3125L10.3594 13.375C10.8359 13.2578 11.2734 13.0703 11.6094 12.8594L13.3125 13.9062C13.4141 13.9766 13.5078 13.9609 13.6094 13.8672L14.5234 12.9453C14.6172 12.8594 14.6172 12.7656 14.5547 12.6562L13.5078 10.9688C13.6953 10.6406 13.8906 10.1953 14.0156 9.71875L15.9609 9.25781C16.0781 9.23438 16.1406 9.16406 16.1406 9.03125V7.72656C16.1406 7.58594 16.0859 7.52344 15.9609 7.5L14.0234 7.03125C13.8984 6.52344 13.6719 6.0625 13.5234 5.77344L14.5625 4.08594C14.6328 3.96875 14.6328 3.875 14.5391 3.78125L13.6172 2.875C13.5156 2.78125 13.4375 2.76562 13.3125 2.83594L11.6172 3.86719C11.2656 3.67969 10.8438 3.48438 10.3594 3.35938L9.88281 1.40625C9.86719 1.28125 9.79688 1.22656 9.66406 1.22656H8.33594C8.20312 1.22656 8.13281 1.28125 8.10938 1.40625L7.64844 3.34375C7.17969 3.47656 6.70312 3.67188 6.36719 3.85938L4.67969 2.83594C4.5625 2.76562 4.47656 2.78125 4.38281 2.875L3.45312 3.78125C3.36719 3.875 3.35938 3.96875 3.42969 4.08594L4.46875 5.77344C4.32812 6.0625 4.09375 6.52344 3.96875 7.03125L2.03906 7.5C1.90625 7.52344 1.85938 7.58594 1.85938 7.72656V9.03125C1.85938 9.16406 1.91406 9.23438 2.03906 9.25781L3.97656 9.71875C4.10156 10.1953 4.30469 10.6406 4.48438 10.9688L3.4375 12.6562C3.375 12.7656 3.38281 12.8594 3.46875 12.9453L4.39062 13.8672C4.48438 13.9609 4.58594 13.9766 4.67969 13.9062L6.38281 12.8594C6.71875 13.0703 7.16406 13.2578 7.64062 13.375L8.10938 15.3125C8.13281 15.4375 8.20312 15.4922 8.33594 15.4922ZM9 11.3438C7.35938 11.3438 6.01562 9.99219 6.01562 8.35938C6.01562 6.73438 7.36719 5.39062 9 5.39062C10.6328 5.39062 11.9766 6.73438 11.9766 8.35938C11.9766 10 10.6328 11.3438 9 11.3438ZM9 10.1328C9.95312 10.1328 10.75 9.32812 10.75 8.35938C10.75 7.39844 9.95312 6.60156 9 6.60156C8.03125 6.60156 7.23438 7.39844 7.23438 8.35938C7.23438 9.33594 8.03125 10.1328 9 10.1328Z" fill="white" fill-opacity="0.4"/>
</svg>
