<svg width="16" height="17" viewBox="0 0 16 17" fill="none" xmlns="http://www.w3.org/2000/svg">
<path d="M8 16.3281C3.64844 16.3281 0.03125 12.7109 0.03125 8.35938C0.03125 4 3.64062 0.390625 7.99219 0.390625C12.3516 0.390625 15.9688 4 15.9688 8.35938C15.9688 12.7109 12.3594 16.3281 8 16.3281ZM3.32812 3.29688C3.72656 3.57812 4.21094 3.8125 4.76562 3.99219C5.10938 3.03906 5.57031 2.26562 6.10938 1.71875C5.0625 2.02344 4.10938 2.57031 3.32812 3.29688ZM9.89844 1.72656C10.4297 2.27344 10.8906 3.04688 11.2344 3.99219C11.7891 3.8125 12.2734 3.58594 12.6719 3.30469C11.8828 2.57812 10.9375 2.03125 9.89844 1.72656ZM5.77344 4.25C6.30469 4.34375 6.875 4.40625 7.49219 4.42969V1.89844C6.82031 2.19531 6.21094 3.05469 5.77344 4.25ZM8.51562 1.89844V4.42969C9.125 4.40625 9.69531 4.34375 10.2266 4.25C9.78906 3.05469 9.17969 2.19531 8.51562 1.89844ZM1.10938 7.84375H4.0625C4.10156 6.79688 4.24219 5.82031 4.46875 4.94531C3.74219 4.71094 3.11719 4.40625 2.63281 4.03906C1.77344 5.10156 1.21875 6.42188 1.10938 7.84375ZM11.9375 7.84375H14.8906C14.7812 6.42188 14.2266 5.10156 13.3594 4.04688C12.8828 4.40625 12.2578 4.71094 11.5312 4.94531C11.7578 5.82031 11.8984 6.79688 11.9375 7.84375ZM8.51562 7.84375H10.8906C10.8516 6.90625 10.7266 6.01562 10.5234 5.21094C9.89062 5.34375 9.21875 5.42969 8.51562 5.45312V7.84375ZM5.10938 7.84375H7.49219V5.45312C6.78125 5.42969 6.10938 5.34375 5.47656 5.21094C5.28125 6.01562 5.14844 6.90625 5.10938 7.84375ZM1.10938 8.86719C1.21875 10.3047 1.78125 11.6328 2.65625 12.7031C3.13281 12.3438 3.75 12.0391 4.46875 11.8047C4.24219 10.9219 4.10156 9.9375 4.0625 8.86719H1.10938ZM5.10938 8.86719C5.14062 9.82031 5.28125 10.7266 5.49219 11.5391C6.11719 11.4141 6.78906 11.3281 7.49219 11.3047V8.86719H5.10938ZM8.51562 11.3047C9.21094 11.3281 9.89062 11.4141 10.5078 11.5391C10.7188 10.7266 10.8594 9.82031 10.8906 8.86719H8.51562V11.3047ZM11.5312 11.8047C12.25 12.0391 12.8672 12.3438 13.3438 12.7031C14.2188 11.6328 14.7812 10.3047 14.8906 8.86719H11.9375C11.8984 9.9375 11.7578 10.9219 11.5312 11.8047ZM8.51562 12.3281V14.8281C9.17188 14.5312 9.77344 13.6719 10.2109 12.5078C9.6875 12.4062 9.11719 12.3516 8.51562 12.3281ZM5.78906 12.5078C6.22656 13.6719 6.82812 14.5312 7.49219 14.8281V12.3281C6.88281 12.3516 6.3125 12.4062 5.78906 12.5078ZM11.2266 12.7578C10.8828 13.6875 10.4297 14.4531 9.90625 14.9922C10.9375 14.6875 11.8672 14.1484 12.6484 13.4375C12.25 13.1641 11.7734 12.9375 11.2266 12.7578ZM3.35156 13.4375C4.13281 14.1484 5.07031 14.6875 6.10156 14.9922C5.57031 14.4531 5.11719 13.6875 4.77344 12.7578C4.22656 12.9375 3.75 13.1641 3.35156 13.4375Z" fill="white" fill-opacity="0.4"/>
</svg>
