<svg width="22" height="15" viewBox="0 0 22 15" fill="none" xmlns="http://www.w3.org/2000/svg">
<path d="M15.0547 7.35938C13.1953 7.35938 11.6797 5.71875 11.6797 3.71094C11.6797 1.72656 13.1953 0.125 15.0547 0.125C16.9219 0.125 18.4297 1.69531 18.4297 3.69531C18.4297 5.71094 16.9141 7.35938 15.0547 7.35938ZM6.05469 7.42969C4.44531 7.42969 3.125 5.99219 3.125 4.22656C3.125 2.5 4.44531 1.07812 6.05469 1.07812C7.67969 1.07812 8.98438 2.47656 8.98438 4.21094C8.98438 5.98438 7.66406 7.42969 6.05469 7.42969ZM15.0547 6.17969C16.2031 6.17969 17.1719 5.07812 17.1719 3.69531C17.1719 2.32812 16.2188 1.30469 15.0547 1.30469C13.8906 1.30469 12.9375 2.35156 12.9375 3.71094C12.9375 5.09375 13.9141 6.17969 15.0547 6.17969ZM6.05469 6.26562C7.01562 6.26562 7.82812 5.35156 7.82812 4.21094C7.82812 3.10938 7.03906 2.24219 6.05469 2.24219C5.08594 2.24219 4.28906 3.125 4.28906 4.22656C4.28906 5.35156 5.09375 6.26562 6.05469 6.26562ZM1.70312 14.5938C0.648438 14.5938 0.117188 14.1641 0.117188 13.2891C0.117188 10.6953 2.77344 8.32031 6.04688 8.32031C7.33594 8.32031 8.54688 8.66406 9.55469 9.32031C9.20312 9.57031 8.91406 9.84375 8.67188 10.1562C7.91406 9.71094 7.02344 9.47656 6.04688 9.47656C3.49219 9.47656 1.28125 11.2812 1.28125 13.2188C1.28125 13.375 1.35156 13.4375 1.51562 13.4375H7.23438C7.17969 13.9141 7.46094 14.3828 7.83594 14.5938H1.70312ZM10.1406 14.5938C8.84375 14.5938 8.22656 14.2031 8.22656 13.3438C8.22656 11.2969 10.8125 8.33594 15.0469 8.33594C19.2891 8.33594 21.875 11.2969 21.875 13.3438C21.875 14.2031 21.2578 14.5938 19.9531 14.5938H10.1406ZM9.76562 13.4141H20.3281C20.5312 13.4141 20.6172 13.3594 20.6172 13.1953C20.6172 11.9062 18.6328 9.51562 15.0469 9.51562C11.4688 9.51562 9.48438 11.9062 9.48438 13.1953C9.48438 13.3594 9.5625 13.4141 9.76562 13.4141Z" fill="white" fill-opacity="0.4"/>
</svg>
