<svg xmlns="http://www.w3.org/2000/svg" viewBox="0.265625 0.625 15.46 15.47">
  <path d="M8 2.25C7.54688 2.25 7.1875 1.89062 7.1875 1.4375C7.1875 0.984375 7.54688 0.625 8 0.625C8.44531 0.625 8.8125 0.984375 8.8125 1.4375C8.8125 1.89062 8.44531 2.25 8 2.25ZM12.8984 4.27344C12.4453 4.27344 12.0859 3.91406 12.0859 3.46094C12.0859 3.00781 12.4453 2.64844 12.8984 2.64844C13.3438 2.64844 13.7031 3.00781 13.7031 3.46094C13.7031 3.91406 13.3438 4.27344 12.8984 4.27344ZM3.10156 4.27344C2.64844 4.27344 2.28906 3.91406 2.28906 3.46094C2.28906 3.00781 2.64844 2.64844 3.10156 2.64844C3.55469 2.64844 3.91406 3.00781 3.91406 3.46094C3.91406 3.91406 3.55469 4.27344 3.10156 4.27344ZM8 12.3359C5.82031 12.3359 4.01562 10.5312 4.01562 8.35938C4.01562 6.17969 5.82031 4.375 8 4.375C10.1719 4.375 11.9766 6.17969 11.9766 8.35938C11.9766 10.5312 10.1719 12.3359 8 12.3359ZM8 11.1484C9.52344 11.1484 10.7891 9.88281 10.7891 8.35938C10.7891 6.82812 9.52344 5.5625 8 5.5625C6.46875 5.5625 5.20312 6.83594 5.20312 8.35938C5.20312 9.88281 6.46875 11.1484 8 11.1484ZM14.9219 9.17188C14.4688 9.17188 14.1094 8.8125 14.1094 8.35938C14.1094 7.90625 14.4688 7.54688 14.9219 7.54688C15.3672 7.54688 15.7266 7.90625 15.7266 8.35938C15.7266 8.8125 15.3672 9.17188 14.9219 9.17188ZM1.07812 9.17188C0.625 9.17188 0.265625 8.8125 0.265625 8.35938C0.265625 7.90625 0.625 7.54688 1.07812 7.54688C1.53125 7.54688 1.89062 7.90625 1.89062 8.35938C1.89062 8.8125 1.53125 9.17188 1.07812 9.17188ZM12.8984 14.0703C12.4453 14.0703 12.0859 13.7109 12.0859 13.2578C12.0859 12.8047 12.4453 12.4453 12.8984 12.4453C13.3438 12.4453 13.7031 12.8047 13.7031 13.2578C13.7031 13.7109 13.3438 14.0703 12.8984 14.0703ZM3.10156 14.0703C2.64844 14.0703 2.28906 13.7109 2.28906 13.2578C2.28906 12.8047 2.64844 12.4453 3.10156 12.4453C3.55469 12.4453 3.91406 12.8047 3.91406 13.2578C3.91406 13.7109 3.55469 14.0703 3.10156 14.0703ZM8 16.0938C7.54688 16.0938 7.1875 15.7344 7.1875 15.2812C7.1875 14.8281 7.54688 14.4688 8 14.4688C8.44531 14.4688 8.8125 14.8281 8.8125 15.2812C8.8125 15.7344 8.44531 16.0938 8 16.0938Z" fill="#fff"/>
</svg>