<svg xmlns="http://www.w3.org/2000/svg" viewBox="0.9375 0.734375 32.11 33.97">
  <path d="M7.14062 2.75C7.23438 1.42188 7.98438 0.734375 9.42188 0.734375H24.5625C26.0156 0.734375 26.7656 1.42188 26.8594 2.75H7.14062ZM3.92188 7.07812C4.15625 5.65625 4.82812 4.875 6.39062 4.875H27.6094C29.1719 4.875 29.8438 5.65625 30.0781 7.07812H3.92188ZM5.6875 34.7031C2.51562 34.7031 0.9375 33.1094 0.9375 30V14.2812C0.9375 11.1719 2.51562 9.59375 5.6875 9.59375H28.2969C31.4375 9.59375 33.0469 11.1719 33.0469 14.2812V30C33.0469 33.1094 31.4375 34.7031 28.2969 34.7031H5.6875ZM17.7969 28.6094C18.0938 28.6094 18.3125 28.4062 18.375 28.0938C19.2656 23.375 19.7031 22.4844 24.625 21.8281C24.9375 21.7812 25.1719 21.5469 25.1719 21.2344C25.1719 20.9375 24.9375 20.7031 24.625 20.6406C19.7188 19.9844 19.0781 19.0469 18.375 14.3906C18.3281 14.0781 18.0938 13.8594 17.7969 13.8594C17.5 13.8594 17.2656 14.0625 17.1875 14.375C16.3125 19.125 15.875 19.9844 10.9531 20.6406C10.625 20.7031 10.4219 20.9375 10.4219 21.2344C10.4219 21.5469 10.625 21.7812 10.9531 21.8281C15.8906 22.3281 16.5 23.375 17.1875 28.0781C17.2344 28.4062 17.4688 28.6094 17.7969 28.6094ZM11.4531 31.25C11.6875 31.25 11.8438 31.0938 11.9062 30.8906C12.3438 28.5312 12.1875 28.4219 14.75 28.0469C14.9688 28 15.125 27.8125 15.125 27.5938C15.125 27.375 14.9688 27.1875 14.75 27.1562C12.1875 26.7344 12.3438 26.625 11.9062 24.3438C11.8438 24.1094 11.7031 23.9219 11.4531 23.9219C11.2344 23.9219 11.0781 24.0938 11 24.3438C10.5312 26.625 10.7344 26.7344 8.17188 27.1562C7.9375 27.1875 7.79688 27.375 7.79688 27.5938C7.79688 27.8438 7.9375 28 8.20312 28.0469C10.7344 28.4219 10.5312 28.5312 11 30.8438C11.0781 31.0781 11.2188 31.25 11.4531 31.25Z" fill="#fff"/>
</svg>