<svg xmlns="http://www.w3.org/2000/svg" viewBox="0.875 0.78125 32.25 29.86">
  <path d="M11.2656 10.1094C8.70312 10.1094 6.60938 7.96875 6.60938 5.45312C6.60938 2.90625 8.71875 0.78125 11.2656 0.78125C13.8281 0.78125 15.9375 2.90625 15.9375 5.45312C15.9375 7.98438 13.8281 10.1094 11.2656 10.1094ZM22.7344 10.1094C20.1719 10.1094 18.0625 7.98438 18.0625 5.45312C18.0625 2.90625 20.1719 0.78125 22.7344 0.78125C25.2812 0.78125 27.3906 2.90625 27.3906 5.45312C27.3906 7.98438 25.2812 10.1094 22.7344 10.1094ZM5.54688 20.3906C2.96875 20.3906 0.875 18.25 0.875 15.7188C0.875 13.1719 3 11.0469 5.54688 11.0469C8.09375 11.0469 10.2188 13.1719 10.2188 15.7188C10.2188 18.2656 8.09375 20.3906 5.54688 20.3906ZM17 20.3906C14.4531 20.3906 12.3281 18.2656 12.3281 15.7188C12.3281 13.1719 14.4531 11.0469 17 11.0469C19.5469 11.0469 21.6719 13.1719 21.6719 15.7188C21.6719 18.2656 19.5469 20.3906 17 20.3906ZM28.4531 20.3906C25.9062 20.3906 23.7812 18.2656 23.7812 15.7188C23.7812 13.1719 25.9062 11.0469 28.4531 11.0469C31 11.0469 33.125 13.1719 33.125 15.7188C33.125 18.2656 31 20.3906 28.4531 20.3906ZM11.2656 30.6406C8.70312 30.6406 6.60938 28.5156 6.60938 25.9844C6.60938 23.4375 8.71875 21.3281 11.2656 21.3281C13.8281 21.3281 15.9375 23.4375 15.9375 25.9844C15.9375 28.5312 13.8281 30.6406 11.2656 30.6406ZM22.7344 30.6406C20.1719 30.6406 18.0625 28.5312 18.0625 25.9844C18.0625 23.4375 20.1719 21.3281 22.7344 21.3281C25.2812 21.3281 27.3906 23.4375 27.3906 25.9844C27.3906 28.5312 25.2812 30.6406 22.7344 30.6406Z" fill="#fff"/>
</svg>