<svg xmlns="http://www.w3.org/2000/svg" viewBox="0.339844 0.872558 23.31 20.51">
  <path d="M0.339844 10.5137C0.339844 10.2891 0.4375 10.0547 0.652344 9.87891L10.8281 1.33398C11.5605 0.71875 12.459 0.71875 13.1816 1.33398L18.1621 5.51367V3.66797C18.1621 3.23828 18.4453 2.96484 18.8652 2.96484H19.9102C20.3398 2.96484 20.6133 3.23828 20.6133 3.66797V7.57422L23.3477 9.87891C23.5527 10.0547 23.6504 10.25 23.6504 10.543C23.6504 11.0117 23.2793 11.2949 22.8203 11.2949C22.5469 11.2949 22.3223 11.1484 22.127 10.9824L12.3516 2.7793C12.1367 2.58398 11.873 2.58398 11.6582 2.7793L1.88281 10.9824C1.67773 11.1484 1.45312 11.2949 1.17969 11.2949C0.652344 11.2949 0.339844 10.9141 0.339844 10.5137ZM3.38672 19.2246V11.4902L11.4141 4.76172C11.7754 4.45898 12.2148 4.44922 12.5859 4.76172L20.6133 11.4902V19.2246C20.6133 20.582 19.8027 21.3828 18.4258 21.3828H5.58398C4.20703 21.3828 3.38672 20.582 3.38672 19.2246ZM14.5098 19.8105V13.3555C14.5098 12.9062 14.2168 12.6133 13.7676 12.6133H10.2227C9.77344 12.6133 9.4707 12.9062 9.4707 13.3555V19.8105H14.5098Z" fill="#fff"/>
</svg>