<svg xmlns="http://www.w3.org/2000/svg" viewBox="0.63989 1.49389 20.71 20.76">
  <path d="M10.873 15.8945C9.62305 15.6797 8.8418 15.2402 8.22656 14.625C5.85352 12.2617 5.87305 8.94141 8.2168 6.59766L11.5469 3.25781C13.8906 0.914062 17.2109 0.894531 19.584 3.26758C21.9473 5.64062 21.9277 8.95117 19.5938 11.2949L16.7227 14.1562C16.8203 13.5215 16.7617 12.7988 16.4883 12.1738L18.4023 10.2598C20.0918 8.57031 20.1113 6.1582 18.4023 4.44922C16.6934 2.74023 14.291 2.75 12.582 4.44922L9.39844 7.63281C7.70898 9.32227 7.69922 11.7441 9.4082 13.4531C10.043 14.0879 10.8828 14.4785 12.1719 14.5762L10.873 15.8945ZM11.1172 7.84766C12.3672 8.0625 13.1484 8.50195 13.7637 9.11719C16.1367 11.4805 16.1172 14.8008 13.7734 17.1445L10.4336 20.4941C8.09961 22.8281 4.7793 22.8477 2.40625 20.4746C0.0429688 18.1113 0.0625 14.791 2.39648 12.4473L5.26758 9.58594C5.16016 10.2207 5.22852 10.9531 5.50195 11.5684L3.58789 13.4824C1.88867 15.1816 1.87891 17.584 3.58789 19.3027C5.29688 21.002 7.69922 20.9922 9.39844 19.293L12.5918 16.1094C14.2812 14.4199 14.291 11.998 12.582 10.2891C11.9473 9.6543 11.1074 9.27344 9.81836 9.16602L11.1172 7.84766Z" fill="#fff"/>
</svg>