<svg xmlns="http://www.w3.org/2000/svg" viewBox="0.890625 0.953125 28.31 39.52">
  <path d="M1.57812 12.3594C1.09375 11.5938 0.890625 10.8281 0.890625 10C0.890625 7.60938 2.85938 5.64062 5.25 5.71875C5.25 4.65625 6.25 3.5625 7.4375 3.67188C7.70312 2.3125 9.17188 0.953125 11.3906 0.953125C13.0625 0.953125 14.5312 1.92188 15.2188 3.4375C15.6719 3.34375 16.2031 3.375 16.5781 3.48438C17.3281 2.79688 18.3281 2.42188 19.3906 2.42188C21.0781 2.42188 22.2969 3.4375 22.9531 4.95312C25.4375 5.01562 27.1562 6.90625 27.1562 9.59375C27.1562 10.625 26.8281 11.5469 26.2812 12.3281C25.3906 11.8438 24.375 11.5938 23.3594 11.5938C21.6875 11.5938 20.0469 12.2344 18.9531 13.5625C17.8438 11.9531 15.9062 11.0625 13.9531 11.0625C12.0156 11.0625 10.0625 11.9531 8.95312 13.5625C7.875 12.2344 6.25 11.5938 4.59375 11.5938C3.54688 11.5938 2.48438 11.8594 1.57812 12.3594ZM12.0312 37.9688L10.1562 17.1094C9.90625 14.2969 12.2656 13.1875 13.9531 13.1875C15.6562 13.1875 18 14.2969 17.75 17.1094L16.6719 29.2031C14.7031 30.2344 13.5156 32.25 13.5156 34.4844C13.5156 35.75 13.9219 36.9375 14.6562 37.8906V37.9688H12.0312ZM7.82812 37.9688C5.59375 37.9688 4.5 36.6719 4.07812 34.4531L1.01562 18.25C0.4375 15.25 2.5 13.7031 4.51562 13.7031C6.20312 13.7031 7.89062 14.7656 8.07812 16.9688L9.98438 37.9688H7.82812ZM22.4844 25.2344C21.1094 25.2344 19.8594 25.7344 18.9688 26.5469L19.8281 16.9688C20.0312 14.7656 21.7188 13.7031 23.3906 13.7031C25.4219 13.7031 27.4844 15.25 26.9062 18.25L25.4375 26.0156C24.5781 25.5156 23.5781 25.2344 22.4844 25.2344ZM22.4844 40.4688C20.9375 40.4688 19.5469 39.6094 18.9219 38.3281C16.7969 37.8906 15.6406 36.2344 15.6406 34.4844C15.6406 32.7188 16.8281 31.0156 18.9219 30.6875C19.0156 28.7656 20.5156 27.375 22.4844 27.375C24.5 27.375 26 28.8125 26.0625 30.7969C28.0938 31.125 29.2031 32.7656 29.2031 34.5C29.2031 36.1875 28.1562 37.8281 26.0781 38.2969C25.4062 39.6094 24 40.4688 22.4844 40.4688Z" fill="#fff"/>
</svg>