<svg xmlns="http://www.w3.org/2000/svg" viewBox="0.467135 0.988942 33.05 39.17">
  <path d="M13.9375 6.875C9.51562 6.875 6.96875 9.45312 6.96875 13.9062V34.1719C5.5625 33.6562 4.65625 32.4062 4.29688 30.3594L0.59375 9.34375C0.03125 6.10938 1.34375 4.21875 4.51562 3.65625L19.0156 1.10938C22.1875 0.5625 24.0781 1.875 24.6406 5.10938L24.9375 6.875H13.9375ZM33.5156 13.9062V35.25C33.5156 38.5156 31.8906 40.1562 28.6719 40.1562H13.9375C10.7188 40.1562 9.09375 38.5156 9.09375 35.25V13.9062C9.09375 10.6406 10.7188 9 13.9375 9H28.6719C31.9062 9 33.5156 10.6406 33.5156 13.9062Z" fill="#fff"/>
</svg>