<svg xmlns="http://www.w3.org/2000/svg" viewBox="3.78711 1.48047 16.43 20.94">
  <path d="M3.78711 19.3613V4.54688C3.78711 2.51562 4.79297 1.48047 6.81445 1.48047H17.1855C19.207 1.48047 20.2129 2.51562 20.2129 4.54688V19.3613C20.2129 21.4023 19.207 22.418 17.1855 22.418H6.81445C4.79297 22.418 3.78711 21.4023 3.78711 19.3613ZM7.20508 10.416C7.46875 10.416 7.63477 10.2793 7.72266 9.94727L8.05469 8.98047H9.89062L10.2422 9.94727C10.3301 10.2695 10.4961 10.416 10.75 10.416C11.082 10.416 11.2676 10.2305 11.2676 9.91797C11.2676 9.84961 11.248 9.72266 11.209 9.5957L9.77344 5.62109C9.62695 5.21094 9.38281 5.01562 8.96289 5.01562C8.57227 5.01562 8.33789 5.21094 8.19141 5.62109L6.75586 9.5957C6.70703 9.71289 6.6875 9.84961 6.6875 9.91797C6.6875 10.2305 6.88281 10.416 7.20508 10.416ZM13.3574 6.70508H16.7266C17.0684 6.70508 17.332 6.44141 17.332 6.09961C17.332 5.76758 17.0684 5.50391 16.7266 5.50391H13.3574C12.9961 5.50391 12.7422 5.76758 12.7422 6.09961C12.7422 6.44141 12.9961 6.70508 13.3574 6.70508ZM8.2793 8.16992L8.94336 6.11914H9.00195L9.67578 8.16992H8.2793ZM13.3574 10.1133H16.7266C17.0684 10.1133 17.332 9.84961 17.332 9.50781C17.332 9.17578 17.0684 8.91211 16.7266 8.91211H13.3574C12.9961 8.91211 12.7422 9.17578 12.7422 9.50781C12.7422 9.84961 12.9961 10.1133 13.3574 10.1133ZM6.63867 18.5801H7.71289L9.00195 17.2812C9.1875 17.1055 9.38281 17.0371 9.57812 17.0371C9.77344 17.0371 9.98828 17.1152 10.1738 17.2812L10.9746 18.0137L12.9766 16.2363C13.2012 16.041 13.4355 15.9531 13.6602 15.9531C13.9043 15.9531 14.1582 16.0312 14.334 16.2363L16.2871 18.4824H17.3613V13.8145C17.3613 12.9551 16.9121 12.5156 16.0527 12.5156H7.95703C7.12695 12.5156 6.63867 12.9551 6.63867 13.8145V18.5801ZM10.252 16.2363C9.66602 16.2363 9.19727 15.748 9.19727 15.1816C9.19727 14.5957 9.66602 14.1074 10.252 14.127C10.8281 14.1465 11.3066 14.5957 11.3066 15.1816C11.3066 15.748 10.8281 16.2363 10.252 16.2363Z" fill="#fff"/>
</svg>