<svg width="32" height="32" viewBox="0 0 32 32" fill="none" xmlns="http://www.w3.org/2000/svg">
<g id="Frame 427318205">
<path id="Vector" fill-rule="evenodd" clip-rule="evenodd" d="M20.9687 12.4217C21.7712 12.4831 22.1546 11.7214 22.8396 12.8971C22.9981 13.1732 22.9572 13.4134 23.131 13.6843L23.085 13.8377C22.9061 13.5463 22.6454 13.3725 22.2722 13.3623C21.8633 13.347 21.5668 13.1425 21.3265 12.8256C21.2192 12.6824 21.0863 12.5546 20.9636 12.4166L20.9687 12.4217ZM15.2741 8.9099C15.2741 8.97124 14.6045 9.26773 14.262 8.85879C14.0422 8.61853 13.8939 7.88754 14.7578 6.22109C15.2179 5.33674 15.678 4.84089 16.0102 4.56996C16.2198 4.41661 16.3169 4.41661 16.2096 4.70798C15.908 5.19872 15.3866 5.90415 15.0697 6.91118C14.5687 8.51118 15.2741 8.84856 15.2741 8.9099ZM15.9847 32H16.0153C20.4268 32 24.4192 30.2058 27.3125 27.3125C30.2058 24.4192 32 20.4166 32 16C32 11.5834 30.2109 7.58083 27.3125 4.68754C24.4192 1.79425 20.4166 0 16 0C11.5834 0 7.58083 1.78914 4.68754 4.68754C1.79425 7.58083 0 11.5834 0 16C0 20.4166 1.78914 24.4192 4.68754 27.3125C7.58083 30.2058 11.5732 31.9949 15.9847 32ZM25.7943 25.7994C24.9508 26.6428 24 27.3789 22.9623 27.9821C15.3457 31.2537 10.7042 23.4173 14.1546 18.97C13.0454 18.2543 11.655 15.2741 13.3725 13.9399C12.6415 14.9061 13.2703 18.1061 15.2128 19.0364C15.908 19.3687 16.5776 19.4198 17.2371 19.4607C19.1591 19.5783 20.2121 20.1968 21.7457 21.3572C22.2978 21.7712 22.8652 22.2978 23.5195 21.8888C24.0102 21.5821 24.9866 20.9636 24.8741 20.1559C25.692 19.7981 26.193 19.522 26.5559 18.7399C26.7144 18.4026 26.7859 18.0192 26.8933 17.7585C27.1438 17.1808 27.3125 17.3291 27.4454 16.7463C27.6703 15.7495 27.0006 15.3968 26.561 14.7169C25.9987 13.853 25.2371 12.7233 24.9508 11.7776C24.5981 10.6326 23.2639 9.54888 21.715 8.83834C20.6824 8.36805 19.7879 7.95399 18.7502 7.53482C18.193 7.3099 17.5898 7.0492 17.3904 6.88562C16.9559 6.51757 17.1297 5.34696 17.1297 4.76421C17.1297 4.08434 17.0121 3.47092 16.1585 3.91565C14.8294 4.47795 13.2243 6.96741 13.2141 7.03386C8.80767 8.50096 4.12524 10.3157 2.19298 14.8958C2.45879 11.5118 3.94121 8.46517 6.20575 6.20063C8.71054 3.69584 12.1764 2.14185 16 2.14185C19.8236 2.14185 23.2895 3.69073 25.7943 6.20063C28.299 8.70543 29.853 12.1712 29.853 15.9949C29.853 19.8185 28.3042 23.2843 25.7943 25.7891V25.7994Z" fill="#DAB57E"/>
</g>
</svg>
