<svg width="124" height="32" viewBox="0 0 124 32" fill="none" xmlns="http://www.w3.org/2000/svg">
<path fill-rule="evenodd" clip-rule="evenodd" d="M28.6226 12.4485C29.4528 12.5217 29.8302 11.7529 30.5472 12.9245C30.6981 13.2174 30.6604 13.4371 30.8491 13.73L30.8113 13.8764C30.6226 13.5835 30.3585 13.4005 29.9811 13.4005C29.566 13.4005 29.2642 13.1808 29 12.8513C28.8868 12.7048 28.7358 12.5584 28.6226 12.4485ZM22.7736 8.93364C22.7736 9.00687 22.0943 9.29977 21.717 8.89703C21.4906 8.64073 21.3396 7.94508 22.2075 6.26087C22.6604 5.38215 23.1509 4.86957 23.4906 4.61327C23.717 4.46682 23.7925 4.46682 23.6792 4.75973C23.3774 5.2357 22.8491 5.96796 22.5094 6.95652C22.0189 8.53089 22.7736 8.86042 22.7736 8.93364ZM23.4906 32C28.0566 32 32.1698 30.206 35.1509 27.3135C38.1321 24.4211 39.9811 20.4302 39.9811 16C39.9811 11.6064 38.1321 7.57895 35.1509 4.6865C32.1698 1.79405 28.0566 0 23.4906 0C18.9623 0 14.8113 1.79405 11.8302 4.6865C8.84906 7.57895 7 11.5698 7 16C7 20.3936 8.84906 24.4211 11.8302 27.3135C14.8491 30.206 18.9623 32 23.4906 32ZM33.566 25.7757C32.6981 26.6178 31.717 27.3501 30.6604 27.9725C22.8113 31.2311 18.0566 23.4325 21.6038 18.9657C20.4717 18.2334 19.0377 15.2677 20.8113 13.9497C20.0566 14.9016 20.6981 18.1236 22.6981 19.0389C23.4151 19.3684 24.0943 19.405 24.7736 19.4783C26.7358 19.5881 27.8302 20.2105 29.4151 21.3821C29.9811 21.7849 30.5849 22.3341 31.2264 21.8947C31.717 21.6018 32.7359 20.9794 32.6226 20.1739C33.4528 19.8078 33.9811 19.5515 34.3585 18.746C34.5094 18.4165 34.5849 18.0137 34.6981 17.7574C34.9623 17.1716 35.1132 17.3181 35.2642 16.7323C35.4906 15.7437 34.8113 15.3776 34.3585 14.7185C33.7925 13.8398 33 12.7414 32.6981 11.7895C32.3208 10.6545 30.9623 9.55607 29.3774 8.86042C28.3208 8.38444 27.3774 7.9817 26.3208 7.54234C25.7547 7.32266 25.1132 7.06636 24.9245 6.8833C24.4717 6.51716 24.6604 5.34554 24.6604 4.75973C24.6604 4.10069 24.5472 3.47827 23.6792 3.91762C22.3208 4.46682 20.6604 6.95653 20.6604 7.02975C16.1321 8.49428 11.3019 10.3249 9.30189 14.865C9.56604 11.4966 11.1132 8.45767 13.4151 6.18765C15.9811 3.69794 19.566 2.12357 23.4906 2.12357C27.4151 2.12357 31 3.66133 33.566 6.18765C36.1321 8.67735 37.7547 12.1556 37.7547 15.9634C37.7547 19.8444 36.1698 23.286 33.566 25.7757Z" fill="#DAB57E"/>
<path d="M61.3395 17.0977H43.8301V31.3402H46.6225V25.2258H55.3773L57.264 22.6995V22.6629H46.6225V19.6972H59.4527L61.3395 17.0977Z" fill="#DAB57E"/>
<path d="M88.6227 31.3407L83.868 26.0684C86.8868 25.4826 88.3963 24.0546 88.3963 21.7114C88.3963 20.137 87.717 18.9654 86.3963 18.1599C85.0755 17.3544 83.1133 16.9883 80.585 16.9883C77.0378 16.9883 74.3585 17.0249 72.585 17.1347V31.3407H75.3774V26.3247H80.585L85.0378 31.3407H88.6227ZM75.3397 19.5878C76.6982 19.5512 78.585 19.5146 81.0001 19.5146C83.9812 19.5146 85.4906 20.2469 85.4906 21.6748C85.4906 23.0295 83.9812 23.7251 81.0001 23.7251H75.3397V19.5878Z" fill="#DAB57E"/>
<path d="M98.9241 31.5969C100.32 31.5969 101.717 31.3772 103.037 30.9013C104.358 30.4253 105.452 29.7663 106.32 28.8509L104.207 27.0569C103 28.375 101.226 29.034 98.9241 29.034C97.0373 29.034 95.5278 28.5946 94.3958 27.7159C93.2637 26.8372 92.7354 25.6656 92.7354 24.2011C92.7354 22.7365 93.3014 21.5649 94.3958 20.6862C95.5278 19.8075 96.9995 19.3681 98.8486 19.3681C100.056 19.3681 101.15 19.5878 102.094 19.9905C103.075 20.3933 103.792 21.0523 104.283 21.931L106.094 19.6244C105.377 18.7091 104.358 18.0134 103.037 17.5008C101.754 17.0248 100.358 16.7686 98.9241 16.7686C97.792 16.7686 96.6599 16.915 95.6033 17.2445C94.5467 17.5374 93.5656 18.0134 92.6977 18.5992C91.8297 19.185 91.1127 19.9905 90.5844 20.9425C90.0561 21.931 89.792 22.9928 89.792 24.2011C89.792 25.2262 89.9807 26.1416 90.3203 26.9837C90.6977 27.8258 91.1505 28.5214 91.7543 29.0706C92.358 29.6198 93.075 30.0958 93.8675 30.4985C94.6599 30.9013 95.4901 31.1576 96.3203 31.3406C97.226 31.5237 98.0561 31.5969 98.9241 31.5969Z" fill="#DAB57E"/>
<path d="M123 19.6972V17.0977H108.698V31.3402H123V28.7773H111.491V25.2258H121.34V22.6629H111.491V19.6972H123Z" fill="#DAB57E"/>
<path d="M107.793 6.44336L103.227 14.6447H106.321L111.076 6.44336H107.793Z" fill="#DAB57E"/>
<path d="M118.358 14.6449H121.452L114.094 0.402344H111.037C113.49 5.16207 115.943 9.92179 118.358 14.6449Z" fill="#DAB57E"/>
<path d="M65.7923 0.402344L56.4338 12.1918L47.1131 0.402344H43.8301V14.6449H46.6225V4.90578L54.7735 14.6449H58.0942L66.2452 4.90578V14.6449H69.0376V0.402344H65.7923Z" fill="#DAB57E"/>
<path d="M86.8488 2.96527V0.402344H72.5469V14.6449H86.8488V12.082H75.3393V8.53049H85.1884V5.96756H75.3393V2.96527H86.8488Z" fill="#DAB57E"/>
<path d="M105.264 0.402344H89.2637V2.96527H95.8297V14.6449H98.6599V2.96527H105.264V0.402344Z" fill="#DAB57E"/>
<path d="M61.3018 31.5965C62.1697 31.5965 63.0377 31.5233 63.8679 31.3402C64.698 31.1572 65.5282 30.9009 66.2829 30.4981C67.0754 30.0954 67.7546 29.6194 68.3584 29.0702C68.9622 28.521 69.415 27.8253 69.7924 26.9832C70.1697 26.1411 70.3207 25.2258 70.3207 24.2006C70.3207 22.9924 70.0565 21.9306 69.5282 20.9421C68.9999 19.9901 68.3207 19.1846 67.415 18.5988C66.5471 18.013 65.566 17.5736 64.5471 17.2441C64.3584 17.2075 64.2075 17.1343 64.0188 17.0977L62.3207 19.4043C63.5282 19.5507 64.6226 19.9535 65.566 20.5759C66.7735 21.418 67.3773 22.5896 67.3773 24.164C67.3773 25.0061 67.1886 25.775 66.849 26.3974C66.4716 27.0565 66.0188 27.5324 65.415 27.8986C64.8112 28.2647 64.1697 28.521 63.4905 28.7041C62.8112 28.8871 62.0943 28.9604 61.3395 28.9604C60.5848 28.9604 59.8678 28.8871 59.1886 28.7041C58.5094 28.521 57.8679 28.2647 57.2641 27.8986C56.9999 27.7521 56.7358 27.5324 56.5094 27.3128L54.8867 29.5096C55.0377 29.6194 55.1509 29.6926 55.3018 29.8025C56.1697 30.3517 57.1509 30.791 58.1697 31.0839C59.1509 31.4501 60.2075 31.5965 61.3018 31.5965Z" fill="#DAB57E"/>
<path d="M37 7.64458C22 4.30027 13.7241 10.034 10.6207 13.8564C7.51724 17.6789 7 22.7286 7 14.812C8.55172 3.3447 5.96552 0.477808 23.5517 0C32.693 0 37 6.68931 37 7.64458Z" fill="#ED0101"/>
<path d="M8.18707 22.4488C6.68023 21.0219 6.94781 19.6981 7.18303 17.6925C7.68509 13.412 10.7229 10.0015 16.7243 6.75341C23.7554 2.94806 30.7864 3.89972 34.3018 4.85094C37.9794 5.84603 38.3196 8.65587 37.8174 9.13149C37.3151 9.6071 32.2932 7.22899 26.7688 7.7046C21.7424 8.13735 15.7917 11.5096 13.2089 14.3633C10.1956 17.6926 10.6977 20.5463 10.1955 21.9732C9.69331 23.4 8.89734 23.1214 8.18707 22.4488Z" fill="#F1E8E8"/>
<path d="M4 19C5.65685 19 7 17.6569 7 16C7 14.3431 5.65685 13 4 13C2.34315 13 1 14.3431 1 16C1 17.6569 2.34315 19 4 19Z" fill="#F1E8E8"/>
</svg>
