<svg width="56" height="56" viewBox="0 0 56 56" fill="none" xmlns="http://www.w3.org/2000/svg">
<g clip-path="url(#clip0_23156_78847)">
<path fill-rule="evenodd" clip-rule="evenodd" d="M53.4609 39.6672C55.0911 36.1154 56 32.1639 56 28C56 12.536 43.464 0 28 0C12.536 0 0 12.536 0 28C0 43.464 12.536 56 28 56C32.1639 56 36.1154 55.0911 39.6672 53.4609C36.8627 51.6895 35 48.5623 35 45C35 39.4772 39.4772 35 45 35C48.5623 35 51.6895 36.8627 53.4609 39.6672Z" fill="#EB7104"/>
<path d="M54 45C54 49.9706 49.9706 54 45 54C40.0294 54 36 49.9706 36 45C36 40.0294 40.0294 36 45 36C49.9706 36 54 40.0294 54 45Z" fill="white"/>
<path fill-rule="evenodd" clip-rule="evenodd" d="M21.125 15H27L23.875 25H33L31.4375 30H22.3125L18.875 41H13L21.125 15ZM37.125 15H43L34.875 41H29L37.125 15Z" fill="white"/>
<path d="M40.7798 50.0002L41.0433 48.4491L45.2194 45.0933C45.5774 44.795 45.8806 44.5265 46.1292 44.2879C46.3811 44.0492 46.58 43.8156 46.7258 43.5869C46.875 43.3549 46.9727 43.1046 47.0191 42.8362C47.0688 42.5379 47.044 42.281 46.9446 42.0656C46.8484 41.8468 46.6927 41.6794 46.4772 41.5634C46.2651 41.4441 46.0099 41.3845 45.7116 41.3845C45.4001 41.3845 45.1167 41.4474 44.8615 41.5734C44.6063 41.6993 44.3941 41.88 44.2251 42.1153C44.0561 42.3506 43.9434 42.6307 43.887 42.9555H41.8437C41.9564 42.2893 42.2066 41.7109 42.5944 41.2204C42.9822 40.7299 43.4694 40.3504 44.0561 40.0819C44.6427 39.8134 45.2923 39.6792 46.0049 39.6792C46.7341 39.6792 47.3473 39.8085 47.8444 40.067C48.3449 40.3222 48.7078 40.6768 48.9332 41.1309C49.1586 41.585 49.2215 42.1053 49.1221 42.692C49.0558 43.0798 48.915 43.4609 48.6995 43.8354C48.4841 44.2067 48.146 44.621 47.6853 45.0783C47.2246 45.5324 46.5932 46.0776 45.7911 46.714L44.066 48.1707L44.0511 48.2403H48.3316L48.0383 50.0002H40.7798Z" fill="#EB7104"/>
</g>
<defs>
<clipPath id="clip0_23156_78847">
<rect width="56" height="56" fill="white"/>
</clipPath>
</defs>
</svg>
