<svg width="56" height="56" viewBox="0 0 56 56" fill="none" xmlns="http://www.w3.org/2000/svg">
<g clip-path="url(#clip0_23157_78860)">
<path fill-rule="evenodd" clip-rule="evenodd" d="M53.4609 39.6672C55.0911 36.1154 56 32.1639 56 28C56 12.536 43.464 0 28 0C12.536 0 0 12.536 0 28C0 43.464 12.536 56 28 56C32.1639 56 36.1154 55.0911 39.6672 53.4609C36.8627 51.6895 35 48.5623 35 45C35 39.4772 39.4772 35 45 35C48.5623 35 51.6895 36.8627 53.4609 39.6672Z" fill="#EB7104"/>
<path d="M54 45C54 49.9706 49.9706 54 45 54C40.0294 54 36 49.9706 36 45C36 40.0294 40.0294 36 45 36C49.9706 36 54 40.0294 54 45Z" fill="white"/>
<path fill-rule="evenodd" clip-rule="evenodd" d="M21.125 15H27L23.875 25H33L31.4375 30H22.3125L18.875 41H13L21.125 15ZM37.125 15H43L34.875 41H29L37.125 15Z" fill="white"/>
<path d="M44.4275 50.1394C43.6652 50.1394 43.009 50.0118 42.4588 49.7566C41.9086 49.5014 41.5009 49.1468 41.2358 48.6927C40.9739 48.2386 40.8894 47.7149 40.9822 47.1217H43.12C43.0869 47.3669 43.125 47.584 43.2344 47.7729C43.347 47.9619 43.5144 48.1077 43.7365 48.2104C43.9619 48.3132 44.227 48.3646 44.5319 48.3646C44.8733 48.3646 45.1882 48.2999 45.4765 48.1707C45.7649 48.0414 46.0035 47.8658 46.1925 47.6437C46.3847 47.4183 46.5024 47.1648 46.5454 46.883C46.5885 46.6146 46.5521 46.3859 46.4361 46.197C46.3201 46.0047 46.1345 45.8572 45.8792 45.7545C45.624 45.6517 45.3075 45.6004 44.9297 45.6004H43.9403L44.2038 44.0194H45.0987C45.4301 44.0194 45.7334 43.9581 46.0085 43.8354C46.2869 43.7128 46.5173 43.5421 46.6996 43.3234C46.8818 43.1046 46.9962 42.8511 47.0426 42.5627C47.0824 42.3274 47.0641 42.1219 46.9879 41.9462C46.915 41.7673 46.7857 41.6297 46.6001 41.5336C46.4178 41.4342 46.1809 41.3845 45.8892 41.3845C45.5942 41.3845 45.3075 41.4375 45.0291 41.5435C44.7507 41.6463 44.5154 41.7938 44.3231 41.986C44.1309 42.1783 44.0132 42.4036 43.9702 42.6622H41.9169C42.0196 42.0755 42.2649 41.5585 42.6527 41.111C43.0438 40.6636 43.5293 40.3139 44.1094 40.062C44.6927 39.8068 45.3224 39.6792 45.9986 39.6792C46.7178 39.6792 47.3243 39.8184 47.8182 40.0968C48.312 40.3719 48.67 40.7365 48.892 41.1906C49.1174 41.6413 49.187 42.1319 49.1008 42.6622C49.0047 43.2455 48.7495 43.7078 48.3352 44.0492C47.9242 44.3873 47.4122 44.606 46.799 44.7055V44.7801C47.4851 44.8729 48.0021 45.1463 48.3501 45.6004C48.7015 46.0544 48.8241 46.6063 48.718 47.2559C48.6285 47.8194 48.3849 48.3182 47.9872 48.7524C47.5895 49.1865 47.084 49.5263 46.4709 49.7715C45.8577 50.0168 45.1766 50.1394 44.4275 50.1394Z" fill="#EB7104"/>
</g>
<defs>
<clipPath id="clip0_23157_78860">
<rect width="56" height="56" fill="white"/>
</clipPath>
</defs>
</svg>
