<svg width="56" height="56" viewBox="0 0 56 56" fill="none" xmlns="http://www.w3.org/2000/svg">
<g clip-path="url(#clip0_23157_78865)">
<path fill-rule="evenodd" clip-rule="evenodd" d="M53.4609 39.6672C55.0911 36.1154 56 32.1639 56 28C56 12.536 43.464 0 28 0C12.536 0 0 12.536 0 28C0 43.464 12.536 56 28 56C32.1639 56 36.1154 55.0911 39.6672 53.4609C36.8627 51.6895 35 48.5623 35 45C35 39.4772 39.4772 35 45 35C48.5623 35 51.6895 36.8627 53.4609 39.6672Z" fill="#EB7104"/>
<path d="M54 45C54 49.9706 49.9706 54 45 54C40.0294 54 36 49.9706 36 45C36 40.0294 40.0294 36 45 36C49.9706 36 54 40.0294 54 45Z" fill="white"/>
<path fill-rule="evenodd" clip-rule="evenodd" d="M21.125 15H27L23.875 25H33L31.4375 30H22.3125L18.875 41H13L21.125 15ZM37.125 15H43L34.875 41H29L37.125 15Z" fill="white"/>
<path d="M40.5889 48.2104L40.8673 46.5151L46.2316 39.8184H47.6933L47.3055 42.1649H46.4355L43.0548 46.4057L43.0448 46.4853H49.0803L48.797 48.2104H40.5889ZM45.1776 50.0002L45.5654 47.6884L45.7295 46.9476L46.9078 39.8184H48.9262L47.2359 50.0002H45.1776Z" fill="#EB7104"/>
</g>
<defs>
<clipPath id="clip0_23157_78865">
<rect width="56" height="56" fill="white"/>
</clipPath>
</defs>
</svg>
