<svg width="56" height="56" viewBox="0 0 56 56" fill="none" xmlns="http://www.w3.org/2000/svg">
<g clip-path="url(#clip0_23157_78870)">
<path fill-rule="evenodd" clip-rule="evenodd" d="M53.4609 39.6672C55.0911 36.1154 56 32.1639 56 28C56 12.536 43.464 0 28 0C12.536 0 0 12.536 0 28C0 43.464 12.536 56 28 56C32.1639 56 36.1154 55.0911 39.6672 53.4609C36.8627 51.6895 35 48.5623 35 45C35 39.4772 39.4772 35 45 35C48.5623 35 51.6895 36.8627 53.4609 39.6672Z" fill="#EB7104"/>
<path d="M54 45C54 49.9706 49.9706 54 45 54C40.0294 54 36 49.9706 36 45C36 40.0294 40.0294 36 45 36C49.9706 36 54 40.0294 54 45Z" fill="white"/>
<path fill-rule="evenodd" clip-rule="evenodd" d="M21.125 15H27L23.875 25H33L31.4375 30H22.3125L18.875 41H13L21.125 15ZM37.125 15H43L34.875 41H29L37.125 15Z" fill="white"/>
<path d="M44.3761 50.1394C43.6768 50.1394 43.0719 50.0101 42.5615 49.7516C42.0544 49.4898 41.6782 49.1318 41.433 48.6777C41.1877 48.2237 41.1065 47.705 41.1893 47.1216H43.2774C43.2376 47.5127 43.3503 47.8326 43.6155 48.0811C43.8806 48.3264 44.227 48.449 44.6545 48.449C44.9926 48.449 45.3042 48.3745 45.5892 48.2253C45.8742 48.0729 46.1129 47.8624 46.3051 47.5939C46.5007 47.3255 46.6266 47.0139 46.683 46.6593C46.7426 46.3013 46.7194 45.9864 46.6134 45.7147C46.5073 45.4429 46.3349 45.2308 46.0963 45.0783C45.8577 44.9225 45.566 44.8446 45.2213 44.8446C44.9197 44.8446 44.6197 44.9076 44.3214 45.0336C44.0232 45.1562 43.7779 45.3219 43.5857 45.5307L41.7263 45.1877L43.1034 39.8184H49.3278L49.0395 41.5783H44.5949L43.9038 44.1287H43.9635C44.1856 43.8768 44.4905 43.668 44.8783 43.5023C45.266 43.3366 45.6837 43.2537 46.1311 43.2537C46.7443 43.2537 47.2663 43.3979 47.6972 43.6863C48.1313 43.9746 48.4446 44.3707 48.6368 44.8745C48.829 45.3783 48.8705 45.955 48.7611 46.6046C48.6517 47.2907 48.3948 47.8989 47.9905 48.4292C47.5861 48.9595 47.0724 49.3771 46.4493 49.682C45.8262 49.9869 45.1351 50.1394 44.3761 50.1394Z" fill="#EB7104"/>
</g>
<defs>
<clipPath id="clip0_23157_78870">
<rect width="56" height="56" fill="white"/>
</clipPath>
</defs>
</svg>
