<svg width="56" height="56" viewBox="0 0 56 56" fill="none" xmlns="http://www.w3.org/2000/svg">
<g clip-path="url(#clip0_23157_78875)">
<path fill-rule="evenodd" clip-rule="evenodd" d="M53.4609 39.6672C55.0911 36.1154 56 32.1639 56 28C56 12.536 43.464 0 28 0C12.536 0 0 12.536 0 28C0 43.464 12.536 56 28 56C32.1639 56 36.1154 55.0911 39.6672 53.4609C36.8627 51.6895 35 48.5623 35 45C35 39.4772 39.4772 35 45 35C48.5623 35 51.6895 36.8627 53.4609 39.6672Z" fill="#EB7104"/>
<path d="M54 45C54 49.9706 49.9706 54 45 54C40.0294 54 36 49.9706 36 45C36 40.0294 40.0294 36 45 36C49.9706 36 54 40.0294 54 45Z" fill="white"/>
<path fill-rule="evenodd" clip-rule="evenodd" d="M21.125 15H27L23.875 25H33L31.4375 30H22.3125L18.875 41H13L21.125 15ZM37.125 15H43L34.875 41H29L37.125 15Z" fill="white"/>
<path d="M44.5601 50.1394C44.0231 50.1394 43.5194 50.0483 43.0487 49.866C42.5814 49.6837 42.1837 49.3937 41.8555 48.996C41.5274 48.5949 41.3037 48.0679 41.1844 47.415C41.0651 46.7621 41.0849 45.9649 41.244 45.0237C41.3832 44.1818 41.602 43.4311 41.9003 42.7715C42.2019 42.1086 42.5665 41.5485 42.994 41.0911C43.4216 40.6304 43.9038 40.2808 44.4408 40.0421C44.981 39.8002 45.5594 39.6792 46.1758 39.6792C46.8553 39.6792 47.4386 39.8101 47.9258 40.072C48.4131 40.3305 48.7843 40.6851 49.0395 41.1359C49.2947 41.5833 49.409 42.0888 49.3825 42.6522H47.3044C47.2978 42.2876 47.1818 42.0092 46.9564 41.817C46.7343 41.6214 46.4344 41.5237 46.0565 41.5237C45.3804 41.5237 44.8087 41.817 44.3413 42.4036C43.874 42.9903 43.5508 43.789 43.3719 44.7999L43.4514 44.6856C43.6536 44.3873 43.8972 44.1354 44.1822 43.9299C44.4706 43.7244 44.7838 43.5686 45.1219 43.4626C45.4633 43.3565 45.8146 43.3035 46.1758 43.3035C46.7923 43.3035 47.3193 43.451 47.7568 43.746C48.1943 44.0376 48.5092 44.4403 48.7014 44.9541C48.897 45.4678 48.9401 46.0511 48.8307 46.7041C48.718 47.3769 48.4644 47.9718 48.07 48.4889C47.6756 49.0059 47.1751 49.4119 46.5686 49.7069C45.9654 49.9986 45.2959 50.1427 44.5601 50.1394ZM44.6347 48.4491C44.9827 48.4491 45.3091 48.3646 45.6141 48.1955C45.919 48.0265 46.1742 47.7978 46.3797 47.5095C46.5885 47.2178 46.7194 46.8913 46.7724 46.5301C46.8255 46.2152 46.8023 45.9318 46.7028 45.6799C46.6067 45.428 46.4493 45.2292 46.2305 45.0833C46.0118 44.9342 45.7433 44.8596 45.4251 44.8596C45.1666 44.8596 44.9164 44.9093 44.6744 45.0087C44.4358 45.1082 44.2187 45.2457 44.0231 45.4214C43.8276 45.597 43.6635 45.8009 43.531 46.0329C43.3984 46.2616 43.3122 46.5069 43.2724 46.7687C43.2227 47.0869 43.2459 47.3736 43.342 47.6288C43.4415 47.8807 43.6022 48.0812 43.8243 48.2303C44.0463 48.3762 44.3165 48.4491 44.6347 48.4491Z" fill="#EB7104"/>
</g>
<defs>
<clipPath id="clip0_23157_78875">
<rect width="56" height="56" fill="white"/>
</clipPath>
</defs>
</svg>
