<svg width="56" height="56" viewBox="0 0 56 56" fill="none" xmlns="http://www.w3.org/2000/svg">
<g clip-path="url(#clip0_23157_78885)">
<path fill-rule="evenodd" clip-rule="evenodd" d="M53.4609 39.6672C55.0911 36.1154 56 32.1639 56 28C56 12.536 43.464 0 28 0C12.536 0 0 12.536 0 28C0 43.464 12.536 56 28 56C32.1639 56 36.1154 55.0911 39.6672 53.4609C36.8627 51.6895 35 48.5623 35 45C35 39.4772 39.4772 35 45 35C48.5623 35 51.6895 36.8627 53.4609 39.6672Z" fill="#EB7104"/>
<path d="M54 45C54 49.9706 49.9706 54 45 54C40.0294 54 36 49.9706 36 45C36 40.0294 40.0294 36 45 36C49.9706 36 54 40.0294 54 45Z" fill="white"/>
<path fill-rule="evenodd" clip-rule="evenodd" d="M21.125 15H27L23.875 25H33L31.4375 30H22.3125L18.875 41H13L21.125 15ZM37.125 15H43L34.875 41H29L37.125 15Z" fill="white"/>
<path d="M44.3661 50.1394C43.5971 50.1394 42.9326 50.0118 42.3725 49.7566C41.8123 49.5014 41.398 49.1551 41.1296 48.7176C40.8611 48.2767 40.7733 47.7796 40.8661 47.2261C40.9357 46.8085 41.0964 46.4256 41.3483 46.0776C41.6035 45.7263 41.9167 45.433 42.288 45.1977C42.6592 44.9623 43.0536 44.8115 43.4712 44.7453V44.6806C42.9541 44.5712 42.5631 44.3028 42.2979 43.8752C42.0327 43.4444 41.9482 42.9488 42.0443 42.3887C42.1372 41.8617 42.3692 41.3944 42.7404 40.9867C43.1116 40.5791 43.5822 40.2592 44.1523 40.0272C44.7257 39.7952 45.3538 39.6792 46.0365 39.6792C46.7259 39.6792 47.3225 39.8002 47.8263 40.0421C48.3301 40.2841 48.703 40.6139 48.9449 41.0315C49.1902 41.4491 49.2681 41.923 49.1786 42.4533C49.0858 43.0201 48.8306 43.5073 48.413 43.915C47.9987 44.3194 47.5131 44.5746 46.9563 44.6806V44.7453C47.3573 44.8149 47.7053 44.9706 48.0003 45.2126C48.2986 45.4512 48.5174 45.7512 48.6566 46.1124C48.7958 46.4704 48.8289 46.8631 48.756 47.2907C48.6632 47.8343 48.413 48.3215 48.0053 48.7524C47.5976 49.1832 47.0789 49.5229 46.4492 49.7715C45.8228 50.0168 45.1284 50.1394 44.3661 50.1394ZM44.5749 48.5585C44.9229 48.5585 45.2361 48.4955 45.5145 48.3695C45.7962 48.2403 46.0283 48.063 46.2105 47.8376C46.3928 47.6089 46.5072 47.3504 46.5536 47.062C46.6033 46.767 46.5735 46.5085 46.4641 46.2864C46.3547 46.0644 46.184 45.8904 45.952 45.7644C45.72 45.6385 45.4416 45.5755 45.1168 45.5755C44.782 45.5755 44.4721 45.6435 44.1871 45.7793C43.9054 45.9119 43.6701 46.0942 43.4811 46.3262C43.2955 46.5582 43.1779 46.825 43.1282 47.1266C43.0818 47.4084 43.1116 47.6586 43.2176 47.8774C43.3237 48.0928 43.4927 48.2602 43.7247 48.3795C43.9601 48.4988 44.2434 48.5585 44.5749 48.5585ZM45.3206 44.0095C45.6156 44.0095 45.8857 43.9498 46.131 43.8305C46.3763 43.7078 46.5784 43.5421 46.7375 43.3333C46.8999 43.1212 47.0043 42.8809 47.0507 42.6124C47.1005 42.344 47.0806 42.112 46.9911 41.9164C46.9016 41.7209 46.7574 41.5701 46.5586 41.464C46.363 41.3546 46.1227 41.2999 45.8377 41.2999C45.5394 41.2999 45.2659 41.3596 45.0174 41.4789C44.7721 41.5949 44.5683 41.7557 44.4059 41.9612C44.2434 42.1667 44.139 42.4036 44.0926 42.6721C44.0496 42.9406 44.0728 43.1759 44.1622 43.3781C44.255 43.5769 44.4009 43.7327 44.5997 43.8454C44.8019 43.9548 45.0422 44.0095 45.3206 44.0095Z" fill="#EB7104"/>
</g>
<defs>
<clipPath id="clip0_23157_78885">
<rect width="56" height="56" fill="white"/>
</clipPath>
</defs>
</svg>
