<svg width="40" height="40" viewBox="0 0 40 40" fill="none" xmlns="http://www.w3.org/2000/svg">
<g clip-path="url(#clip0_23162_78910)">
<path fill-rule="evenodd" clip-rule="evenodd" d="M1.81364 11.6663C0.649206 14.2033 -9.53674e-07 17.0258 -9.53674e-07 20C-9.53674e-07 31.0457 8.9543 40 20 40C31.0457 40 40 31.0457 40 20C40 8.9543 31.0457 -9.53674e-07 20 -9.53674e-07C17.0258 -9.53674e-07 14.2033 0.649206 11.6663 1.81364C13.6695 3.0789 15 5.31265 15 7.85714C15 11.802 11.802 15 7.85714 15C5.31265 15 3.0789 13.6695 1.81364 11.6663Z" fill="#EB7104"/>
<path d="M14 8C14 11.3137 11.3137 14 8 14C4.68629 14 2 11.3137 2 8C2 4.68629 4.68629 2 8 2C11.3137 2 14 4.68629 14 8Z" fill="white"/>
<path fill-rule="evenodd" clip-rule="evenodd" d="M15.0892 10.7144H19.2856L17.0535 17.8572H23.5714L22.4553 21.4286H15.9374L13.4821 29.2858H9.28564L15.0892 10.7144ZM26.5178 10.7144H30.7142L24.9106 29.2858H20.7142L26.5178 10.7144Z" fill="white"/>
<path d="M7.0348 8.11932L6.50923 11.2727H5L6.20739 4H7.67401L7.21946 6.78054H7.27983C7.45502 6.45857 7.69531 6.20644 8.00071 6.02415C8.30611 5.83949 8.66714 5.74716 9.08381 5.74716C9.46259 5.74716 9.77865 5.83002 10.032 5.99574C10.2876 6.15909 10.4687 6.39465 10.5753 6.70241C10.6818 7.00781 10.6996 7.37358 10.6286 7.79972L10.0462 11.2727H8.53693L9.0696 8.0696C9.12405 7.73343 9.08026 7.47183 8.93821 7.2848C8.79853 7.09777 8.57599 7.00426 8.2706 7.00426C8.06463 7.00426 7.87524 7.04806 7.70241 7.13565C7.52959 7.22325 7.384 7.35109 7.26563 7.51918C7.14962 7.6849 7.07268 7.88494 7.0348 8.11932Z" fill="#EB7104"/>
</g>
<defs>
<clipPath id="clip0_23162_78910">
<rect width="40" height="40" fill="white"/>
</clipPath>
</defs>
</svg>
