<svg width="15" height="15" viewBox="0 0 15 15" fill="none" xmlns="http://www.w3.org/2000/svg">
<circle cx="7.38535" cy="7.38535" r="7.38535" fill="#EB7104"/>
<path fill-rule="evenodd" clip-rule="evenodd" d="M6.56 7.44092H11.3798C11.7223 7.44092 12 7.7186 12 8.06114C12 8.40368 11.7223 8.68136 11.3798 8.68136H7.69279L7.41689 11.7163C7.38588 12.0574 7.0842 12.3088 6.74306 12.2778C6.40193 12.2468 6.15053 11.9451 6.18154 11.604L6.56 7.44092Z" fill="white"/>
<path fill-rule="evenodd" clip-rule="evenodd" d="M6.17902 5.77061C6.17902 5.42807 6.4567 5.15039 6.79924 5.15039H11.3798C11.7223 5.15039 12 5.42807 12 5.77061C12 6.11315 11.7223 6.39083 11.3798 6.39083H6.79924C6.4567 6.39083 6.17902 6.11315 6.17902 5.77061Z" fill="white"/>
<path d="M4.04547 5.16621L3.91641 6.42H3L3.22 3H4.18942L4.09384 4.53535C4.17685 4.37265 4.27967 4.23098 4.42908 4.14023C4.68799 3.98297 4.81247 4.01737 5.00173 4.01737C5.18103 4.01737 5.33044 4.05833 5.44997 4.14023C5.5695 4.22213 5.65417 4.33502 5.70398 4.4789C5.75378 4.62278 5.76319 4.78769 5.7322 4.97363L5.56994 6.42H4.65353L4.78258 5.16621C4.80251 5.04004 4.78646 4.94098 4.73444 4.86904C4.68353 4.7971 4.59997 4.76113 4.48375 4.76113C4.40849 4.76113 4.33987 4.77773 4.27789 4.81094C4.21702 4.84303 4.16611 4.88952 4.12516 4.95039C4.08531 5.01016 4.05875 5.0821 4.04547 5.16621Z" fill="white"/>
</svg>
