<?xml version="1.0" encoding="UTF-8"?>
<!DOCTYPE svg PUBLIC "-//W3C//DTD SVG 1.1//EN" "http://www.w3.org/Graphics/SVG/1.1/DTD/svg11.dtd">
<!-- Creator: CorelDRAW -->
<svg xmlns="http://www.w3.org/2000/svg" xml:space="preserve" width="110.781mm" height="19.5933mm" version="1.1" style="shape-rendering:geometricPrecision; text-rendering:geometricPrecision; image-rendering:optimizeQuality; fill-rule:evenodd; clip-rule:evenodd"
viewBox="0 0 62549.04 11062.72"
 xmlns:xlink="http://www.w3.org/1999/xlink"
 xmlns:xodm="http://www.corel.com/coreldraw/odm/2003">
 <defs>
  <style type="text/css">
   <![CDATA[
    .fil0 {fill:#DAB57E}
    .fil1 {fill:#DAB57E;fill-rule:nonzero}
   ]]>
  </style>
 </defs>
 <g id="Layer_x0020_1">
  <metadata id="CorelCorpID_0Corel-Layer"/>
  <g id="_2332449395776">
   <path class="fil0" d="M7250.53 4293.01c277.79,20.38 410.19,-242.67 646.43,163.8 55.78,95.76 40.65,179.1 100.61,272.6l-15.3 53.58c-62.67,-100.16 -151.77,-160.18 -280.22,-164.02 -141.72,-4.46 -243.35,-76.34 -326.46,-184.91 -37.83,-49.29 -82.43,-93.5 -125.06,-141.04zm-1969.44 -1213.59c0,20.89 -232.06,124.05 -350.06,-17.28 -76.28,-83.34 -128.06,-335.27 170.57,-911.35 158.43,-305.74 317.65,-477.05 433.17,-571.34 71.99,-52.62 106.77,-52.68 68.94,48.56 -104.57,169.84 -283.89,412.68 -393.26,760.99 -173.45,552.7 70.63,669.58 70.63,690.41zm245.1 7983.29l10.33 0c1525.31,-1.41 2906.25,-620.18 3906.19,-1620.11 1000.95,-1001.01 1620.06,-2383.87 1620.06,-3911.16 0,-1527.52 -619.1,-2910.38 -1620.06,-3911.33 -1001.07,-1001.07 -2384.04,-1620.11 -3911.33,-1620.11 -1527.35,0 -2910.26,619.05 -3911.22,1620.11 -1001.07,1000.95 -1620.17,2383.98 -1620.17,3911.33 0,1527.29 619.1,2910.15 1620.17,3911.16 999.82,999.94 2380.82,1618.7 3906.02,1620.11zm3392.05 -2144.59c-291.57,291.74 -620.8,545.59 -979.44,754.55 -2633.49,1131.44 -4238.69,-1577.65 -3045.04,-3115.39 -384,-247.7 -863.64,-1278.12 -269.77,-1738.85 -253.17,334.42 -36.02,1439.89 636.61,1762.28 240.92,115.35 471.51,131.89 699.28,146.07 664.33,41.33 1027.66,255.32 1557.95,655.35 190.95,144.03 386.76,324.71 613.96,183.27 170.63,-106.15 507.08,-319.4 469.2,-598.32 282.65,-123.93 455.14,-219.75 580.65,-489.18 54.15,-115.97 78.82,-249.05 117.44,-338.43 85.77,-199.03 144.77,-148.66 189.99,-350.35 77.3,-344.81 -153.46,-466.71 -306.47,-701.93 -194,-297.95 -456.94,-689.23 -557.5,-1015.69 -122.18,-396.47 -583.7,-771.15 -1119.24,-1016.42 -356.22,-163.06 -665.57,-305.85 -1024.67,-450.68 -192.37,-77.52 -401.16,-167.58 -469.31,-225.17 -150.87,-127.55 -89.77,-531.36 -90.34,-732.65 -0.62,-234.43 -41.22,-446.78 -335.55,-292.7 -459.32,194.74 -1015.18,1054.82 -1018.34,1077.69 -1522.89,507.7 -3141.87,1135.16 -3810.83,2718.29 92.26,-1170.56 605.27,-2222.79 1387.72,-3005.34 866.74,-866.74 2064.24,-1402.9 3386.86,-1402.9 1322.67,0 2520.17,536.16 3386.86,1402.9 866.74,866.8 1402.85,2064.18 1402.85,3386.91 0,1322.62 -536.1,2520 -1402.85,3386.69z"/>
   <polygon class="fil1" points="62549.04,3081.62 62549.04,3081.57 57753.07,3081.57 57753.07,7995.94 62549.04,7995.94 62549.04,7107.8 58692.98,7107.8 58692.98,5886.59 61993.96,5886.59 61993.96,4998.44 58692.98,4998.44 58692.98,3969.65 61936.82,3969.65 "/>
   <path class="fil1" d="M54037.66 8092.15c843.76,0 1513.57,-127.1 2009.47,-381.17 495.85,-254.08 743.77,-622.94 743.77,-1106.48 0,-453.95 -193.61,-793.17 -580.99,-1017.67 -387.33,-224.49 -1064.53,-408.33 -2031.61,-551.41 -700.69,-103.55 -1169.44,-198.58 -1406.24,-284.91 -236.86,-86.39 -355.26,-203.54 -355.26,-351.59 0,-157.87 144.32,-287.39 432.95,-388.57 288.69,-101.12 687.08,-151.71 1195.29,-151.71 1159.55,0 1744.22,298.51 1754.1,895.54l638.36 -925.97c-148.66,-193.38 -354.02,-358.42 -616.11,-495.06 -463.83,-241.77 -1073.22,-362.65 -1828.12,-362.65 -759.86,0 -1375.41,123.37 -1846.58,370.11 -471.29,246.62 -706.9,584.66 -706.9,1013.94 0,439.1 201.12,775.9 603.24,1010.21 402.12,234.43 1064.53,420.7 1987.23,558.86 720.4,103.55 1200.26,201 1439.55,292.36 239.28,91.24 358.93,215.85 358.93,373.72 0,192.48 -151.66,342.95 -455.14,451.52 -303.48,108.46 -741.34,162.78 -1313.75,162.78 -582.23,0 -1044.82,-82.66 -1387.72,-247.92 -342.89,-165.32 -536.56,-378.75 -580.93,-640.22l-614.59 891.47c163.85,196.99 390.94,367.4 681.15,511.09 503.3,249.17 1129.91,373.72 1879.89,373.72z"/>
   <path class="fil1" d="M46140.52 3940.07c458.86,-14.79 1092.99,-22.19 1902.14,-22.19 1001.63,0 1502.45,249.17 1502.45,747.5 0,473.66 -500.82,710.51 -1502.45,710.51l-1902.14 0 0 -1435.82zm4448.17 4055.87l-1591.26 -1820.72c1011.51,-197.33 1517.24,-700.63 1517.24,-1509.84 0,-542.71 -224.49,-951.04 -673.53,-1224.88 -448.98,-273.84 -1100.33,-410.82 -1953.91,-410.82 -1194.05,0 -2089.59,17.28 -2686.62,51.89l0 4914.37 939.92 0 0 -1731.91 1746.7 0 1487.65 1731.91 1213.81 0z"/>
   <polygon class="fil1" points="44268.03,3969.65 44268.03,3081.57 39472,3081.57 39472,7995.94 44268.03,7995.94 44268.03,7107.8 40411.97,7107.8 40411.97,5886.59 43712.9,5886.59 43712.9,4998.44 40411.97,4998.44 40411.97,3969.65 "/>
   <polygon class="fil1" points="37806.77,3081.57 35786.23,7115.19 33787.71,3125.55 33187.87,3995.68 35194.18,7995.94 36378.35,7995.94 38842.96,3081.57 "/>
   <polygon class="fil1" points="31329.82,7995.94 32269.8,7995.94 32269.8,3081.57 31329.82,3081.57 "/>
   <polygon class="fil1" points="26803.06,7107.8 26803.06,3081.57 25863.09,3081.57 25863.09,7995.94 29935.78,7995.94 30548.05,7107.8 "/>
   <path class="fil1" d="M21962.71 7204.01c-251.65,0 -492.23,-30.83 -721.64,-92.54 -229.46,-61.66 -446.56,-155.38 -651.34,-281.24 -204.73,-125.85 -367.57,-300.94 -488.45,-525.49 -120.88,-224.49 -181.3,-482.3 -181.3,-773.41 0,-542.77 203.49,-957.2 610.58,-1243.4 407.09,-286.15 884.42,-429.28 1432.15,-429.28 547.68,0 1025.06,143.13 1432.1,429.28 407.09,286.2 610.63,700.63 610.63,1243.4 0,296.03 -60.47,555.08 -181.36,777.14 -120.88,222.01 -282.48,395.91 -484.78,521.76 -202.3,125.85 -419.4,219.58 -651.34,281.24 -231.89,61.71 -473.66,92.54 -725.25,92.54zm0 888.14c291.06,0 576.02,-29.59 854.83,-88.81 278.75,-59.17 550.16,-156.62 814.12,-292.36 264.02,-135.68 494.66,-299.7 691.99,-492.18 197.39,-192.42 356.5,-434.19 477.38,-725.31 120.88,-291.12 181.36,-611.82 181.36,-962.16 0,-414.49 -87.63,-789.45 -262.77,-1125 -175.2,-335.5 -409.52,-605.66 -703.06,-810.4 -293.66,-204.79 -615.55,-360.17 -965.89,-466.32 -350.29,-106.09 -713,-159.11 -1087.96,-159.11 -375.02,0 -737.67,53.02 -1088.02,159.11 -350.35,106.15 -671.05,261.53 -962.16,466.32 -291.06,204.73 -524.25,474.9 -699.45,810.4 -175.09,335.55 -262.66,710.51 -262.66,1125 0,434.19 90,821.57 270.11,1161.98 180.06,340.46 418.16,608.15 714.18,803.06 296.09,194.91 616.79,342.89 962.16,444.07 345.43,101.12 700.63,151.71 1065.83,151.71z"/>
   <polygon class="fil1" points="17186.16,3081.57 17186.16,4998.44 13670.57,4998.44 13670.57,3081.57 12730.6,3081.57 12730.6,7995.94 13670.57,7995.94 13670.57,5886.59 17186.16,5886.59 17186.16,7995.94 18126.13,7995.94 18126.13,3081.57 "/>
  </g>
 </g>
</svg>
