<?xml version="1.0" encoding="UTF-8"?>
<!DOCTYPE svg PUBLIC "-//W3C//DTD SVG 1.1//EN" "http://www.w3.org/Graphics/SVG/1.1/DTD/svg11.dtd">
<!-- Creator: CorelDRAW -->
<svg xmlns="http://www.w3.org/2000/svg" xml:space="preserve" width="19.5934mm" height="19.5933mm" version="1.1" style="shape-rendering:geometricPrecision; text-rendering:geometricPrecision; image-rendering:optimizeQuality; fill-rule:evenodd; clip-rule:evenodd"
viewBox="0 0 1956.62 1956.61"
 xmlns:xlink="http://www.w3.org/1999/xlink"
 xmlns:xodm="http://www.corel.com/coreldraw/odm/2003">
 <defs>
  <style type="text/css">
   <![CDATA[
    .fil0 {fill:#DAB57E}
   ]]>
  </style>
 </defs>
 <g id="Layer_x0020_1">
  <metadata id="CorelCorpID_0Corel-Layer"/>
  <path class="fil0" d="M1282.37 759.29c49.13,3.6 72.55,-42.92 114.33,28.97 9.87,16.94 7.19,31.68 17.8,48.21l-2.71 9.48c-11.08,-17.72 -26.84,-28.33 -49.56,-29.01 -25.07,-0.79 -43.04,-13.5 -57.74,-32.7 -6.69,-8.72 -14.58,-16.54 -22.12,-24.95zm-348.33 -214.64c0,3.69 -41.04,21.94 -61.91,-3.06 -13.49,-14.74 -22.65,-59.3 30.17,-161.19 28.02,-54.07 56.18,-84.37 76.61,-101.05 12.73,-9.31 18.88,-9.32 12.19,8.59 -18.49,30.04 -50.21,72.99 -69.55,134.59 -30.68,97.75 12.49,118.43 12.49,122.11zm43.35 1411.97l1.83 0c269.78,-0.25 514.02,-109.69 690.87,-286.54 177.03,-177.04 286.53,-421.62 286.53,-691.75 0,-270.16 -109.5,-514.75 -286.53,-691.78 -177.05,-177.05 -421.65,-286.54 -691.78,-286.54 -270.13,0 -514.73,109.49 -691.76,286.54 -177.05,177.03 -286.55,421.64 -286.55,691.78 0,270.13 109.5,514.71 286.55,691.75 176.83,176.85 421.09,286.29 690.84,286.54zm599.94 -379.3c-51.57,51.6 -109.8,96.5 -173.23,133.45 -465.77,200.11 -749.68,-279.03 -538.56,-551.01 -67.92,-43.81 -152.75,-226.06 -47.71,-307.54 -44.78,59.15 -6.37,254.67 112.59,311.69 42.61,20.4 83.39,23.33 123.68,25.83 117.5,7.31 181.76,45.16 275.55,115.91 33.77,25.47 68.41,57.43 108.59,32.42 30.18,-18.77 89.69,-56.49 82.98,-105.82 49.99,-21.92 80.5,-38.87 102.7,-86.52 9.58,-20.51 13.94,-44.05 20.77,-59.86 15.17,-35.2 25.6,-26.29 33.6,-61.96 13.67,-60.99 -27.14,-82.55 -54.2,-124.15 -34.31,-52.7 -80.82,-121.9 -98.6,-179.64 -21.61,-70.12 -103.24,-136.39 -197.96,-179.77 -63,-28.84 -117.72,-54.09 -181.23,-79.71 -34.02,-13.71 -70.95,-29.64 -83,-39.82 -26.68,-22.56 -15.88,-93.98 -15.98,-129.58 -0.11,-41.46 -7.29,-79.02 -59.35,-51.77 -81.24,34.44 -179.55,186.56 -180.11,190.61 -269.35,89.8 -555.69,200.77 -674,480.77 16.32,-207.03 107.05,-393.13 245.44,-531.54 153.3,-153.3 365.09,-248.13 599.02,-248.13 233.94,0 445.73,94.83 599.02,248.13 153.3,153.31 248.12,365.08 248.12,599.03 0,233.93 -94.82,445.7 -248.12,598.99z"/>
 </g>
</svg>
