<svg width="117" height="32" viewBox="0 0 117 32" fill="none" xmlns="http://www.w3.org/2000/svg">
<path fill-rule="evenodd" clip-rule="evenodd" d="M21.7418 12.4485C22.572 12.5217 22.9493 11.7529 23.6663 12.9245C23.8173 13.2174 23.7795 13.4371 23.9682 13.73L23.9305 13.8764C23.7418 13.5835 23.4776 13.4005 23.1003 13.4005C22.6852 13.4005 22.3833 13.1808 22.1191 12.8513C22.0059 12.7048 21.855 12.5584 21.7418 12.4485ZM15.8927 8.93364C15.8927 9.00687 15.2135 9.29977 14.8361 8.89703C14.6097 8.64073 14.4588 7.94508 15.3267 6.26087C15.7795 5.38215 16.2701 4.86957 16.6097 4.61327C16.8361 4.46682 16.9116 4.46682 16.7984 4.75973C16.4965 5.2357 15.9682 5.96796 15.6286 6.95652C15.138 8.53089 15.8927 8.86042 15.8927 8.93364ZM16.6097 32C21.1757 32 25.289 30.206 28.2701 27.3135C31.2512 24.4211 33.1003 20.4302 33.1003 16C33.1003 11.6064 31.2512 7.57895 28.2701 4.6865C25.289 1.79405 21.1757 0 16.6097 0C12.0814 0 7.93046 1.79405 4.94933 4.6865C1.9682 7.57895 0.119141 11.5698 0.119141 16C0.119141 20.3936 1.9682 24.4211 4.94933 27.3135C7.9682 30.206 12.0814 32 16.6097 32ZM26.6852 25.7757C25.8173 26.6178 24.8361 27.3501 23.7795 27.9725C15.9305 31.2311 11.1757 23.4325 14.7229 18.9657C13.5908 18.2334 12.1569 15.2677 13.9305 13.9497C13.1757 14.9016 13.8173 18.1236 15.8173 19.0389C16.5342 19.3684 17.2135 19.405 17.8927 19.4783C19.855 19.5881 20.9493 20.2105 22.5342 21.3821C23.1003 21.7849 23.7041 22.3341 24.3456 21.8947C24.8361 21.6018 25.855 20.9794 25.7418 20.1739C26.572 19.8078 27.1003 19.5515 27.4776 18.746C27.6286 18.4165 27.7041 18.0137 27.8173 17.7574C28.0814 17.1716 28.2324 17.3181 28.3833 16.7323C28.6097 15.7437 27.9305 15.3776 27.4776 14.7185C26.9116 13.8398 26.1191 12.7414 25.8173 11.7895C25.4399 10.6545 24.0814 9.55607 22.4965 8.86042C21.4399 8.38444 20.4965 7.9817 19.4399 7.54234C18.8739 7.32266 18.2323 7.06636 18.0437 6.8833C17.5908 6.51716 17.7795 5.34554 17.7795 4.75973C17.7795 4.10069 17.6663 3.47827 16.7984 3.91762C15.4399 4.46682 13.7795 6.95653 13.7795 7.02975C9.25122 8.49428 4.42103 10.3249 2.42103 14.865C2.68518 11.4966 4.23235 8.45767 6.53424 6.18765C9.10027 3.69794 12.6852 2.12357 16.6097 2.12357C20.5342 2.12357 24.1191 3.66133 26.6852 6.18765C29.2512 8.67735 30.8739 12.1556 30.8739 15.9634C30.8739 19.8444 29.289 23.286 26.6852 25.7757Z" fill="#DAB57E"/>
<path d="M54.4587 17.0977H36.9492V31.3402H39.7417V25.2258H48.4964L50.3832 22.6995V22.6629H39.7417V19.6972H52.5719L54.4587 17.0977Z" fill="#DAB57E"/>
<path d="M81.7418 31.3407L76.9871 26.0684C80.006 25.4826 81.5154 24.0546 81.5154 21.7114C81.5154 20.137 80.8362 18.9654 79.5154 18.1599C78.1947 17.3544 76.2324 16.9883 73.7041 16.9883C70.1569 16.9883 67.4777 17.0249 65.7041 17.1347V31.3407H68.4966V26.3247H73.7041L78.1569 31.3407H81.7418ZM68.4588 19.5878C69.8173 19.5512 71.7041 19.5146 74.1192 19.5146C77.1003 19.5146 78.6098 20.2469 78.6098 21.6748C78.6098 23.0295 77.1003 23.7251 74.1192 23.7251H68.4588V19.5878Z" fill="#DAB57E"/>
<path d="M92.0432 31.5969C93.4394 31.5969 94.8357 31.3772 96.1564 30.9013C97.4772 30.4253 98.5715 29.7663 99.4394 28.8509L97.3262 27.0569C96.1187 28.375 94.3451 29.034 92.0432 29.034C90.1564 29.034 88.647 28.5946 87.5149 27.7159C86.3828 26.8372 85.8545 25.6656 85.8545 24.2011C85.8545 22.7365 86.4206 21.5649 87.5149 20.6862C88.647 19.8075 90.1187 19.3681 91.9677 19.3681C93.1753 19.3681 94.2696 19.5878 95.213 19.9905C96.1942 20.3933 96.9111 21.0523 97.4017 21.931L99.213 19.6244C98.496 18.7091 97.4772 18.0134 96.1564 17.5008C94.8734 17.0248 93.4772 16.7686 92.0432 16.7686C90.9111 16.7686 89.7791 16.915 88.7225 17.2445C87.6659 17.5374 86.6847 18.0134 85.8168 18.5992C84.9489 19.185 84.2319 19.9905 83.7036 20.9425C83.1753 21.931 82.9111 22.9928 82.9111 24.2011C82.9111 25.2262 83.0998 26.1416 83.4394 26.9837C83.8168 27.8258 84.2696 28.5214 84.8734 29.0706C85.4772 29.6198 86.1942 30.0958 86.9866 30.4985C87.7791 30.9013 88.6093 31.1576 89.4394 31.3406C90.3451 31.5237 91.1753 31.5969 92.0432 31.5969Z" fill="#DAB57E"/>
<path d="M116.119 19.6972V17.0977H101.817V31.3402H116.119V28.7773H104.61V25.2258H114.459V22.6629H104.61V19.6972H116.119Z" fill="#DAB57E"/>
<path d="M100.912 6.44336L96.3457 14.6447H99.44L104.195 6.44336H100.912Z" fill="#DAB57E"/>
<path d="M111.477 14.6449H114.571L107.213 0.402344H104.156C106.609 5.16207 109.062 9.92179 111.477 14.6449Z" fill="#DAB57E"/>
<path d="M58.9115 0.402344L49.553 12.1918L40.2322 0.402344H36.9492V14.6449H39.7417V4.90578L47.8926 14.6449H51.2134L59.3643 4.90578V14.6449H62.1568V0.402344H58.9115Z" fill="#DAB57E"/>
<path d="M79.9679 2.96527V0.402344H65.666V14.6449H79.9679V12.082H68.4585V8.53049H78.3075V5.96756H68.4585V2.96527H79.9679Z" fill="#DAB57E"/>
<path d="M98.3828 0.402344H82.3828V2.96527H88.9488V14.6449H91.779V2.96527H98.3828V0.402344Z" fill="#DAB57E"/>
<path d="M54.421 31.5965C55.2889 31.5965 56.1568 31.5233 56.987 31.3402C57.8172 31.1572 58.6474 30.9009 59.4021 30.4981C60.1945 30.0954 60.8738 29.6194 61.4776 29.0702C62.0813 28.521 62.5342 27.8253 62.9115 26.9832C63.2889 26.1411 63.4398 25.2258 63.4398 24.2006C63.4398 22.9924 63.1757 21.9306 62.6474 20.9421C62.1191 19.9901 61.4398 19.1846 60.5342 18.5988C59.6662 18.013 58.6851 17.5736 57.6662 17.2441C57.4776 17.2075 57.3266 17.1343 57.1379 17.0977L55.4398 19.4043C56.6474 19.5507 57.7417 19.9535 58.6851 20.5759C59.8927 21.418 60.4964 22.5896 60.4964 24.164C60.4964 25.0061 60.3077 25.775 59.9681 26.3974C59.5908 27.0565 59.1379 27.5324 58.5342 27.8986C57.9304 28.2647 57.2889 28.521 56.6096 28.7041C55.9304 28.8871 55.2134 28.9604 54.4587 28.9604C53.704 28.9604 52.987 28.8871 52.3077 28.7041C51.6285 28.521 50.987 28.2647 50.3832 27.8986C50.1191 27.7521 49.8549 27.5324 49.6285 27.3128L48.0059 29.5096C48.1568 29.6194 48.27 29.6926 48.421 29.8025C49.2889 30.3517 50.27 30.791 51.2889 31.0839C52.27 31.4501 53.3266 31.5965 54.421 31.5965Z" fill="#DAB57E"/>
</svg>
