<svg width="40" height="42" viewBox="0 0 40 42" fill="none" xmlns="http://www.w3.org/2000/svg">
<path d="M38.884 20.8443C38.9164 31.4393 30.4558 40.0762 20.011 40.1597C9.5662 40.2431 1.05311 31.7418 1.02067 21.1468C0.988243 10.5518 9.44888 1.91493 19.8937 1.83149C30.3385 1.74806 38.8516 10.2494 38.884 20.8443Z" fill="white" fill-opacity="0.1" stroke="#FF9501" stroke-width="2"/>
<path d="M5.31205 34.4462C2.04362 30.9273 0.0444134 26.2083 0.0351883 20.9999C0.0285755 17.2664 1.04534 13.7592 2.82094 10.7468C4.75379 10.9794 6.65484 11.1148 7.86408 10.9802C9.09636 10.8431 10.0433 10.6448 10.9503 10.4549C12.3951 10.1523 13.7384 9.871 15.9718 9.89218C18.8802 9.91977 21.5735 7.34542 22.5567 6.0548C22.8621 5.58971 23.5377 5.07791 23.7963 6.75136C24.0549 8.42482 23.589 9.98327 23.3237 10.5533C26.1094 12.0218 31.3951 16.0219 30.2521 20.275C30.4397 20.9581 31.0395 22.7644 31.9375 24.525C32.274 25.1847 32.494 25.7707 32.3001 26.2871C32.1063 26.8036 31.1639 27.5001 30.6647 27.704C30.5059 28.2728 29.9168 29.4847 28.8307 29.7828C28.2468 30.9103 26.535 32.8083 24.3593 31.3798C23.3656 30.7274 22.6387 30.1896 21.9994 29.7165C20.8889 28.8947 20.0424 28.2684 18.5199 27.5762C16.1559 26.5015 14.2471 26.8541 13.02 27.0808C13.0019 27.0842 12.9839 27.0875 12.9661 27.0908C11.7414 27.3167 8.62296 28.9472 5.94673 33.6619C5.80402 33.769 5.58958 34.0179 5.31205 34.4462Z" fill="#FF9501"/>
</svg>
