<svg width="18" height="18" viewBox="0 0 18 18" fill="none" xmlns="http://www.w3.org/2000/svg">
<path d="M6.97852 17.6602C6.50977 17.6602 6.10938 17.4518 5.77734 17.0352L0.71875 10.707C0.595052 10.5573 0.503906 10.4108 0.445312 10.2676C0.393229 10.1243 0.367188 9.97786 0.367188 9.82812C0.367188 9.48958 0.477865 9.20964 0.699219 8.98828C0.927083 8.76693 1.21354 8.65625 1.55859 8.65625C1.95573 8.65625 2.29102 8.83529 2.56445 9.19336L6.93945 14.8086L15.416 1.3418C15.5658 1.11393 15.7188 0.954427 15.875 0.863281C16.0312 0.765625 16.2331 0.716797 16.4805 0.716797C16.819 0.716797 17.0957 0.824219 17.3105 1.03906C17.5254 1.2474 17.6328 1.52083 17.6328 1.85938C17.6328 1.99609 17.61 2.13607 17.5645 2.2793C17.5189 2.41602 17.4473 2.5625 17.3496 2.71875L8.16992 17.0254C7.88346 17.4486 7.48633 17.6602 6.97852 17.6602Z" fill="#EB7104"/>
</svg>
