<svg width="34" height="48" viewBox="0 0 34 48" fill="none" xmlns="http://www.w3.org/2000/svg">
<path d="M8.50782 22.0664C8.97662 22.0664 9.38022 21.8971 9.71882 21.5586C10.0573 21.2201 10.2266 20.8164 10.2266 20.3477C10.2266 19.8659 10.0573 19.4622 9.71882 19.1367C9.38022 18.7982 8.97662 18.6289 8.50782 18.6289C8.03912 18.6289 7.63542 18.7982 7.29692 19.1367C6.95832 19.4753 6.78913 19.8789 6.78913 20.3477C6.78913 20.8034 6.95832 21.207 7.29692 21.5586C7.63542 21.8971 8.03912 22.0664 8.50782 22.0664ZM8.50782 29.1953C8.97662 29.1953 9.38022 29.026 9.71882 28.6875C10.0573 28.349 10.2266 27.9453 10.2266 27.4766C10.2266 26.9948 10.0573 26.5911 9.71882 26.2656C9.38022 25.9401 8.97662 25.7773 8.50782 25.7773C8.02602 25.7773 7.61592 25.9466 7.27732 26.2852C6.95182 26.6107 6.78913 27.0078 6.78913 27.4766C6.78913 27.9453 6.95182 28.349 7.27732 28.6875C7.61592 29.026 8.02602 29.1953 8.50782 29.1953ZM8.50782 36.7344C8.97662 36.7344 9.38022 36.5651 9.71882 36.2266C10.0573 35.888 10.2266 35.4844 10.2266 35.0156C10.2266 34.5469 10.0573 34.1432 9.71882 33.8047C9.38022 33.4661 8.97662 33.2969 8.50782 33.2969C8.03912 33.2969 7.63542 33.4661 7.29692 33.8047C6.95832 34.1432 6.78913 34.5469 6.78913 35.0156C6.78913 35.4844 6.95832 35.888 7.29692 36.2266C7.63542 36.5651 8.03912 36.7344 8.50782 36.7344ZM13.8984 21.5977H25.9688C26.3073 21.5977 26.6003 21.474 26.8477 21.2266C27.0951 20.9792 27.2188 20.6862 27.2188 20.3477C27.2188 19.9961 27.0951 19.6966 26.8477 19.4492C26.6003 19.1888 26.3073 19.0586 25.9688 19.0586H13.8984C13.5469 19.0586 13.2409 19.1888 12.9805 19.4492C12.7331 19.6966 12.6094 19.9961 12.6094 20.3477C12.6094 20.6862 12.7331 20.9792 12.9805 21.2266C13.2409 21.474 13.5469 21.5977 13.8984 21.5977ZM13.8984 28.7461H25.9688C26.3203 28.7461 26.6133 28.6224 26.8477 28.375C27.0951 28.1276 27.2188 27.8281 27.2188 27.4766C27.2188 27.125 27.0951 26.832 26.8477 26.5977C26.6133 26.3503 26.3203 26.2266 25.9688 26.2266H13.8984C13.5339 26.2266 13.2279 26.3503 12.9805 26.5977C12.7331 26.832 12.6094 27.125 12.6094 27.4766C12.6094 27.8281 12.7331 28.1276 12.9805 28.375C13.2279 28.6224 13.5339 28.7461 13.8984 28.7461ZM13.8984 36.2852H25.9688C26.3073 36.2852 26.6003 36.1615 26.8477 35.9141C27.0951 35.6536 27.2188 35.3542 27.2188 35.0156C27.2188 34.6641 27.0951 34.3711 26.8477 34.1367C26.6133 33.8893 26.3203 33.7656 25.9688 33.7656H13.8984C13.5339 33.7656 13.2279 33.8893 12.9805 34.1367C12.7331 34.3711 12.6094 34.6641 12.6094 35.0156C12.6094 35.3542 12.7331 35.6536 12.9805 35.9141C13.2409 36.1615 13.5469 36.2852 13.8984 36.2852ZM6.63282 47.4375C4.61462 47.4375 3.09772 46.9232 2.08202 45.8945C1.07942 44.8789 0.578125 43.349 0.578125 41.3047V11.6758C0.578125 9.6315 1.07292 8.1016 2.06252 7.0859C3.05212 6.05729 4.51042 5.54297 6.43752 5.54297H6.88672C6.88672 5.58203 6.88672 5.6276 6.88672 5.67969C6.88672 5.71875 6.88672 5.75781 6.88672 5.79688V8.1016C6.88672 9.3255 7.26433 10.3346 8.01953 11.1289C8.77473 11.9102 9.75782 12.3008 10.9688 12.3008H23.0391C24.25 12.3008 25.2331 11.9102 25.9883 11.1289C26.7435 10.3346 27.1211 9.3255 27.1211 8.1016V5.79688C27.1211 5.75781 27.1211 5.71875 27.1211 5.67969C27.1211 5.6276 27.1211 5.58203 27.1211 5.54297H27.5703C29.4974 5.54297 30.9557 6.05729 31.9453 7.0859C32.9349 8.1016 33.4297 9.6315 33.4297 11.6758V41.3047C33.4297 43.349 32.9219 44.8789 31.9062 45.8945C30.9036 46.9232 29.3932 47.4375 27.375 47.4375H6.63282ZM10.9688 10.0352C10.3958 10.0352 9.94662 9.8659 9.62112 9.5273C9.30862 9.1888 9.15232 8.7135 9.15232 8.1016V6.05078C9.15232 5.4388 9.30862 4.96354 9.62112 4.625C9.94662 4.28646 10.3958 4.11719 10.9688 4.11719H12.7656C12.8307 3.01042 13.2669 2.06641 14.0742 1.28516C14.8945 0.503911 15.8711 0.113281 17.0039 0.113281C18.1367 0.113281 19.1068 0.503911 19.9141 1.28516C20.7344 2.06641 21.1771 3.01042 21.2422 4.11719H23.0391C23.612 4.11719 24.0547 4.28646 24.3672 4.625C24.6927 4.96354 24.8555 5.4388 24.8555 6.05078V8.1016C24.8555 8.7135 24.6927 9.1888 24.3672 9.5273C24.0547 9.8659 23.612 10.0352 23.0391 10.0352H10.9688ZM17.0039 5.97266C17.4727 5.97266 17.8698 5.80339 18.1953 5.46484C18.5339 5.1263 18.7031 4.72917 18.7031 4.27344C18.7031 3.79167 18.5339 3.38802 18.1953 3.0625C17.8698 2.72396 17.4727 2.55469 17.0039 2.55469C16.5352 2.55469 16.1315 2.72396 15.793 3.0625C15.4674 3.38802 15.3047 3.79167 15.3047 4.27344C15.3047 4.72917 15.4674 5.1263 15.793 5.46484C16.1315 5.80339 16.5352 5.97266 17.0039 5.97266Z" fill="white" fill-opacity="0.2"/>
</svg>
