<svg xmlns="http://www.w3.org/2000/svg" viewBox="0.625 0.289062 14.74 16.14">
  <path d="M0.625 12.6562C0.625 11.875 1.41406 11.1719 2.09375 10.4766C2.60938 9.9375 2.75 8.82812 2.8125 7.92969C2.86719 4.85156 3.66406 2.86719 5.74219 2.11719C6 1.09375 6.84375 0.289062 7.99219 0.289062C9.14844 0.289062 9.98438 1.09375 10.25 2.11719C12.3281 2.86719 13.125 4.85156 13.1797 7.92969C13.2422 8.82812 13.3828 9.9375 13.8984 10.4766C14.5703 11.1719 15.3672 11.875 15.3672 12.6562C15.3672 13.2266 14.9219 13.6016 14.1875 13.6016H10.8906C10.8281 15.1172 9.64844 16.4297 7.99219 16.4297C6.34375 16.4297 5.16406 15.1094 5.10156 13.6016H1.80469C1.0625 13.6016 0.625 13.2266 0.625 12.6562ZM2.14062 12.4219H13.8438V12.3281C13.7031 12.1016 13.2422 11.6406 12.8281 11.1875C12.2734 10.5625 12.0078 9.55469 11.9375 8.03125C11.875 4.61719 10.8594 3.53125 9.51562 3.16406C9.32031 3.11719 9.21875 3.02344 9.21094 2.82031C9.17969 2.00781 8.71875 1.4375 7.99219 1.4375C7.27344 1.4375 6.80469 2.00781 6.78125 2.82031C6.77344 3.02344 6.66406 3.11719 6.46875 3.16406C5.13281 3.53125 4.11719 4.61719 4.05469 8.03125C3.98438 9.55469 3.71875 10.5625 3.15625 11.1875C2.75 11.6406 2.28125 12.1016 2.14062 12.3281V12.4219ZM6.32031 13.6016C6.375 14.6641 7.05469 15.3281 7.99219 15.3281C8.9375 15.3281 9.60938 14.6641 9.67188 13.6016H6.32031Z" fill="#fff"/>
</svg>