<svg xmlns="http://www.w3.org/2000/svg" viewBox="0.804688 0.179688 14.38 14.38">
  <path d="M2.29688 6.72656C1.30469 6.72656 0.804688 6.22656 0.804688 5.19531V1.70312C0.804688 0.671875 1.30469 0.179688 2.29688 0.179688H5.85938C6.85156 0.179688 7.35156 0.671875 7.35156 1.70312V5.19531C7.35156 6.22656 6.85156 6.72656 5.85938 6.72656H2.29688ZM10.1406 6.72656C9.14062 6.72656 8.64062 6.22656 8.64062 5.19531V1.70312C8.64062 0.671875 9.14062 0.179688 10.1406 0.179688H13.6953C14.6875 0.179688 15.1875 0.671875 15.1875 1.70312V5.19531C15.1875 6.22656 14.6875 6.72656 13.6953 6.72656H10.1406ZM2.29688 14.5625C1.30469 14.5625 0.804688 14.0703 0.804688 13.0391V9.53906C0.804688 8.51562 1.30469 8.01562 2.29688 8.01562H5.85938C6.85156 8.01562 7.35156 8.51562 7.35156 9.53906V13.0391C7.35156 14.0703 6.85156 14.5625 5.85938 14.5625H2.29688ZM10.1406 14.5625C9.14062 14.5625 8.64062 14.0703 8.64062 13.0391V9.53906C8.64062 8.51562 9.14062 8.01562 10.1406 8.01562H13.6953C14.6875 8.01562 15.1875 8.51562 15.1875 9.53906V13.0391C15.1875 14.0703 14.6875 14.5625 13.6953 14.5625H10.1406Z" fill="#fff"/>
</svg>