<svg width="32" height="32" viewBox="0 0 32 32" fill="none" xmlns="http://www.w3.org/2000/svg">
<rect width="32" height="32" rx="16" fill="white" fill-opacity="0.05"/>
<path d="M16 9.98438C15.5752 9.98438 15.2383 9.64746 15.2383 9.22266C15.2383 8.79785 15.5752 8.46094 16 8.46094C16.4175 8.46094 16.7617 8.79785 16.7617 9.22266C16.7617 9.64746 16.4175 9.98438 16 9.98438ZM20.5923 11.8813C20.1675 11.8813 19.8306 11.5444 19.8306 11.1196C19.8306 10.6948 20.1675 10.3579 20.5923 10.3579C21.0098 10.3579 21.3467 10.6948 21.3467 11.1196C21.3467 11.5444 21.0098 11.8813 20.5923 11.8813ZM11.4077 11.8813C10.9829 11.8813 10.646 11.5444 10.646 11.1196C10.646 10.6948 10.9829 10.3579 11.4077 10.3579C11.8325 10.3579 12.1694 10.6948 12.1694 11.1196C12.1694 11.5444 11.8325 11.8813 11.4077 11.8813ZM16 19.4399C13.9565 19.4399 12.2646 17.748 12.2646 15.7119C12.2646 13.6685 13.9565 11.9766 16 11.9766C18.0361 11.9766 19.728 13.6685 19.728 15.7119C19.728 17.748 18.0361 19.4399 16 19.4399ZM16 18.3267C17.4282 18.3267 18.6147 17.1401 18.6147 15.7119C18.6147 14.2764 17.4282 13.0898 16 13.0898C14.5645 13.0898 13.3779 14.2837 13.3779 15.7119C13.3779 17.1401 14.5645 18.3267 16 18.3267ZM22.4893 16.4736C22.0645 16.4736 21.7275 16.1367 21.7275 15.7119C21.7275 15.2871 22.0645 14.9502 22.4893 14.9502C22.9067 14.9502 23.2437 15.2871 23.2437 15.7119C23.2437 16.1367 22.9067 16.4736 22.4893 16.4736ZM9.51074 16.4736C9.08594 16.4736 8.74902 16.1367 8.74902 15.7119C8.74902 15.2871 9.08594 14.9502 9.51074 14.9502C9.93555 14.9502 10.2725 15.2871 10.2725 15.7119C10.2725 16.1367 9.93555 16.4736 9.51074 16.4736ZM20.5923 21.0659C20.1675 21.0659 19.8306 20.729 19.8306 20.3042C19.8306 19.8794 20.1675 19.5425 20.5923 19.5425C21.0098 19.5425 21.3467 19.8794 21.3467 20.3042C21.3467 20.729 21.0098 21.0659 20.5923 21.0659ZM11.4077 21.0659C10.9829 21.0659 10.646 20.729 10.646 20.3042C10.646 19.8794 10.9829 19.5425 11.4077 19.5425C11.8325 19.5425 12.1694 19.8794 12.1694 20.3042C12.1694 20.729 11.8325 21.0659 11.4077 21.0659ZM16 22.9629C15.5752 22.9629 15.2383 22.626 15.2383 22.2012C15.2383 21.7764 15.5752 21.4395 16 21.4395C16.4175 21.4395 16.7617 21.7764 16.7617 22.2012C16.7617 22.626 16.4175 22.9629 16 22.9629Z" fill="white"/>
</svg>
