<svg width="16" height="16" viewBox="0 0 16 16" fill="none" xmlns="http://www.w3.org/2000/svg">
<path d="M2.24414 10.0674L7.53516 4.65332C7.66276 4.5166 7.81771 4.44824 8 4.44824C8.08659 4.44824 8.16862 4.46647 8.24609 4.50293C8.32812 4.53939 8.39876 4.58952 8.45801 4.65332L13.749 10.0674C13.8721 10.1859 13.9336 10.334 13.9336 10.5117C13.9336 10.6302 13.9062 10.7373 13.8516 10.833C13.7969 10.9242 13.7217 10.9971 13.626 11.0518C13.5348 11.1064 13.43 11.1338 13.3115 11.1338C13.1292 11.1338 12.9811 11.0745 12.8672 10.9561L7.63086 5.61035H8.3623L3.12598 10.9561C3.0166 11.0745 2.86849 11.1338 2.68164 11.1338C2.56315 11.1338 2.45605 11.1064 2.36035 11.0518C2.26921 10.9971 2.19629 10.9242 2.1416 10.833C2.08691 10.7373 2.05957 10.6302 2.05957 10.5117C2.05957 10.4251 2.07552 10.3431 2.10742 10.2656C2.13932 10.1882 2.1849 10.1221 2.24414 10.0674Z" fill="#00A455"/>
</svg>
