<svg width="49" height="48" viewBox="0 0 49 48" fill="none" xmlns="http://www.w3.org/2000/svg">
<path d="M4.85156 30.3828C4.85156 29.9141 4.99479 29.5365 5.28125 29.25C5.56771 28.9635 5.94531 28.8203 6.41406 28.8203H8.42578V25.4805H6.41406C5.94531 25.4805 5.56771 25.3372 5.28125 25.0508C4.99479 24.7643 4.85156 24.3867 4.85156 23.918C4.85156 23.4492 4.99479 23.0716 5.28125 22.7852C5.56771 22.4857 5.94531 22.3359 6.41406 22.3359H8.42578V19.0156H6.41406C5.94531 19.0156 5.56771 18.8724 5.28125 18.5859C4.99479 18.2865 4.85156 17.9023 4.85156 17.4336C4.85156 16.9648 4.99479 16.5872 5.28125 16.3008C5.56771 16.0143 5.94531 15.8711 6.41406 15.8711H8.42578V9.40625C8.42578 8.9375 8.56901 8.5599 8.85547 8.27344C9.14193 7.98698 9.51953 7.84375 9.98828 7.84375H16.4531V5.85156C16.4531 5.38281 16.5964 5.00521 16.8828 4.71875C17.1823 4.41927 17.5664 4.26953 18.0352 4.26953C18.5039 4.26953 18.8815 4.41927 19.168 4.71875C19.4544 5.00521 19.5977 5.38281 19.5977 5.85156V7.84375H22.9375V5.85156C22.9375 5.38281 23.0807 5.00521 23.3672 4.71875C23.6536 4.41927 24.0312 4.26953 24.5 4.26953C24.9688 4.26953 25.3464 4.41927 25.6328 4.71875C25.9323 5.00521 26.082 5.38281 26.082 5.85156V7.84375H29.4023V5.85156C29.4023 5.38281 29.5456 5.00521 29.832 4.71875C30.1185 4.41927 30.4961 4.26953 30.9648 4.26953C31.4336 4.26953 31.8112 4.41927 32.0977 4.71875C32.3971 5.00521 32.5469 5.38281 32.5469 5.85156V7.84375H39.0117C39.4805 7.84375 39.8581 7.98698 40.1445 8.27344C40.431 8.5599 40.5742 8.9375 40.5742 9.40625V15.8516H42.5859C43.0547 15.8516 43.4323 15.9948 43.7188 16.2812C44.0052 16.5677 44.1484 16.9453 44.1484 17.4141C44.1484 17.8828 44.0052 18.2669 43.7188 18.5664C43.4323 18.8529 43.0547 18.9961 42.5859 18.9961H40.5742V22.3164H42.5859C43.0547 22.3164 43.4323 22.4661 43.7188 22.7656C44.0052 23.0521 44.1484 23.4297 44.1484 23.8984C44.1484 24.3672 44.0052 24.7448 43.7188 25.0312C43.4323 25.3177 43.0547 25.4609 42.5859 25.4609H40.5742V28.8008H42.5859C43.0547 28.8008 43.4323 28.944 43.7188 29.2305C44.0052 29.5169 44.1484 29.8945 44.1484 30.3633C44.1484 30.832 44.0052 31.2161 43.7188 31.5156C43.4323 31.8021 43.0547 31.9453 42.5859 31.9453H40.5742V38.4492C40.5742 38.918 40.431 39.2891 40.1445 39.5625C39.8581 39.849 39.4805 39.9922 39.0117 39.9922H32.5469V42.0039C32.5469 42.4727 32.3971 42.8503 32.0977 43.1367C31.8112 43.4232 31.4336 43.5664 30.9648 43.5664C30.4961 43.5664 30.1185 43.4232 29.832 43.1367C29.5456 42.8503 29.4023 42.4727 29.4023 42.0039V39.9922H26.082V42.0039C26.082 42.4727 25.9323 42.8503 25.6328 43.1367C25.3464 43.4232 24.9688 43.5664 24.5 43.5664C24.0312 43.5664 23.6536 43.4232 23.3672 43.1367C23.0807 42.8503 22.9375 42.4727 22.9375 42.0039V39.9922H19.5977V42.0039C19.5977 42.4727 19.4544 42.8503 19.168 43.1367C18.8815 43.4232 18.5039 43.5664 18.0352 43.5664C17.5664 43.5664 17.1823 43.4232 16.8828 43.1367C16.5964 42.8503 16.4531 42.4727 16.4531 42.0039V39.9922H9.98828C9.51953 39.9922 9.14193 39.849 8.85547 39.5625C8.56901 39.2891 8.42578 38.918 8.42578 38.4492V31.9648H6.41406C5.94531 31.9648 5.56771 31.8216 5.28125 31.5352C4.99479 31.2357 4.85156 30.8516 4.85156 30.3828ZM17.0391 32.9414H32C32.5208 32.9414 32.9049 32.8177 33.1523 32.5703C33.3997 32.3099 33.5234 31.9128 33.5234 31.3789V16.457C33.5234 15.9362 33.3997 15.5521 33.1523 15.3047C32.9049 15.0443 32.5208 14.9141 32 14.9141H17.0391C16.5182 14.9141 16.1276 15.0443 15.8672 15.3047C15.6198 15.5521 15.4961 15.9362 15.4961 16.457V31.3789C15.4961 31.9128 15.6198 32.3099 15.8672 32.5703C16.1276 32.8177 16.5182 32.9414 17.0391 32.9414ZM18.1523 29.7969V18.0586C18.1523 17.7331 18.3151 17.5703 18.6406 17.5703H30.3789C30.7044 17.5703 30.8672 17.7331 30.8672 18.0586V29.7969C30.8672 30.1224 30.7044 30.2852 30.3789 30.2852H18.6406C18.3151 30.2852 18.1523 30.1224 18.1523 29.7969Z" fill="white" fill-opacity="0.5"/>
</svg>
