<svg width="42" height="42" viewBox="0 0 42 42" fill="none" xmlns="http://www.w3.org/2000/svg">
<rect x="0.756836" y="0.517639" width="40.5299" height="40.5299" rx="20.265" fill="#860EFF"/>
<g clip-path="url(#clip0_4202_40066)">
<path fill-rule="evenodd" clip-rule="evenodd" d="M25.495 29.8199V31.3918C28.3107 31.8409 30.9012 32.8514 33.0412 34.1987C34.2801 35.0969 35.4065 39.8126 35.7443 41.0476H7.02344C7.36133 39.8126 8.375 35.0968 9.72656 34.1987C11.7539 32.8514 14.457 31.8408 17.2728 31.3918V29.8199C16.1465 28.8093 15.3581 27.2375 15.0202 25.5533C13.6686 25.5533 11.9792 20.164 14.2318 20.3885C13.1055 17.4693 14.2318 13.5397 16.3718 12.1922C14.7949 9.38522 16.0339 11.4062 22.454 10.7326C24.256 10.6203 25.9455 11.7431 26.1707 13.3149C29.3244 13.4272 29.3244 17.9183 28.4233 20.3882C30.7886 20.0514 29.0991 25.6653 27.6349 25.553C27.4097 27.2372 26.6212 28.8091 25.4949 29.8195L25.495 29.8199Z" fill="white" fill-opacity="0.4"/>
</g>
<defs>
<clipPath id="clip0_4202_40066">
<rect x="1.48047" y="0.517639" width="39.8062" height="40.5299" rx="19.9031" fill="white"/>
</clipPath>
</defs>
</svg>
