<svg width="24" height="24" viewBox="0 0 24 24" fill="none" xmlns="http://www.w3.org/2000/svg">
<path d="M12 16.5C14.4853 16.5 16.5 14.4853 16.5 12C16.5 9.51472 14.4853 7.5 12 7.5C9.51472 7.5 7.5 9.51472 7.5 12C7.5 14.4853 9.51472 16.5 12 16.5Z" stroke="#666666" stroke-width="2" stroke-linecap="round" stroke-linejoin="round"/>
<path d="M17.2203 6.10302C17.4578 6.32177 17.6828 6.54677 17.8953 6.77802L20.4547 7.14365C20.8717 7.86787 21.1931 8.64308 21.4109 9.4499L19.8547 11.5218C19.8547 11.5218 19.8828 12.1593 19.8547 12.478L21.4109 14.5499C21.1941 15.3571 20.8726 16.1324 20.4547 16.8561L17.8953 17.2218C17.8953 17.2218 17.4547 17.6811 17.2203 17.8968L16.8547 20.4561C16.1305 20.8732 15.3553 21.1946 14.5484 21.4124L12.4766 19.8561C12.1584 19.8843 11.8384 19.8843 11.5203 19.8561L9.44843 21.4124C8.64127 21.1956 7.86594 20.8741 7.14218 20.4561L6.77656 17.8968C6.54531 17.678 6.32031 17.453 6.10156 17.2218L3.54219 16.8561C3.12517 16.1319 2.80375 15.3567 2.58594 14.5499L4.14219 12.478C4.14219 12.478 4.11406 11.8405 4.14219 11.5218L2.58594 9.4499C2.80274 8.64273 3.12421 7.8674 3.54219 7.14365L6.10156 6.77802C6.32031 6.54677 6.54531 6.32177 6.77656 6.10302L7.14218 3.54365C7.86641 3.12664 8.64161 2.80521 9.44843 2.5874L11.5203 4.14365C11.8384 4.11552 12.1584 4.11552 12.4766 4.14365L14.5484 2.5874C15.3556 2.8042 16.1309 3.12568 16.8547 3.54365L17.2203 6.10302Z" stroke="#666666" stroke-width="2" stroke-linecap="round" stroke-linejoin="round"/>
</svg>
