<svg width="16" height="16" viewBox="0 0 16 16" fill="none" xmlns="http://www.w3.org/2000/svg">
<path d="M14.9287 8.24121C14.9906 8.27702 15.0312 8.32585 15.0508 8.3877C15.0736 8.44629 15.0752 8.50651 15.0557 8.56836C15.0361 8.63021 14.9938 8.68066 14.9287 8.71973L12.4189 10.1992C12.3506 10.2383 12.2822 10.2562 12.2139 10.2529C12.1455 10.2464 12.0885 10.2236 12.043 10.1846C11.9974 10.1423 11.9746 10.0853 11.9746 10.0137V6.9375C11.9746 6.83333 12.0234 6.76335 12.1211 6.72754C12.222 6.68848 12.3213 6.69661 12.4189 6.75195L14.9287 8.24121ZM8.10254 13.5586H1.70117V4.27148C1.70117 3.87109 1.80534 3.5651 2.01367 3.35352C2.22526 3.13867 2.53125 3.03125 2.93164 3.03125H6.86719C7.26432 3.03125 7.56869 3.13867 7.78027 3.35352C7.99512 3.5651 8.10254 3.87109 8.10254 4.27148V13.5586ZM3.09277 8.12891H6.70605C6.88509 8.12891 7.02506 8.08333 7.12598 7.99219C7.23014 7.89779 7.28223 7.76921 7.28223 7.60645V4.38379C7.28223 4.22103 7.23014 4.09245 7.12598 3.99805C7.02506 3.90365 6.88509 3.85645 6.70605 3.85645H3.09277C2.91374 3.85645 2.77376 3.90365 2.67285 3.99805C2.57194 4.09245 2.52148 4.22103 2.52148 4.38379V7.60645C2.52148 7.76921 2.57194 7.89779 2.67285 7.99219C2.77376 8.08333 2.91374 8.12891 3.09277 8.12891ZM0.929688 13.5244C0.929688 13.417 0.967122 13.3258 1.04199 13.251C1.12012 13.1761 1.21126 13.1387 1.31543 13.1387H8.47852C8.58594 13.1387 8.67871 13.1761 8.75684 13.251C8.83496 13.3291 8.87402 13.4202 8.87402 13.5244C8.87402 13.6351 8.83496 13.7295 8.75684 13.8076C8.67871 13.8857 8.58594 13.9248 8.47852 13.9248H1.31543C1.20801 13.9248 1.11686 13.8857 1.04199 13.8076C0.967122 13.7295 0.929688 13.6351 0.929688 13.5244ZM7.72656 9.46191V8.77344H8.15137C8.48014 8.77344 8.7373 8.86621 8.92285 9.05176C9.11165 9.23405 9.20605 9.49447 9.20605 9.83301V11.4492C9.20605 11.5827 9.24349 11.6868 9.31836 11.7617C9.39323 11.8366 9.4974 11.874 9.63086 11.874C9.75781 11.874 9.85872 11.8366 9.93359 11.7617C10.0085 11.6868 10.0459 11.5827 10.0459 11.4492V7.875L9.22559 6.92285C8.99772 6.65592 8.9847 6.38249 9.18652 6.10254L9.82617 5.20898C9.88802 5.11458 9.89128 5.02181 9.83594 4.93066L9.26465 4.00293C9.2028 3.90202 9.1849 3.80924 9.21094 3.72461C9.24023 3.63672 9.29232 3.56999 9.36719 3.52441C9.44531 3.47559 9.52832 3.45931 9.61621 3.47559C9.70736 3.48861 9.78385 3.54395 9.8457 3.6416L10.5146 4.72559C10.5863 4.83952 10.64 4.95508 10.6758 5.07227C10.7148 5.18945 10.7344 5.32129 10.7344 5.46777V11.4492C10.7344 11.7975 10.6367 12.0693 10.4414 12.2646C10.2461 12.4632 9.97591 12.5625 9.63086 12.5625C9.28255 12.5625 9.00911 12.4632 8.81055 12.2646C8.61523 12.0693 8.51758 11.7975 8.51758 11.4492V9.83301C8.51758 9.71256 8.4834 9.62142 8.41504 9.55957C8.34994 9.49447 8.26204 9.46191 8.15137 9.46191H7.72656Z" fill="#EB7104"/>
</svg>
