<svg width="288" height="288" viewBox="0 0 288 288" fill="none" xmlns="http://www.w3.org/2000/svg">
<path fill-rule="evenodd" clip-rule="evenodd" d="M142.967 0.00362802C143.311 0.00121069 143.655 0 144 0C144.345 0 144.689 0.0012114 145.033 0.00363016L144.977 8.00343C144.651 8.00115 144.326 8 144 8C143.674 8 143.349 8.00114 143.023 8.00343L142.967 0.00362802ZM138.853 0.0903084C139.537 0.0662918 140.221 0.047039 140.907 0.0325818L141.075 8.0308C140.427 8.04447 139.78 8.06267 139.134 8.08537L138.853 0.0903084ZM147.094 0.0325882C147.779 0.0470467 148.464 0.0663009 149.147 0.0903189L148.866 8.08538C148.22 8.06268 147.573 8.04448 146.925 8.03081L147.094 0.0325882ZM134.748 0.292561C135.433 0.249112 136.119 0.210454 136.807 0.176619L137.2 8.16695C136.55 8.19892 135.902 8.23546 135.255 8.27651L134.748 0.292561ZM151.193 0.176634C151.881 0.21047 152.567 0.249129 153.252 0.29258L152.746 8.27653C152.098 8.23547 151.45 8.19894 150.8 8.16696L151.193 0.176634ZM130.65 0.610904C131.33 0.548331 132.012 0.490494 132.695 0.437426L133.315 8.41339C132.669 8.46353 132.025 8.51818 131.382 8.57729L130.65 0.610904ZM155.305 0.437447C155.988 0.490516 156.67 0.548354 157.351 0.610929L156.618 8.57731C155.975 8.5182 155.331 8.46355 154.686 8.41341L155.305 0.437447ZM126.558 1.04602C127.239 0.963733 127.922 0.886209 128.606 0.813478L129.452 8.76865C128.806 8.83736 128.161 8.91058 127.517 8.9883L126.558 1.04602ZM159.394 0.813507C160.078 0.886239 160.761 0.963764 161.442 1.04605L160.483 8.98833C159.84 8.91061 159.195 8.83738 158.548 8.76868L159.394 0.813507ZM122.488 1.59656C123.163 1.49538 123.84 1.39888 124.518 1.30711L125.591 9.2349C124.95 9.32157 124.311 9.4127 123.673 9.50826L122.488 1.59656ZM163.482 1.30715C164.16 1.39892 164.837 1.49541 165.512 1.5966L164.327 9.50829C163.689 9.41273 163.05 9.3216 162.409 9.23493L163.482 1.30715ZM118.424 2.26519C119.098 2.14421 119.775 2.02794 120.453 1.9164L121.751 9.81029C121.111 9.91561 120.473 10.0254 119.835 10.1396L118.424 2.26519ZM167.547 1.91644C168.225 2.02798 168.902 2.14425 169.577 2.26523L168.165 10.1397C167.528 10.0254 166.889 9.91565 166.249 9.81033L167.547 1.91644ZM114.391 3.04809C115.06 2.90813 115.731 2.77281 116.404 2.64218L117.929 10.4956C117.293 10.6189 116.66 10.7467 116.027 10.8788L114.391 3.04809ZM171.596 2.64222C172.269 2.77285 172.94 2.90817 173.61 3.04814L171.973 10.8789C171.341 10.7467 170.707 10.619 170.071 10.4956L171.596 2.64222ZM110.373 3.94845C111.039 3.78908 111.707 3.63435 112.376 3.48428L114.126 11.2906C113.494 11.4323 112.863 11.5784 112.234 11.7289L110.373 3.94845ZM175.624 3.48432C176.293 3.63439 176.961 3.78913 177.627 3.94849L175.766 11.7289C175.137 11.5785 174.507 11.4324 173.874 11.2907L175.624 3.48432ZM106.388 4.96273C107.05 4.784 107.714 4.60987 108.38 4.44039L110.353 12.1933C109.724 12.3533 109.097 12.5177 108.472 12.6864L106.388 4.96273ZM179.62 4.44043C180.286 4.60992 180.95 4.78405 181.613 4.96278L179.528 12.6864C178.903 12.5177 178.276 12.3533 177.647 12.1933L179.62 4.44043ZM102.432 6.09151C103.088 5.89424 103.745 5.70152 104.404 5.51338L106.6 13.2062C105.977 13.3838 105.357 13.5658 104.738 13.752L102.432 6.09151ZM183.596 5.51343C184.255 5.70157 184.913 5.89429 185.568 6.09155L183.262 13.752C182.643 13.5658 182.023 13.3839 181.401 13.2063L183.596 5.51343ZM98.5091 7.33429C99.1601 7.11772 99.8131 6.90566 100.468 6.69816L102.884 14.3247C102.266 14.5205 101.649 14.7207 101.035 14.9252L98.5091 7.33429ZM187.532 6.69821C188.187 6.90571 188.84 7.11776 189.491 7.33434L186.965 14.9252C186.351 14.7208 185.735 14.5206 185.116 14.3247L187.532 6.69821ZM94.6285 8.68768C95.271 8.45318 95.9157 8.22312 96.5625 7.99754L99.197 15.5513C98.5864 15.7643 97.9778 15.9814 97.3712 16.2028L94.6285 8.68768ZM191.438 7.99759C192.084 8.22317 192.729 8.45323 193.372 8.68773L190.629 16.2029C190.022 15.9815 189.414 15.7643 188.803 15.5514L191.438 7.99759ZM90.7813 10.1548C91.4182 9.9014 92.0573 9.65237 92.6986 9.40779L95.5494 16.8826C94.9439 17.1135 94.3406 17.3486 93.7393 17.5879L90.7813 10.1548ZM195.301 9.40784C195.943 9.65242 196.582 9.90144 197.219 10.1549L194.261 17.5879C193.66 17.3487 193.056 17.1136 192.451 16.8827L195.301 9.40784ZM86.9833 11.7299C87.6124 11.4583 88.2438 11.1912 88.8775 10.9284L91.9419 18.3182C91.3437 18.5663 90.7475 18.8185 90.1536 19.0749L86.9833 11.7299ZM199.123 10.9284C199.756 11.1912 200.388 11.4584 201.017 11.7299L197.846 19.0749C197.253 18.8185 196.656 18.5663 196.058 18.3182L199.123 10.9284ZM83.2295 13.4145C83.8504 13.1251 84.4736 12.8399 85.0993 12.5592L88.3748 19.8578C87.7841 20.1229 87.1956 20.3921 86.6094 20.6654L83.2295 13.4145ZM202.901 12.5592C203.526 12.84 204.15 13.1251 204.771 13.4145L201.391 20.6654C200.804 20.3922 200.216 20.123 199.625 19.8579L202.901 12.5592ZM79.5265 15.2057C80.1397 14.8982 80.7553 14.5949 81.3735 14.2959L84.857 21.4976C84.2734 21.7799 83.692 22.0663 83.113 22.3567L79.5265 15.2057ZM206.627 14.2959C207.245 14.5949 207.86 14.8982 208.474 15.2057L204.887 22.3567C204.308 22.0663 203.727 21.78 203.143 21.4976L206.627 14.2959ZM75.8779 17.1015C76.4809 16.7772 77.0864 16.457 77.6945 16.141L81.3832 23.2399C80.809 23.5382 80.2371 23.8406 79.6677 24.1469L75.8779 17.1015ZM210.306 16.141C210.914 16.457 211.519 16.7772 212.122 17.1016L208.332 24.1469C207.763 23.8406 207.191 23.5383 206.617 23.2399L210.306 16.141ZM72.2825 19.1024C72.8766 18.7605 73.4735 18.4228 74.073 18.0891L77.9633 25.0795C77.3972 25.3946 76.8335 25.7136 76.2724 26.0364L72.2825 19.1024ZM213.927 18.0891C214.527 18.4228 215.123 18.7606 215.718 19.1025L211.728 26.0365C211.167 25.7136 210.603 25.3946 210.037 25.0795L213.927 18.0891ZM68.7485 21.2037C69.3322 20.8453 69.9187 20.4908 70.508 20.1405L74.5966 27.0167C74.0401 27.3476 73.4862 27.6824 72.9348 28.0209L68.7485 21.2037ZM217.492 20.1405C218.081 20.4908 218.668 20.8453 219.252 21.2038L215.065 28.021C214.514 27.6824 213.96 27.3476 213.403 27.0168L217.492 20.1405ZM65.274 23.4063C65.8474 23.0312 66.4237 22.6601 67.0028 22.293L71.2861 29.0497C70.7392 29.3964 70.1948 29.7469 69.6532 30.1012L65.274 23.4063ZM220.997 22.293C221.576 22.6601 222.153 23.0312 222.726 23.4063L218.347 30.1012C217.805 29.747 217.261 29.3964 216.714 29.0497L220.997 22.293ZM61.8648 25.7063C62.4277 25.3148 62.9935 24.9272 63.5622 24.5435L68.0364 31.1754C67.4992 31.5377 66.9648 31.9039 66.4331 32.2737L61.8648 25.7063ZM224.438 24.5435C225.007 24.9272 225.572 25.3148 226.135 25.7063L221.567 32.2737C221.035 31.9039 220.501 31.5378 219.964 31.1754L224.438 24.5435ZM58.5228 28.1023C59.0739 27.6953 59.6279 27.2921 60.1849 26.8927L64.8463 33.3944C64.3201 33.7716 63.7968 34.1525 63.2763 34.537L58.5228 28.1023ZM227.815 26.8927C228.372 27.292 228.926 27.6953 229.477 28.1023L224.724 34.537C224.203 34.1525 223.68 33.7716 223.154 33.3944L227.815 26.8927ZM231.122 29.3359C231.668 29.7511 232.211 30.1702 232.75 30.593L227.816 36.8898C227.306 36.4904 226.793 36.0946 226.278 35.7023L231.122 29.3359ZM55.2497 30.593C55.7893 30.1702 56.3319 29.7511 56.8776 29.3359L61.722 35.7023C61.2066 36.0946 60.694 36.4904 60.1843 36.8898L55.2497 30.593ZM234.359 31.8726C234.893 32.303 235.423 32.7371 235.95 33.1749L230.839 39.329C230.341 38.9154 229.84 38.5053 229.336 38.0987L234.359 31.8726ZM52.0498 33.1749C52.5768 32.7371 53.1071 32.303 53.6405 31.8726L58.664 38.0987C58.1601 38.5053 57.6592 38.9154 57.1612 39.329L52.0498 33.1749ZM237.523 34.5001C238.044 34.9456 238.562 35.3946 239.076 35.8473L233.792 41.8537C233.306 41.4261 232.817 41.0018 232.325 40.581L237.523 34.5001ZM48.9236 35.8473C49.4382 35.3947 49.956 34.9456 50.477 34.5002L55.6754 40.581C55.1832 41.0018 54.694 41.4261 54.2079 41.8538L48.9236 35.8473ZM240.61 37.2162C241.118 37.6762 241.623 38.1399 242.125 38.607L236.672 44.461C236.198 44.0196 235.721 43.5816 235.241 43.147L240.61 37.2162ZM45.8752 38.607C46.3767 38.1399 46.8816 37.6763 47.3898 37.2162L52.7587 43.147C52.2786 43.5816 51.8016 44.0196 51.3278 44.461L45.8752 38.607ZM243.619 40.0191C244.114 40.4934 244.606 40.9711 245.094 41.4523L239.477 47.1491C239.016 46.6945 238.552 46.2432 238.084 45.7951L243.619 40.0191ZM42.9061 41.4523C43.3942 40.9711 43.8857 40.4934 44.3805 40.0192L49.9157 45.7952C49.4481 46.2432 48.9838 46.6945 48.5227 47.1491L42.9061 41.4523ZM246.548 42.9061C247.029 43.3942 247.507 43.8857 247.981 44.3805L242.205 49.9157C241.757 49.4481 241.305 48.9838 240.851 48.5227L246.548 42.9061ZM40.0191 44.3805C40.4934 43.8857 40.9711 43.3942 41.4523 42.9061L47.1491 48.5227C46.6945 48.9838 46.2432 49.4482 45.7951 49.9157L40.0191 44.3805ZM249.393 45.8752C249.86 46.3767 250.324 46.8816 250.784 47.3898L244.853 52.7587C244.418 52.2786 243.98 51.8016 243.539 51.3278L249.393 45.8752ZM37.2162 47.3898C37.6762 46.8816 38.1399 46.3767 38.607 45.8752L44.461 51.3278C44.0196 51.8016 43.5816 52.2786 43.147 52.7588L37.2162 47.3898ZM252.153 48.9236C252.605 49.4382 253.054 49.956 253.5 50.477L247.419 55.6754C246.998 55.1832 246.574 54.694 246.146 54.2079L252.153 48.9236ZM34.5001 50.4771C34.9456 49.956 35.3946 49.4382 35.8473 48.9237L41.8537 54.2079C41.4261 54.694 41.0018 55.1832 40.581 55.6755L34.5001 50.4771ZM254.825 52.0498C255.263 52.5768 255.697 53.1071 256.127 53.6405L249.901 58.664C249.495 58.1601 249.085 57.6592 248.671 57.1612L254.825 52.0498ZM31.8726 53.6405C32.303 53.1071 32.7371 52.5769 33.1749 52.0498L39.329 57.1613C38.9154 57.6592 38.5053 58.1601 38.0987 58.664L31.8726 53.6405ZM257.407 55.2497C257.83 55.7893 258.249 56.3319 258.664 56.8776L252.298 61.722C251.905 61.2066 251.51 60.694 251.11 60.1843L257.407 55.2497ZM29.3359 56.8776C29.7511 56.3319 30.1702 55.7893 30.593 55.2498L36.8898 60.1843C36.4904 60.694 36.0946 61.2066 35.7023 61.7221L29.3359 56.8776ZM259.898 58.5228C260.305 59.0739 260.708 59.6279 261.107 60.1849L254.606 64.8463C254.228 64.3201 253.848 63.7968 253.463 63.2763L259.898 58.5228ZM26.8927 60.1849C27.292 59.6279 27.6953 59.0739 28.1023 58.5229L34.537 63.2763C34.1525 63.7968 33.7716 64.3201 33.3944 64.8463L26.8927 60.1849ZM262.294 61.8648C262.685 62.4277 263.073 62.9935 263.457 63.5622L256.825 68.0364C256.462 67.4992 256.096 66.9648 255.726 66.4331L262.294 61.8648ZM24.5435 63.5622C24.9272 62.9935 25.3148 62.4277 25.7063 61.8648L32.2737 66.4331C31.9039 66.9648 31.5378 67.4992 31.1754 68.0364L24.5435 63.5622ZM22.293 67.0028C22.6601 66.4237 23.0312 65.8474 23.4063 65.274L30.1012 69.6532C29.747 70.1948 29.3964 70.7391 29.0497 71.2861L22.293 67.0028ZM264.594 65.274C264.969 65.8474 265.34 66.4237 265.707 67.0028L258.95 71.2861C258.604 70.7392 258.253 70.1948 257.899 69.6532L264.594 65.274ZM20.1405 70.508C20.4908 69.9187 20.8453 69.3322 21.2038 68.7484L28.021 72.9348C27.6824 73.4861 27.3476 74.0401 27.0168 74.5966L20.1405 70.508ZM266.796 68.7485C267.155 69.3322 267.509 69.9187 267.86 70.508L260.983 74.5966C260.652 74.0401 260.318 73.4862 259.979 72.9348L266.796 68.7485ZM18.0891 74.073C18.4228 73.4735 18.7606 72.8766 19.1025 72.2824L26.0365 76.2724C25.7136 76.8335 25.3946 77.3971 25.0795 77.9633L18.0891 74.073ZM268.898 72.2825C269.239 72.8766 269.577 73.4735 269.911 74.073L262.921 77.9633C262.605 77.3972 262.286 76.8335 261.964 76.2724L268.898 72.2825ZM16.141 77.6945C16.457 77.0864 16.7772 76.4808 17.1016 75.8778L24.1469 79.6677C23.8406 80.2371 23.5383 80.8089 23.2399 81.3831L16.141 77.6945ZM270.898 75.8779C271.223 76.4809 271.543 77.0864 271.859 77.6945L264.76 81.3832C264.462 80.809 264.159 80.2371 263.853 79.6677L270.898 75.8779ZM14.2959 81.3734C14.5949 80.7553 14.8982 80.1396 15.2057 79.5264L22.3567 83.113C22.0663 83.692 21.78 84.2733 21.4976 84.8569L14.2959 81.3734ZM272.794 79.5265C273.102 80.1397 273.405 80.7553 273.704 81.3735L266.502 84.857C266.22 84.2734 265.934 83.692 265.643 83.113L272.794 79.5265ZM12.5592 85.0992C12.84 84.4736 13.1251 83.8503 13.4145 83.2294L20.6654 86.6094C20.3922 87.1956 20.123 87.784 19.8579 88.3748L12.5592 85.0992ZM274.586 83.2295C274.875 83.8504 275.16 84.4736 275.441 85.0993L268.142 88.3748C267.877 87.7841 267.608 87.1956 267.335 86.6094L274.586 83.2295ZM10.9284 88.8774C11.1912 88.2437 11.4584 87.6123 11.7299 86.9832L19.0749 90.1535C18.8185 90.7475 18.5663 91.3436 18.3182 91.9418L10.9284 88.8774ZM276.27 86.9833C276.542 87.6124 276.809 88.2438 277.072 88.8775L269.682 91.9419C269.434 91.3437 269.181 90.7475 268.925 90.1536L276.27 86.9833ZM9.40784 92.6985C9.65242 92.0572 9.90144 91.4181 10.1549 90.7812L17.5879 93.7392C17.3487 94.3405 17.1136 94.9438 16.8827 95.5493L9.40784 92.6985ZM277.845 90.7813C278.099 91.4182 278.348 92.0573 278.592 92.6986L271.117 95.5494C270.886 94.9439 270.651 94.3406 270.412 93.7393L277.845 90.7813ZM7.99759 96.5623C8.22317 95.9156 8.45323 95.2709 8.68773 94.6283L16.2029 97.3711C15.9815 97.9777 15.7643 98.5863 15.5514 99.1969L7.99759 96.5623ZM279.312 94.6285C279.547 95.271 279.777 95.9157 280.002 96.5625L272.449 99.197C272.236 98.5864 272.019 97.9778 271.797 97.3712L279.312 94.6285ZM6.69821 100.468C6.90571 99.8129 7.11776 99.1599 7.33434 98.509L14.9252 101.035C14.7208 101.649 14.5206 102.265 14.3247 102.884L6.69821 100.468ZM280.666 98.5091C280.882 99.1601 281.094 99.8131 281.302 100.468L273.675 102.884C273.479 102.266 273.279 101.649 273.075 101.035L280.666 98.5091ZM5.51343 104.404C5.70157 103.745 5.89429 103.087 6.09155 102.432L13.752 104.738C13.5658 105.357 13.3839 105.977 13.2063 106.599L5.51343 104.404ZM281.908 102.432C282.106 103.088 282.298 103.745 282.487 104.404L274.794 106.6C274.616 105.977 274.434 105.357 274.248 104.738L281.908 102.432ZM4.44043 108.38C4.60992 107.714 4.78405 107.05 4.96278 106.387L12.6864 108.472C12.5177 109.097 12.3533 109.724 12.1933 110.353L4.44043 108.38ZM283.037 106.388C283.216 107.05 283.39 107.714 283.56 108.38L275.807 110.353C275.647 109.724 275.482 109.097 275.314 108.472L283.037 106.388ZM3.48432 112.376C3.63439 111.707 3.78913 111.039 3.94849 110.373L11.7289 112.234C11.5785 112.863 11.4324 113.493 11.2907 114.126L3.48432 112.376ZM284.052 110.373C284.211 111.039 284.366 111.707 284.516 112.376L276.709 114.126C276.568 113.494 276.422 112.863 276.271 112.234L284.052 110.373ZM2.64222 116.404C2.77285 115.731 2.90817 115.06 3.04814 114.39L10.8789 116.027C10.7467 116.659 10.619 117.293 10.4956 117.929L2.64222 116.404ZM284.952 114.391C285.092 115.06 285.227 115.731 285.358 116.404L277.504 117.929C277.381 117.293 277.253 116.66 277.121 116.027L284.952 114.391ZM1.91644 120.453C2.02798 119.775 2.14425 119.098 2.26523 118.423L10.1397 119.835C10.0254 120.472 9.91565 121.111 9.81033 121.751L1.91644 120.453ZM285.735 118.424C285.856 119.098 285.972 119.775 286.084 120.453L278.19 121.751C278.084 121.111 277.975 120.473 277.86 119.835L285.735 118.424ZM1.30715 124.518C1.39892 123.84 1.49541 123.163 1.5966 122.488L9.50829 123.673C9.41273 124.311 9.3216 124.95 9.23493 125.591L1.30715 124.518ZM286.403 122.488C286.505 123.163 286.601 123.84 286.693 124.518L278.765 125.591C278.678 124.95 278.587 124.311 278.492 123.673L286.403 122.488ZM0.813507 128.606C0.886239 127.922 0.963764 127.239 1.04605 126.558L8.98833 127.517C8.91061 128.16 8.83738 128.805 8.76868 129.452L0.813507 128.606ZM286.954 126.558C287.036 127.239 287.114 127.922 287.187 128.606L279.231 129.452C279.163 128.806 279.089 128.161 279.012 127.517L286.954 126.558ZM0.437447 132.695C0.490516 132.012 0.548354 131.33 0.610929 130.649L8.57731 131.382C8.5182 132.025 8.46355 132.669 8.41341 133.314L0.437447 132.695ZM287.389 130.65C287.452 131.33 287.509 132.012 287.563 132.695L279.587 133.315C279.536 132.669 279.482 132.025 279.423 131.382L287.389 130.65ZM0.176634 136.807C0.21047 136.119 0.249129 135.433 0.29258 134.748L8.27653 135.254C8.23547 135.902 8.19894 136.55 8.16696 137.2L0.176634 136.807ZM287.707 134.748C287.751 135.433 287.79 136.119 287.823 136.807L279.833 137.2C279.801 136.55 279.765 135.902 279.723 135.255L287.707 134.748ZM0.0325882 140.906C0.0470467 140.221 0.0663009 139.536 0.0903189 138.853L8.08538 139.134C8.06268 139.78 8.04448 140.427 8.03081 141.075L0.0325882 140.906ZM287.91 138.853C287.934 139.537 287.953 140.221 287.967 140.907L279.969 141.075C279.956 140.427 279.937 139.78 279.915 139.134L287.91 138.853ZM0 144C0 143.655 0.0012114 143.311 0.00363016 142.967L8.00343 143.023C8.00115 143.349 8 143.674 8 144C8 144.326 8.00114 144.651 8.00343 144.977L0.00362802 145.033C0.00121069 144.689 0 144.345 0 144ZM287.999 143.481C288 143.654 288 143.827 288 144C288 144.345 287.999 144.689 287.996 145.033L279.997 144.977C279.999 144.651 280 144.326 280 144C280 143.674 279.999 143.349 279.997 143.023L287.996 142.967C287.998 143.138 287.998 143.31 287.999 143.481ZM0.0903084 149.147C0.0662918 148.463 0.047039 147.779 0.0325818 147.093L8.0308 146.925C8.04447 147.573 8.06267 148.22 8.08537 148.866L0.0903084 149.147ZM287.967 147.094C287.953 147.779 287.934 148.464 287.91 149.147L279.915 148.866C279.937 148.22 279.956 147.573 279.969 146.925L287.967 147.094ZM0.292561 153.252C0.249112 152.567 0.210454 151.881 0.176619 151.193L8.16695 150.8C8.19892 151.45 8.23546 152.098 8.27651 152.745L0.292561 153.252ZM287.823 151.193C287.79 151.881 287.751 152.567 287.707 153.252L279.723 152.746C279.765 152.098 279.801 151.45 279.833 150.8L287.823 151.193ZM0.610904 157.35C0.548331 156.67 0.490494 155.988 0.437426 155.305L8.41339 154.685C8.46353 155.331 8.51818 155.975 8.57729 156.618L0.610904 157.35ZM287.563 155.305C287.509 155.988 287.452 156.67 287.389 157.351L279.423 156.618C279.482 155.975 279.536 155.331 279.587 154.686L287.563 155.305ZM1.04602 161.442C0.963733 160.761 0.886209 160.078 0.813478 159.394L8.76865 158.548C8.83736 159.194 8.91058 159.839 8.9883 160.483L1.04602 161.442ZM287.186 159.394C287.114 160.078 287.036 160.761 286.954 161.442L279.012 160.483C279.089 159.84 279.163 159.195 279.231 158.548L287.186 159.394ZM1.59656 165.512C1.49538 164.837 1.39888 164.16 1.30711 163.482L9.2349 162.409C9.32157 163.05 9.4127 163.689 9.50826 164.327L1.59656 165.512ZM286.693 163.482C286.601 164.16 286.505 164.837 286.403 165.512L278.492 164.327C278.587 163.689 278.678 163.05 278.765 162.409L286.693 163.482ZM2.26519 169.576C2.14421 168.902 2.02794 168.225 1.9164 167.547L9.81029 166.249C9.91561 166.889 10.0254 167.527 10.1396 168.165L2.26519 169.576ZM286.084 167.547C285.972 168.225 285.856 168.902 285.735 169.577L277.86 168.165C277.975 167.528 278.084 166.889 278.19 166.249L286.084 167.547ZM3.04809 173.609C2.90813 172.94 2.77281 172.269 2.64218 171.596L10.4956 170.071C10.6189 170.707 10.7467 171.34 10.8788 171.973L3.04809 173.609ZM285.358 171.596C285.227 172.269 285.092 172.94 284.952 173.61L277.121 171.973C277.253 171.341 277.381 170.707 277.504 170.071L285.358 171.596ZM3.94845 177.627C3.78908 176.961 3.63435 176.293 3.48428 175.624L11.2906 173.874C11.4323 174.506 11.5784 175.137 11.7289 175.766L3.94845 177.627ZM284.516 175.624C284.366 176.293 284.211 176.961 284.052 177.627L276.271 175.766C276.422 175.137 276.568 174.507 276.709 173.874L284.516 175.624ZM4.96273 181.612C4.784 180.95 4.60987 180.286 4.44039 179.62L12.1933 177.647C12.3533 178.276 12.5177 178.903 12.6864 179.528L4.96273 181.612ZM283.56 179.62C283.39 180.286 283.216 180.95 283.037 181.613L275.314 179.528C275.482 178.903 275.647 178.276 275.807 177.647L283.56 179.62ZM6.09151 185.568C5.89424 184.912 5.70152 184.255 5.51338 183.596L13.2062 181.4C13.3838 182.023 13.5658 182.643 13.752 183.262L6.09151 185.568ZM282.487 183.596C282.298 184.255 282.106 184.913 281.908 185.568L274.248 183.262C274.434 182.643 274.616 182.023 274.794 181.401L282.487 183.596ZM7.33429 189.491C7.11772 188.84 6.90566 188.187 6.69816 187.532L14.3247 185.116C14.5205 185.734 14.7207 186.351 14.9252 186.965L7.33429 189.491ZM281.302 187.532C281.094 188.187 280.882 188.84 280.666 189.491L273.075 186.965C273.279 186.351 273.479 185.735 273.675 185.116L281.302 187.532ZM8.68768 193.372C8.45318 192.729 8.22312 192.084 7.99754 191.438L15.5513 188.803C15.7643 189.414 15.9814 190.022 16.2028 190.629L8.68768 193.372ZM280.002 191.438C279.777 192.084 279.547 192.729 279.312 193.372L271.797 190.629C272.019 190.022 272.236 189.414 272.449 188.803L280.002 191.438ZM10.1548 197.219C9.9014 196.582 9.65237 195.943 9.40779 195.301L16.8826 192.451C17.1135 193.056 17.3486 193.659 17.5879 194.261L10.1548 197.219ZM278.592 195.301C278.348 195.943 278.099 196.582 277.845 197.219L270.412 194.261C270.651 193.66 270.886 193.056 271.117 192.451L278.592 195.301ZM11.7299 201.017C11.4583 200.388 11.1912 199.756 10.9284 199.123L18.3182 196.058C18.5663 196.656 18.8185 197.252 19.0749 197.846L11.7299 201.017ZM277.072 199.123C276.809 199.756 276.542 200.388 276.27 201.017L268.925 197.846C269.181 197.253 269.434 196.656 269.682 196.058L277.072 199.123ZM13.4145 204.771C13.1251 204.15 12.8399 203.526 12.5592 202.901L19.8578 199.625C20.1229 200.216 20.3921 200.804 20.6654 201.391L13.4145 204.771ZM275.441 202.901C275.16 203.526 274.875 204.15 274.585 204.771L267.335 201.391C267.608 200.804 267.877 200.216 268.142 199.625L275.441 202.901ZM15.2057 208.473C14.8982 207.86 14.5949 207.245 14.2959 206.627L21.4976 203.143C21.7799 203.727 22.0663 204.308 22.3567 204.887L15.2057 208.473ZM273.704 206.627C273.405 207.245 273.102 207.86 272.794 208.474L265.643 204.887C265.934 204.308 266.22 203.727 266.502 203.143L273.704 206.627ZM17.1015 212.122C16.7772 211.519 16.457 210.914 16.141 210.305L23.2399 206.617C23.5382 207.191 23.8406 207.763 24.1469 208.332L17.1015 212.122ZM271.859 210.306C271.543 210.914 271.223 211.519 270.898 212.122L263.853 208.332C264.159 207.763 264.462 207.191 264.76 206.617L271.859 210.306ZM19.1024 215.718C18.7605 215.123 18.4228 214.527 18.0891 213.927L25.0795 210.037C25.3946 210.603 25.7136 211.166 26.0364 211.728L19.1024 215.718ZM269.911 213.927C269.577 214.527 269.239 215.123 268.898 215.718L261.964 211.728C262.286 211.167 262.605 210.603 262.92 210.037L269.911 213.927ZM21.2037 219.252C20.8453 218.668 20.4908 218.081 20.1405 217.492L27.0167 213.403C27.3476 213.96 27.6824 214.514 28.0209 215.065L21.2037 219.252ZM267.86 217.492C267.509 218.081 267.155 218.668 266.796 219.252L259.979 215.065C260.318 214.514 260.652 213.96 260.983 213.403L267.86 217.492ZM23.4063 222.726C23.0312 222.153 22.6601 221.576 22.293 220.997L29.0497 216.714C29.3964 217.261 29.7469 217.805 30.1012 218.347L23.4063 222.726ZM265.707 220.997C265.34 221.576 264.969 222.153 264.594 222.726L257.899 218.347C258.253 217.805 258.604 217.261 258.95 216.714L265.707 220.997ZM25.7063 226.135C25.3148 225.572 24.9272 225.007 24.5435 224.438L31.1754 219.964C31.5377 220.501 31.9039 221.035 32.2737 221.567L25.7063 226.135ZM263.457 224.438C263.073 225.007 262.685 225.572 262.294 226.135L255.726 221.567C256.096 221.035 256.462 220.501 256.825 219.964L263.457 224.438ZM28.1023 229.477C27.6953 228.926 27.2921 228.372 26.8927 227.815L33.3944 223.154C33.7716 223.68 34.1525 224.203 34.537 224.724L28.1023 229.477ZM261.107 227.815C260.708 228.372 260.305 228.926 259.898 229.477L253.463 224.724C253.848 224.203 254.228 223.68 254.606 223.154L261.107 227.815ZM258.664 231.122C258.249 231.668 257.83 232.211 257.407 232.75L251.11 227.816C251.51 227.306 251.905 226.793 252.298 226.278L258.664 231.122ZM30.593 232.75C30.1702 232.211 29.7511 231.668 29.3359 231.122L35.7023 226.278C36.0946 226.793 36.4904 227.306 36.8898 227.816L30.593 232.75ZM256.127 234.359C255.697 234.893 255.263 235.423 254.825 235.95L248.671 230.839C249.085 230.341 249.495 229.84 249.901 229.336L256.127 234.359ZM33.1749 235.95C32.7371 235.423 32.303 234.893 31.8726 234.36L38.0987 229.336C38.5053 229.84 38.9154 230.341 39.329 230.839L33.1749 235.95ZM35.8473 239.076C35.3947 238.562 34.9456 238.044 34.5002 237.523L40.581 232.325C41.0018 232.817 41.4261 233.306 41.8538 233.792L35.8473 239.076ZM253.5 237.523C253.054 238.044 252.605 238.562 252.153 239.076L246.146 233.792C246.574 233.306 246.998 232.817 247.419 232.325L253.5 237.523ZM250.784 240.61C250.324 241.118 249.86 241.623 249.393 242.125L243.539 236.672C243.98 236.198 244.418 235.721 244.853 235.241L250.784 240.61ZM38.607 242.125C38.1399 241.623 37.6763 241.118 37.2162 240.61L43.147 235.241C43.5816 235.721 44.0196 236.198 44.461 236.672L38.607 242.125ZM247.981 243.619C247.507 244.114 247.029 244.606 246.548 245.094L240.851 239.477C241.305 239.016 241.757 238.552 242.205 238.084L247.981 243.619ZM41.4523 245.094C40.9711 244.606 40.4934 244.114 40.0192 243.619L45.7952 238.084C46.2432 238.552 46.6945 239.016 47.1491 239.477L41.4523 245.094ZM245.094 246.548C244.606 247.029 244.114 247.507 243.619 247.981L238.084 242.205C238.552 241.757 239.016 241.305 239.477 240.851L245.094 246.548ZM44.3805 247.981C43.8857 247.507 43.3942 247.029 42.9061 246.548L48.5227 240.851C48.9838 241.305 49.4482 241.757 49.9157 242.205L44.3805 247.981ZM242.125 249.393C241.623 249.86 241.118 250.324 240.61 250.784L235.241 244.853C235.721 244.418 236.198 243.98 236.672 243.539L242.125 249.393ZM47.3898 250.784C46.8816 250.324 46.3767 249.86 45.8752 249.393L51.3278 243.539C51.8016 243.98 52.2786 244.418 52.7588 244.853L47.3898 250.784ZM239.076 252.153C238.562 252.605 238.044 253.054 237.523 253.5L232.325 247.419C232.817 246.998 233.306 246.574 233.792 246.146L239.076 252.153ZM50.4771 253.5C49.956 253.054 49.4382 252.605 48.9237 252.153L54.2079 246.146C54.694 246.574 55.1832 246.998 55.6755 247.419L50.4771 253.5ZM235.95 254.825C235.423 255.263 234.893 255.697 234.36 256.127L229.336 249.901C229.84 249.495 230.341 249.085 230.839 248.671L235.95 254.825ZM53.6405 256.127C53.1071 255.697 52.5769 255.263 52.0498 254.825L57.1613 248.671C57.6592 249.085 58.1601 249.495 58.664 249.901L53.6405 256.127ZM232.75 257.407C232.211 257.83 231.668 258.249 231.122 258.664L226.278 252.298C226.793 251.905 227.306 251.51 227.816 251.11L232.75 257.407ZM56.8776 258.664C56.3319 258.249 55.7893 257.83 55.2498 257.407L60.1843 251.11C60.694 251.51 61.2066 251.905 61.7221 252.298L56.8776 258.664ZM60.1849 261.107C59.6279 260.708 59.0739 260.305 58.5229 259.898L63.2763 253.463C63.7968 253.848 64.3201 254.228 64.8463 254.606L60.1849 261.107ZM229.477 259.898C228.926 260.305 228.372 260.708 227.815 261.107L223.154 254.606C223.68 254.228 224.203 253.848 224.724 253.463L229.477 259.898ZM63.5622 263.457C62.9935 263.073 62.4277 262.685 61.8648 262.294L66.4331 255.726C66.9648 256.096 67.4992 256.462 68.0364 256.825L63.5622 263.457ZM226.135 262.294C225.572 262.685 225.007 263.073 224.438 263.457L219.964 256.825C220.501 256.462 221.035 256.096 221.567 255.726L226.135 262.294ZM67.0028 265.707C66.4237 265.34 65.8474 264.969 65.274 264.594L69.6532 257.899C70.1948 258.253 70.7391 258.604 71.2861 258.95L67.0028 265.707ZM222.726 264.594C222.153 264.969 221.576 265.34 220.997 265.707L216.714 258.95C217.261 258.604 217.805 258.253 218.347 257.899L222.726 264.594ZM70.508 267.86C69.9187 267.509 69.3322 267.155 68.7484 266.796L72.9348 259.979C73.4861 260.318 74.0401 260.652 74.5966 260.983L70.508 267.86ZM219.252 266.796C218.668 267.155 218.081 267.509 217.492 267.86L213.403 260.983C213.96 260.652 214.514 260.318 215.065 259.979L219.252 266.796ZM74.073 269.911C73.4735 269.577 72.8766 269.239 72.2824 268.898L76.2724 261.964C76.8335 262.286 77.3971 262.605 77.9633 262.92L74.073 269.911ZM215.718 268.898C215.123 269.239 214.527 269.577 213.927 269.911L210.037 262.921C210.603 262.605 211.166 262.286 211.728 261.964L215.718 268.898ZM77.6945 271.859C77.0864 271.543 76.4808 271.223 75.8778 270.898L79.6677 263.853C80.2371 264.159 80.8089 264.462 81.3831 264.76L77.6945 271.859ZM212.122 270.898C211.519 271.223 210.914 271.543 210.305 271.859L206.617 264.76C207.191 264.462 207.763 264.159 208.332 263.853L212.122 270.898ZM81.3734 273.704C80.7553 273.405 80.1396 273.102 79.5264 272.794L83.113 265.643C83.692 265.934 84.2733 266.22 84.8569 266.502L81.3734 273.704ZM208.473 272.794C207.86 273.102 207.245 273.405 206.627 273.704L203.143 266.502C203.727 266.22 204.308 265.934 204.887 265.643L208.473 272.794ZM85.0992 275.441C84.4736 275.16 83.8503 274.875 83.2294 274.585L86.6094 267.335C87.1956 267.608 87.784 267.877 88.3748 268.142L85.0992 275.441ZM204.771 274.586C204.15 274.875 203.526 275.16 202.901 275.441L199.625 268.142C200.216 267.877 200.804 267.608 201.391 267.335L204.771 274.586ZM88.8774 277.072C88.2437 276.809 87.6123 276.542 86.9832 276.27L90.1535 268.925C90.7475 269.181 91.3436 269.434 91.9418 269.682L88.8774 277.072ZM201.017 276.27C200.388 276.542 199.756 276.809 199.123 277.072L196.058 269.682C196.656 269.434 197.252 269.181 197.846 268.925L201.017 276.27ZM92.6985 278.592C92.0572 278.348 91.4181 278.099 90.7812 277.845L93.7392 270.412C94.3405 270.651 94.9438 270.886 95.5493 271.117L92.6985 278.592ZM197.219 277.845C196.582 278.099 195.943 278.348 195.301 278.592L192.451 271.117C193.056 270.886 193.659 270.651 194.261 270.412L197.219 277.845ZM96.5623 280.002C95.9156 279.777 95.2709 279.547 94.6283 279.312L97.3711 271.797C97.9777 272.019 98.5863 272.236 99.1969 272.449L96.5623 280.002ZM193.372 279.312C192.729 279.547 192.084 279.777 191.438 280.002L188.803 272.449C189.414 272.236 190.022 272.019 190.629 271.797L193.372 279.312ZM100.468 281.302C99.8129 281.094 99.1599 280.882 98.509 280.666L101.035 273.075C101.649 273.279 102.265 273.479 102.884 273.675L100.468 281.302ZM189.491 280.666C188.84 280.882 188.187 281.094 187.532 281.302L185.116 273.675C185.734 273.479 186.351 273.279 186.965 273.075L189.491 280.666ZM104.404 282.487C103.745 282.298 103.087 282.106 102.432 281.908L104.738 274.248C105.357 274.434 105.977 274.616 106.599 274.794L104.404 282.487ZM185.568 281.908C184.912 282.106 184.255 282.298 183.596 282.487L181.4 274.794C182.023 274.616 182.643 274.434 183.262 274.248L185.568 281.908ZM108.38 283.56C107.714 283.39 107.05 283.216 106.387 283.037L108.472 275.314C109.097 275.482 109.724 275.647 110.353 275.807L108.38 283.56ZM181.612 283.037C180.95 283.216 180.286 283.39 179.62 283.56L177.647 275.807C178.276 275.647 178.903 275.482 179.528 275.314L181.612 283.037ZM112.376 284.516C111.707 284.366 111.039 284.211 110.373 284.052L112.234 276.271C112.863 276.422 113.493 276.568 114.126 276.709L112.376 284.516ZM177.627 284.052C176.961 284.211 176.293 284.366 175.624 284.516L173.874 276.709C174.506 276.568 175.137 276.422 175.766 276.271L177.627 284.052ZM116.404 285.358C115.731 285.227 115.06 285.092 114.39 284.952L116.027 277.121C116.659 277.253 117.293 277.381 117.929 277.504L116.404 285.358ZM173.609 284.952C172.94 285.092 172.269 285.227 171.596 285.358L170.071 277.504C170.707 277.381 171.34 277.253 171.973 277.121L173.609 284.952ZM120.453 286.084C119.775 285.972 119.098 285.856 118.423 285.735L119.835 277.86C120.472 277.975 121.111 278.084 121.751 278.19L120.453 286.084ZM169.576 285.735C168.902 285.856 168.225 285.972 167.547 286.084L166.249 278.19C166.889 278.084 167.527 277.975 168.165 277.86L169.576 285.735ZM124.518 286.693C123.84 286.601 123.163 286.505 122.488 286.403L123.673 278.492C124.311 278.587 124.95 278.678 125.591 278.765L124.518 286.693ZM165.512 286.403C164.837 286.505 164.16 286.601 163.482 286.693L162.409 278.765C163.05 278.678 163.689 278.587 164.327 278.492L165.512 286.403ZM128.606 287.186C127.922 287.114 127.239 287.036 126.558 286.954L127.517 279.012C128.16 279.089 128.805 279.163 129.452 279.231L128.606 287.186ZM161.442 286.954C160.761 287.036 160.078 287.114 159.394 287.187L158.548 279.231C159.194 279.163 159.839 279.089 160.483 279.012L161.442 286.954ZM132.695 287.563C132.012 287.509 131.33 287.452 130.649 287.389L131.382 279.423C132.025 279.482 132.669 279.536 133.314 279.587L132.695 287.563ZM157.35 287.389C156.67 287.452 155.988 287.509 155.305 287.563L154.685 279.587C155.331 279.536 155.975 279.482 156.618 279.423L157.35 287.389ZM136.807 287.823C136.119 287.79 135.433 287.751 134.748 287.707L135.254 279.723C135.902 279.765 136.55 279.801 137.2 279.833L136.807 287.823ZM153.252 287.707C152.567 287.751 151.881 287.79 151.193 287.823L150.8 279.833C151.45 279.801 152.098 279.765 152.745 279.723L153.252 287.707ZM140.906 287.967C140.221 287.953 139.536 287.934 138.853 287.91L139.134 279.915C139.78 279.937 140.427 279.956 141.075 279.969L140.906 287.967ZM149.147 287.91C148.463 287.934 147.779 287.953 147.093 287.967L146.925 279.969C147.573 279.956 148.22 279.937 148.866 279.915L149.147 287.91ZM143.332 287.998C143.21 287.998 143.089 287.997 142.967 287.996L143.023 279.997C143.349 279.999 143.674 280 144 280C144.193 280 144.386 280 144.579 279.999C144.711 279.998 144.844 279.997 144.977 279.997L145.033 287.996C144.689 287.999 144.345 288 144 288C143.777 288 143.555 287.999 143.332 287.998Z" fill="white" fill-opacity="0.1"/>
</svg>
