<svg width="66" height="66" viewBox="0 0 66 66" fill="none" xmlns="http://www.w3.org/2000/svg">
<path fill-rule="evenodd" clip-rule="evenodd" d="M65.6119 33.7555L61.0611 33.652C61.0661 33.4353 61.0686 33.2178 61.0686 32.9996C61.0686 32.7814 61.0661 32.5639 61.0611 32.3472L65.6119 32.2437C65.6172 32.495 65.6203 32.747 65.6203 32.9996C65.6203 33.2522 65.6172 33.5042 65.6119 33.7555ZM65.5429 30.7385L61.002 31.0494C60.9724 30.6157 60.9328 30.1849 60.8838 29.7573L65.4056 29.2381C65.4625 29.7349 65.5088 30.2351 65.5429 30.7385ZM65.1992 27.7456L60.7062 28.4731C60.6369 28.0451 60.5579 27.6204 60.4696 27.1993L64.9239 26.2643C65.027 26.7541 65.1188 27.248 65.1992 27.7456ZM64.5804 24.7972L60.1741 25.9384C60.0655 25.5191 59.9475 25.1038 59.8203 24.6925L64.1687 23.3474C64.3167 23.826 64.4541 24.3094 64.5804 24.7972ZM63.6898 21.9181L59.4087 23.4642C59.2617 23.0572 59.1056 22.6544 58.9405 22.2563L63.145 20.5128C63.3371 20.976 63.5188 21.4445 63.6898 21.9181ZM62.5355 19.1344L58.4165 21.0713C58.2323 20.6798 58.0394 20.2932 57.8379 19.9116L61.8627 17.7858C62.0969 18.2293 62.3213 18.679 62.5355 19.1344ZM61.1281 16.4698L57.206 18.7796C56.9864 18.4067 56.7584 18.0393 56.5222 17.6776L60.3335 15.1892C60.6079 15.6094 60.8729 16.0364 61.1281 16.4698ZM59.4808 13.9466L55.7882 16.608C55.5351 16.2569 55.2741 15.9119 55.0054 15.5731L58.5716 12.7446C58.8837 13.138 59.1868 13.5388 59.4808 13.9466ZM57.6083 11.5857L54.1757 14.5751C53.8916 14.2487 53.5999 13.9289 53.301 13.6161L56.5926 10.4722C56.9395 10.8355 57.2782 11.2067 57.6083 11.5857ZM55.527 9.40657L52.3831 12.6981C52.0703 12.3993 51.7505 12.1076 51.4241 11.8235L54.4135 8.391C54.7925 8.721 55.1637 9.05965 55.527 9.40657ZM53.2546 7.42756L50.4261 10.9938C50.0873 10.7251 49.7423 10.4641 49.3912 10.211L52.0526 6.51842C52.4604 6.81239 52.8612 7.11553 53.2546 7.42756ZM50.81 5.66566L48.3216 9.47697C47.9599 9.24081 47.5925 9.01277 47.2196 8.79322L49.5294 4.87108C49.9628 5.12628 50.3898 5.39127 50.81 5.66566ZM48.2134 4.13651L46.0875 8.16129C45.706 7.9598 45.3194 7.76688 44.9278 7.58269L46.8648 3.46369C47.3202 3.67784 47.7699 3.90224 48.2134 4.13651ZM45.4864 2.85421L43.7429 7.05871C43.3448 6.89364 42.942 6.73744 42.535 6.59049L44.0811 2.30937C44.5547 2.48044 45.0232 2.66213 45.4864 2.85421ZM42.6518 1.83053L41.3067 6.17894C40.8954 6.05172 40.48 5.93368 40.0608 5.82512L41.202 1.41882C41.6898 1.54513 42.1731 1.68244 42.6518 1.83053ZM39.7349 1.07502L38.7999 5.52964C38.3787 5.44126 37.9541 5.36229 37.5261 5.29302L38.2536 0.799789C38.7512 0.880355 39.2451 0.972223 39.7349 1.07502ZM36.7611 0.593444L36.2419 5.11543C35.8142 5.06635 35.3835 5.02682 34.9498 4.99716L35.2607 0.456058C35.7641 0.490499 36.2642 0.536396 36.7611 0.593444ZM33.7555 0.387479L33.652 4.93806C33.4353 4.93313 33.2178 4.93063 32.9996 4.93063C32.7814 4.93063 32.5639 4.93313 32.3472 4.93806L32.2437 0.387479C32.495 0.381789 32.747 0.378906 32.9996 0.378906C33.2522 0.378906 33.5042 0.381789 33.7555 0.387479ZM30.7385 0.456058L31.0494 4.99716C30.6157 5.02682 30.1849 5.06635 29.7573 5.11543L29.2381 0.593444C29.7349 0.536396 30.2351 0.490499 30.7385 0.456058ZM27.7456 0.799789L28.4731 5.29302C28.0451 5.36229 27.6204 5.44126 27.1993 5.52964L26.2643 1.07502C26.7541 0.972223 27.248 0.880355 27.7456 0.799789ZM24.7972 1.41882L25.9384 5.82512C25.5191 5.93368 25.1038 6.05172 24.6925 6.17894L23.3474 1.83053C23.826 1.68244 24.3094 1.54513 24.7972 1.41882ZM21.9181 2.30937L23.4642 6.59049C23.0572 6.73744 22.6544 6.89364 22.2563 7.05871L20.5128 2.85421C20.976 2.66213 21.4445 2.48044 21.9181 2.30937ZM19.1344 3.46369L21.0713 7.58269C20.6798 7.76688 20.2932 7.9598 19.9116 8.16129L17.7858 4.13651C18.2293 3.90224 18.679 3.67784 19.1344 3.46369ZM16.4698 4.87108L18.7796 8.79322C18.4067 9.01277 18.0393 9.24081 17.6776 9.47697L15.1892 5.66566C15.6094 5.39127 16.0364 5.12628 16.4698 4.87108ZM13.9466 6.51842L16.608 10.211C16.2569 10.4641 15.9119 10.7251 15.5731 10.9938L12.7446 7.42756C13.138 7.11553 13.5388 6.81239 13.9466 6.51842ZM11.5857 8.39093L14.5751 11.8235C14.2487 12.1076 13.9289 12.3993 13.6161 12.6981L10.4722 9.40657C10.8355 9.05965 11.2067 8.721 11.5857 8.39093ZM9.40657 10.4722L12.6981 13.6161C12.3993 13.9289 12.1076 14.2487 11.8235 14.5751L8.391 11.5857C8.721 11.2067 9.05965 10.8355 9.40657 10.4722ZM7.42756 12.7446L10.9938 15.5731C10.7251 15.9119 10.4641 16.2569 10.211 16.608L6.51842 13.9466C6.81239 13.5388 7.11553 13.138 7.42756 12.7446ZM5.66566 15.1892L9.47697 17.6776C9.24081 18.0393 9.01277 18.4067 8.79322 18.7796L4.87108 16.4698C5.12628 16.0364 5.39127 15.6094 5.66566 15.1892ZM4.13651 17.7858L8.16129 19.9116C7.9598 20.2932 7.76688 20.6798 7.58269 21.0713L3.46369 19.1344C3.67784 18.679 3.90224 18.2293 4.13651 17.7858ZM2.85421 20.5128L7.05871 22.2563C6.89364 22.6544 6.73744 23.0572 6.59049 23.4642L2.30937 21.9181C2.48044 21.4445 2.66213 20.976 2.85421 20.5128ZM1.83053 23.3474L6.17894 24.6925C6.05172 25.1038 5.93368 25.5192 5.82512 25.9384L1.41882 24.7972C1.54513 24.3094 1.68244 23.826 1.83053 23.3474ZM1.07502 26.2643L5.52964 27.1993C5.44126 27.6204 5.36229 28.0451 5.29302 28.4731L0.799789 27.7456C0.880355 27.248 0.972223 26.7541 1.07502 26.2643ZM0.593444 29.2381L5.11543 29.7573C5.06635 30.185 5.02682 30.6157 4.99716 31.0494L0.456058 30.7385C0.490499 30.2351 0.536396 29.7349 0.593444 29.2381ZM0.387479 32.2437C0.381789 32.495 0.378906 32.747 0.378906 32.9996C0.378906 33.2522 0.381789 33.5042 0.387479 33.7555L4.93806 33.652C4.93313 33.4353 4.93063 33.2178 4.93063 32.9996C4.93063 32.7814 4.93313 32.5639 4.93806 32.3472L0.387479 32.2437ZM0.456058 35.2607L4.99716 34.9498C5.02682 35.3835 5.06635 35.8143 5.11543 36.2419L0.593444 36.7611C0.536396 36.2642 0.490499 35.7641 0.456058 35.2607ZM0.799789 38.2536L5.29302 37.5261C5.36229 37.9541 5.44126 38.3787 5.52964 38.7999L1.07502 39.7349C0.972223 39.2451 0.880355 38.7512 0.799789 38.2536ZM1.41882 41.202L5.82512 40.0608C5.93368 40.48 6.05172 40.8954 6.17894 41.3067L1.83053 42.6518C1.68244 42.1731 1.54513 41.6898 1.41882 41.202ZM2.30937 44.0811L6.59049 42.535C6.73744 42.942 6.89364 43.3448 7.05871 43.7429L2.85421 45.4864C2.66213 45.0232 2.48044 44.5547 2.30937 44.0811ZM3.46369 46.8648L7.58269 44.9278C7.76688 45.3194 7.9598 45.706 8.16129 46.0875L4.13651 48.2134C3.90224 47.7699 3.67784 47.3202 3.46369 46.8648ZM4.87108 49.5294L8.79322 47.2196C9.01277 47.5925 9.24081 47.9599 9.47697 48.3216L5.66566 50.81C5.39127 50.3898 5.12628 49.9628 4.87108 49.5294ZM6.51842 52.0526L10.211 49.3912C10.4641 49.7423 10.7251 50.0873 10.9938 50.4261L7.42756 53.2546C7.11553 52.8612 6.81239 52.4604 6.51842 52.0526ZM8.39093 54.4135L11.8235 51.4241C12.1076 51.7505 12.3993 52.0703 12.6981 52.3831L9.40657 55.527C9.05965 55.1637 8.721 54.7925 8.39093 54.4135ZM10.4722 56.5926L13.6161 53.301C13.9289 53.5999 14.2487 53.8916 14.5751 54.1757L11.5857 57.6082C11.2067 57.2782 10.8355 56.9395 10.4722 56.5926ZM12.7446 58.5716L15.5731 55.0054C15.9119 55.2741 16.2569 55.5351 16.608 55.7882L13.9466 59.4808C13.5388 59.1868 13.138 58.8837 12.7446 58.5716ZM15.1892 60.3335L17.6776 56.5222C18.0393 56.7584 18.4067 56.9864 18.7796 57.206L16.4698 61.1281C16.0364 60.8729 15.6094 60.6079 15.1892 60.3335ZM17.7858 61.8627L19.9116 57.8379C20.2932 58.0394 20.6798 58.2323 21.0713 58.4165L19.1344 62.5355C18.679 62.3213 18.2293 62.0969 17.7858 61.8627ZM20.5128 63.145L22.2563 58.9405C22.6544 59.1056 23.0572 59.2617 23.4642 59.4087L21.9181 63.6898C21.4445 63.5188 20.976 63.3371 20.5128 63.145ZM23.3474 64.1687L24.6925 59.8203C25.1038 59.9475 25.5192 60.0655 25.9384 60.1741L24.7972 64.5804C24.3094 64.4541 23.826 64.3167 23.3474 64.1687ZM26.2643 64.9239L27.1993 60.4696C27.6204 60.5579 28.0451 60.6369 28.4731 60.7062L27.7456 65.1992C27.248 65.1188 26.7541 65.027 26.2643 64.9239ZM29.2381 65.4056L29.7573 60.8838C30.185 60.9328 30.6157 60.9724 31.0494 61.002L30.7385 65.5429C30.2351 65.5088 29.7349 65.4625 29.2381 65.4056ZM32.2437 65.6119L32.3472 61.0611C32.5639 61.0661 32.7814 61.0686 32.9996 61.0686C33.2178 61.0686 33.4353 61.0661 33.652 61.0611L33.7555 65.6119C33.5042 65.6172 33.2522 65.6203 32.9996 65.6203C32.747 65.6203 32.495 65.6172 32.2437 65.6119ZM35.2607 65.5429L34.9498 61.002C35.3835 60.9724 35.8143 60.9328 36.2419 60.8838L36.7611 65.4056C36.2642 65.4625 35.7641 65.5088 35.2607 65.5429ZM38.2536 65.1992L37.5261 60.7062C37.9541 60.6369 38.3787 60.5579 38.7999 60.4696L39.7349 64.9239C39.2451 65.027 38.7512 65.1188 38.2536 65.1992ZM41.202 64.5804L40.0608 60.1741C40.48 60.0655 40.8954 59.9475 41.3067 59.8203L42.6518 64.1687C42.1731 64.3167 41.6898 64.4541 41.202 64.5804ZM44.0811 63.6898L42.535 59.4087C42.942 59.2617 43.3448 59.1056 43.7429 58.9405L45.4864 63.145C45.0232 63.3371 44.5547 63.5188 44.0811 63.6898ZM46.8648 62.5355C47.3202 62.3213 47.7699 62.0969 48.2134 61.8627L46.0875 57.8379C45.706 58.0394 45.3194 58.2323 44.9278 58.4165L46.8648 62.5355ZM49.5294 61.1281L47.2196 57.206C47.5925 56.9864 47.9599 56.7584 48.3216 56.5222L50.81 60.3335C50.3898 60.6079 49.9628 60.8729 49.5294 61.1281ZM52.0526 59.4808L49.3912 55.7882C49.7423 55.5351 50.0873 55.2741 50.4261 55.0054L53.2546 58.5716C52.8612 58.8837 52.4604 59.1868 52.0526 59.4808ZM54.4135 57.6083L51.4241 54.1757C51.7505 53.8916 52.0703 53.5999 52.3831 53.301L55.527 56.5926C55.1637 56.9395 54.7925 57.2782 54.4135 57.6083ZM56.5926 55.527L53.301 52.3831C53.5999 52.0703 53.8916 51.7505 54.1757 51.4241L57.6082 54.4135C57.2782 54.7925 56.9395 55.1637 56.5926 55.527ZM58.5716 53.2546L55.0054 50.4261C55.2741 50.0873 55.5351 49.7423 55.7882 49.3912L59.4808 52.0526C59.1868 52.4604 58.8837 52.8612 58.5716 53.2546ZM60.3335 50.81L56.5222 48.3216C56.7584 47.9599 56.9864 47.5925 57.206 47.2196L61.1281 49.5294C60.8729 49.9628 60.6079 50.3898 60.3335 50.81ZM61.8627 48.2134L57.8379 46.0875C58.0394 45.706 58.2323 45.3194 58.4165 44.9278L62.5355 46.8648C62.3213 47.3202 62.0969 47.7699 61.8627 48.2134ZM63.145 45.4864L58.9405 43.7429C59.1056 43.3448 59.2617 42.942 59.4087 42.535L63.6898 44.0811C63.5188 44.5547 63.3371 45.0232 63.145 45.4864ZM64.1687 42.6518L59.8203 41.3067C59.9475 40.8954 60.0655 40.48 60.1741 40.0608L64.5804 41.202C64.4541 41.6898 64.3167 42.1731 64.1687 42.6518ZM64.9239 39.7349L60.4696 38.7999C60.5579 38.3787 60.6369 37.9541 60.7062 37.5261L65.1992 38.2536C65.1188 38.7512 65.027 39.2451 64.9239 39.7349ZM65.4056 36.7611L60.8838 36.2419C60.9328 35.8142 60.9724 35.3835 61.002 34.9498L65.5429 35.2607C65.5088 35.7641 65.4625 36.2642 65.4056 36.7611Z" fill="black" fill-opacity="0.1"/>
</svg>
