<svg width="25" height="24" viewBox="0 0 25 24" fill="none" xmlns="http://www.w3.org/2000/svg">
<rect x="0.5" width="24" height="24" rx="12" fill="#1A1A1A"/>
<path d="M12.5 23C10.9974 23 9.58105 22.7124 8.25098 22.1373C6.9281 21.5621 5.7598 20.7676 4.74608 19.7539C3.73235 18.7402 2.93791 17.5719 2.36275 16.249C1.78758 14.919 1.5 13.5026 1.5 12C1.5 10.4974 1.78758 9.08464 2.36275 7.76176C2.93791 6.4317 3.72876 5.2598 4.73529 4.24608C5.74902 3.23235 6.91732 2.43791 8.2402 1.86275C9.57026 1.28758 10.9866 1 12.4892 1C13.9918 1 15.4082 1.28758 16.7382 1.86275C18.0683 2.43791 19.2402 3.23235 20.2539 4.24608C21.2676 5.2598 22.0621 6.4317 22.6373 7.76176C23.2124 9.08464 23.5 10.4974 23.5 12C23.5 13.5026 23.2124 14.919 22.6373 16.249C22.0621 17.5719 21.2676 18.7402 20.2539 19.7539C19.2402 20.7676 18.0683 21.5621 16.7382 22.1373C15.4154 22.7124 14.0026 23 12.5 23ZM8.48824 16.4C8.48824 17.2124 8.86569 17.6186 9.62059 17.6186H15.3794C16.1415 17.6186 16.5225 17.2124 16.5225 16.4V11.9784C16.5225 11.2092 16.1954 10.8029 15.5412 10.7598V9.4549C15.5412 8.4268 15.2608 7.6 14.7 6.97451C14.1392 6.34902 13.4059 6.03627 12.5 6.03627C11.5941 6.03627 10.8608 6.34902 10.3 6.97451C9.73922 7.6 9.45882 8.4268 9.45882 9.4549V10.7598C8.81176 10.8029 8.48824 11.2092 8.48824 11.9784V16.4ZM10.6235 10.749V9.32549C10.6235 8.67843 10.7961 8.15719 11.1412 7.76176C11.4863 7.35915 11.9392 7.15784 12.5 7.15784C13.068 7.15784 13.5209 7.35915 13.8588 7.76176C14.2039 8.15719 14.3765 8.67843 14.3765 9.32549V10.749H10.6235Z" fill="#EB7104" fill-opacity="0.5"/>
</svg>
