<svg width="24" height="24" viewBox="0 0 24 24" fill="none" xmlns="http://www.w3.org/2000/svg">
<rect width="24" height="24" rx="12" fill="#EB7104"/>
<path d="M12 23C10.4974 23 9.08105 22.7124 7.75098 22.1373C6.4281 21.5621 5.2598 20.7676 4.24608 19.7539C3.23235 18.7402 2.43791 17.5719 1.86275 16.249C1.28758 14.919 1 13.5026 1 12C1 10.4974 1.28758 9.08464 1.86275 7.76176C2.43791 6.4317 3.22876 5.2598 4.23529 4.24608C5.24902 3.23235 6.41732 2.43791 7.7402 1.86275C9.07026 1.28758 10.4866 1 11.9892 1C13.4918 1 14.9082 1.28758 16.2382 1.86275C17.5683 2.43791 18.7402 3.23235 19.7539 4.24608C20.7676 5.2598 21.5621 6.4317 22.1373 7.76176C22.7124 9.08464 23 10.4974 23 12C23 13.5026 22.7124 14.919 22.1373 16.249C21.5621 17.5719 20.7676 18.7402 19.7539 19.7539C18.7402 20.7676 17.5683 21.5621 16.2382 22.1373C14.9154 22.7124 13.5026 23 12 23ZM7.13627 12.7657C7.13627 12.9095 7.18301 13.0281 7.27647 13.1216C7.37712 13.2078 7.49935 13.251 7.64314 13.251H11.4176L9.40098 18.6539C9.30752 18.8912 9.31111 19.0853 9.41177 19.2363C9.51961 19.3873 9.66699 19.4663 9.85392 19.4735C10.0408 19.4735 10.2098 19.3765 10.3608 19.1824L16.4539 11.5363C16.5761 11.3925 16.6373 11.2487 16.6373 11.1049C16.6373 10.9611 16.5869 10.8425 16.4863 10.749C16.3928 10.6556 16.2742 10.6088 16.1304 10.6088H12.3559L14.3725 5.20588C14.466 4.96863 14.4588 4.7781 14.351 4.63431C14.2503 4.48333 14.1065 4.40784 13.9196 4.40784C13.7399 4.40065 13.5709 4.49412 13.4127 4.68824L7.31961 12.3343C7.19739 12.4709 7.13627 12.6147 7.13627 12.7657Z" fill="#1A1A1A"/>
</svg>
