<svg xmlns="http://www.w3.org/2000/svg" viewBox="0.3125 0.890625 37.38 34.68">
  <path d="M22.8594 35.4688C21.6094 35.4688 20.9375 34.7656 20.9375 33.5469V2.82812C20.9375 1.59375 21.6094 0.890625 22.8594 0.890625H26.7188C27.9688 0.890625 28.6406 1.59375 28.6406 2.82812V6.54688C28.9219 6.14062 29.3906 5.875 30.0625 5.79688L32.5625 5.4375C33.8125 5.26562 34.5469 5.90625 34.6875 7.125L37.6719 33.0469C37.8125 34.2812 37.2188 35.0312 36 35.1875L33.4844 35.5469C32.25 35.7031 31.5156 35.0625 31.375 33.8438L28.6406 10.2031V33.5469C28.6406 34.7656 27.9688 35.4688 26.7188 35.4688H22.8594ZM2.23438 35.4688C0.984375 35.4688 0.3125 34.7656 0.3125 33.5469V7.15625C0.3125 5.92188 0.984375 5.21875 2.23438 5.21875H5.1875C6.42188 5.21875 7.10938 5.92188 7.10938 7.15625V33.5469C7.10938 34.7656 6.42188 35.4688 5.1875 35.4688H2.23438ZM10.8594 35.4688C9.60938 35.4688 8.92188 34.7656 8.92188 33.5469V12.4844C8.92188 11.2656 9.60938 10.5625 10.8594 10.5625H17.1875C18.4375 10.5625 19.1094 11.2656 19.1094 12.4844V33.5469C19.1094 34.7656 18.4375 35.4688 17.1875 35.4688H10.8594ZM12.3438 16.1406H15.7344C16.2812 16.1406 16.6875 15.7188 16.6875 15.1719C16.6875 14.6406 16.2812 14.2188 15.7344 14.2188H12.3438C11.7812 14.2188 11.3594 14.6406 11.3594 15.1719C11.3594 15.7188 11.7812 16.1406 12.3438 16.1406ZM12.3438 31.8281H15.7344C16.2812 31.8281 16.6875 31.4062 16.6875 30.8594C16.6875 30.3281 16.2812 29.9062 15.7344 29.9062H12.3438C11.7812 29.9062 11.3594 30.3281 11.3594 30.8594C11.3594 31.4062 11.7812 31.8281 12.3438 31.8281Z" fill="#fff"/>
</svg>