<svg xmlns="http://www.w3.org/2000/svg" viewBox="0.546875 0.96875 34.91 33.5">
  <path d="M5.82812 34.4688C7.04688 33.7969 7.4375 32.8594 7.4375 31.1875V5.8125C7.4375 2.59375 9.07812 0.96875 12.3438 0.96875H30.5469C33.8281 0.96875 35.4531 2.59375 35.4531 5.8125V29.6406C35.4531 32.8594 33.8281 34.4688 30.5469 34.4688H5.82812ZM13.7031 10.2812H29.2188C29.7656 10.2812 30.1875 9.84375 30.1875 9.29688C30.1875 8.76562 29.7656 8.35938 29.2188 8.35938H13.7031C13.1406 8.35938 12.7188 8.76562 12.7188 9.29688C12.7188 9.84375 13.1406 10.2812 13.7031 10.2812ZM0.546875 16.2031C0.546875 14.3438 1.71875 13.2656 3.625 13.2656H4.39062V30.1562C4.39062 31.2969 3.5625 32.0156 2.46875 32.0312C1.375 32.0312 0.546875 31.2969 0.546875 30.1562V16.2031ZM13.7031 15.7812H29.2188C29.7656 15.7812 30.1875 15.3594 30.1875 14.8281C30.1875 14.2812 29.7656 13.8594 29.2188 13.8594H13.7031C13.1406 13.8594 12.7188 14.2812 12.7188 14.8281C12.7188 15.3594 13.1406 15.7812 13.7031 15.7812ZM23.3906 21.2969H29.2188C29.7656 21.2969 30.1719 20.8906 30.1719 20.3594C30.1719 19.7969 29.7656 19.375 29.2188 19.375H23.3906C22.8281 19.375 22.4219 19.7969 22.4219 20.3594C22.4219 20.8906 22.8281 21.2969 23.3906 21.2969ZM14.5469 27H18.4531C19.5938 27 20.2812 26.3125 20.2812 25.1719V21.2188C20.2812 20.0625 19.5938 19.375 18.4531 19.375H14.5469C13.3906 19.375 12.7031 20.0625 12.7031 21.2188V25.1719C12.7031 26.3125 13.3906 27 14.5469 27ZM23.3906 26.9219H29.2188C29.7656 26.9219 30.1719 26.5156 30.1719 25.9844C30.1719 25.4375 29.7656 25 29.2188 25H23.3906C22.8281 25 22.4219 25.4375 22.4219 25.9844C22.4219 26.5156 22.8281 26.9219 23.3906 26.9219Z" fill="#fff"/>
</svg>