<svg width="24" height="24" viewBox="0 0 24 24" fill="none" xmlns="http://www.w3.org/2000/svg">
<path d="M12 22C6.53922 22 2 17.4608 2 12C2 6.52941 6.52941 2 11.9902 2C17.4608 2 22 6.52941 22 12C22 17.4608 17.4706 22 12 22ZM8.70588 16.1176C8.93137 16.1176 9.13725 16.0392 9.29412 15.8824L12 13.1569L14.7157 15.8824C14.8627 16.0392 15.0686 16.1176 15.2941 16.1176C15.7549 16.1176 16.1176 15.7549 16.1176 15.3039C16.1176 15.0784 16.0392 14.8725 15.8725 14.7255L13.1569 12.0098L15.8824 9.28431C16.0588 9.10784 16.1275 8.93137 16.1275 8.70588C16.1275 8.2549 15.7647 7.90196 15.3137 7.90196C15.098 7.90196 14.9216 7.97059 14.7549 8.13725L12 10.8725L9.26471 8.14706C9.10784 8 8.93137 7.92157 8.70588 7.92157C8.2549 7.92157 7.90196 8.26471 7.90196 8.72549C7.90196 8.94118 7.98039 9.13725 8.13725 9.29412L10.8529 12.0098L8.13725 14.7353C7.98039 14.8824 7.90196 15.0882 7.90196 15.3039C7.90196 15.7549 8.2549 16.1176 8.70588 16.1176Z" fill="white"/>
</svg>
