<svg width="16" height="16" viewBox="0 0 16 16" fill="none" xmlns="http://www.w3.org/2000/svg">
<path d="M8 11.708C7.82682 11.708 7.67188 11.6419 7.53516 11.5098L2.24414 6.0957C2.1849 6.03646 2.13932 5.97038 2.10742 5.89746C2.07552 5.81999 2.05957 5.73796 2.05957 5.65137C2.05957 5.53288 2.08691 5.42578 2.1416 5.33008C2.19629 5.23438 2.26921 5.15918 2.36035 5.10449C2.45605 5.0498 2.56315 5.02246 2.68164 5.02246C2.85482 5.02246 3.00293 5.08171 3.12598 5.2002L8.3623 10.5527H7.63086L12.8672 5.2002C12.9948 5.08171 13.1429 5.02246 13.3115 5.02246C13.43 5.02246 13.5348 5.0498 13.626 5.10449C13.7217 5.15918 13.7969 5.23438 13.8516 5.33008C13.9062 5.42578 13.9336 5.53288 13.9336 5.65137C13.9336 5.81999 13.8721 5.96582 13.749 6.08887L8.45801 11.5098C8.39876 11.5736 8.32812 11.6237 8.24609 11.6602C8.16862 11.6921 8.08659 11.708 8 11.708Z" fill="#00A455"/>
</svg>
