<svg width="14" height="15" viewBox="0 0 14 15" fill="none" xmlns="http://www.w3.org/2000/svg">
<path d="M7 14.0371C6.04753 14.0371 5.14974 13.8548 4.30664 13.4902C3.4681 13.1257 2.72754 12.6221 2.08496 11.9795C1.44238 11.3369 0.938802 10.5964 0.574219 9.75781C0.209635 8.91471 0.0273438 8.01693 0.0273438 7.06445C0.0273438 6.11198 0.209635 5.21647 0.574219 4.37793C0.938802 3.53483 1.4401 2.79199 2.07812 2.14941C2.7207 1.50684 3.46126 1.00326 4.2998 0.638672C5.1429 0.274089 6.04069 0.0917969 6.99316 0.0917969C7.94564 0.0917969 8.84342 0.274089 9.68652 0.638672C10.5296 1.00326 11.2725 1.50684 11.915 2.14941C12.5576 2.79199 13.0612 3.53483 13.4258 4.37793C13.7904 5.21647 13.9727 6.11198 13.9727 7.06445C13.9727 8.01693 13.7904 8.91471 13.4258 9.75781C13.0612 10.5964 12.5576 11.3369 11.915 11.9795C11.2725 12.6221 10.5296 13.1257 9.68652 13.4902C8.84798 13.8548 7.95247 14.0371 7 14.0371ZM7 12.875C7.80664 12.875 8.56087 12.7246 9.2627 12.4238C9.96452 12.123 10.582 11.7083 11.1152 11.1797C11.6484 10.6465 12.0632 10.029 12.3594 9.32715C12.6602 8.62533 12.8105 7.87109 12.8105 7.06445C12.8105 6.25781 12.6602 5.50358 12.3594 4.80176C12.0586 4.09993 11.6416 3.48242 11.1084 2.94922C10.5798 2.41602 9.96224 2.0013 9.25586 1.70508C8.55404 1.4043 7.7998 1.25391 6.99316 1.25391C6.18652 1.25391 5.43229 1.4043 4.73047 1.70508C4.02865 2.0013 3.41341 2.41602 2.88477 2.94922C2.35612 3.48242 1.94141 4.09993 1.64062 4.80176C1.3444 5.50358 1.19629 6.25781 1.19629 7.06445C1.19629 7.87109 1.3444 8.62533 1.64062 9.32715C1.94141 10.029 2.35612 10.6465 2.88477 11.1797C3.41797 11.7083 4.03548 12.123 4.7373 12.4238C5.43913 12.7246 6.19336 12.875 7 12.875ZM5.80371 10.8857C5.66243 10.8857 5.54395 10.8402 5.44824 10.749C5.35254 10.6579 5.30469 10.5439 5.30469 10.4072C5.30469 10.2705 5.35254 10.1566 5.44824 10.0654C5.54395 9.97428 5.66243 9.92871 5.80371 9.92871H6.65137V6.79102H5.91992C5.77865 6.79102 5.66016 6.74544 5.56445 6.6543C5.46875 6.56315 5.4209 6.44922 5.4209 6.3125C5.4209 6.17578 5.46875 6.06185 5.56445 5.9707C5.66016 5.87956 5.77865 5.83398 5.91992 5.83398H7.20508C7.37826 5.83398 7.51042 5.89095 7.60156 6.00488C7.69271 6.11426 7.73828 6.26237 7.73828 6.44922V9.92871H8.58594C8.72721 9.92871 8.8457 9.97428 8.94141 10.0654C9.03711 10.1566 9.08496 10.2705 9.08496 10.4072C9.08496 10.5439 9.03711 10.6579 8.94141 10.749C8.8457 10.8402 8.72721 10.8857 8.58594 10.8857H5.80371ZM6.93848 4.69238C6.69238 4.69238 6.48275 4.60579 6.30957 4.43262C6.13639 4.25944 6.0498 4.0498 6.0498 3.80371C6.0498 3.55306 6.13639 3.34115 6.30957 3.16797C6.48275 2.99479 6.69238 2.9082 6.93848 2.9082C7.18913 2.9082 7.39876 2.99479 7.56738 3.16797C7.74056 3.34115 7.82715 3.55306 7.82715 3.80371C7.82715 4.0498 7.74056 4.25944 7.56738 4.43262C7.39876 4.60579 7.18913 4.69238 6.93848 4.69238Z" fill="white" fill-opacity="0.5"/>
</svg>
