<svg width="48" height="48" viewBox="0 0 48 48" fill="none" xmlns="http://www.w3.org/2000/svg">
<path d="M23.9219 43.8438C21.2005 43.8438 18.6354 43.3229 16.2266 42.2812C13.8307 41.2396 11.7148 39.8008 9.87891 37.9648C8.04297 36.1289 6.60417 34.013 5.5625 31.6172C4.52083 29.2083 4 26.6432 4 23.9219C4 21.2005 4.52083 18.6419 5.5625 16.2461C6.60417 13.8372 8.03646 11.7148 9.85938 9.87891C11.6953 8.04297 13.8112 6.60417 16.207 5.5625C18.6159 4.52083 21.181 4 23.9023 4C26.6237 4 29.1888 4.52083 31.5977 5.5625C34.0065 6.60417 36.1289 8.04297 37.9648 9.87891C39.8008 11.7148 41.2396 13.8372 42.2812 16.2461C43.3229 18.6419 43.8438 21.2005 43.8438 23.9219C43.8438 26.6432 43.3229 29.2083 42.2812 31.6172C41.2396 34.013 39.8008 36.1289 37.9648 37.9648C36.1289 39.8008 34.0065 41.2396 31.5977 42.2812C29.2018 43.3229 26.6432 43.8438 23.9219 43.8438ZM23.9219 40.5234C26.2266 40.5234 28.3815 40.0938 30.3867 39.2344C32.3919 38.375 34.1562 37.1901 35.6797 35.6797C37.2031 34.1562 38.388 32.3919 39.2344 30.3867C40.0938 28.3815 40.5234 26.2266 40.5234 23.9219C40.5234 21.6172 40.0938 19.4622 39.2344 17.457C38.375 15.4518 37.1836 13.6875 35.6602 12.1641C34.1497 10.6406 32.3854 9.45573 30.3672 8.60938C28.362 7.75 26.207 7.32031 23.9023 7.32031C21.5977 7.32031 19.4427 7.75 17.4375 8.60938C15.4323 9.45573 13.6745 10.6406 12.1641 12.1641C10.6536 13.6875 9.46875 15.4518 8.60938 17.457C7.76302 19.4622 7.33984 21.6172 7.33984 23.9219C7.33984 26.2266 7.76302 28.3815 8.60938 30.3867C9.46875 32.3919 10.6536 34.1562 12.1641 35.6797C13.6875 37.1901 15.4518 38.375 17.457 39.2344C19.4622 40.0938 21.6172 40.5234 23.9219 40.5234ZM20.5039 34.8398C20.1003 34.8398 19.7617 34.7096 19.4883 34.4492C19.2148 34.1888 19.0781 33.8633 19.0781 33.4727C19.0781 33.082 19.2148 32.7565 19.4883 32.4961C19.7617 32.2357 20.1003 32.1055 20.5039 32.1055H22.9258V23.1406H20.8359C20.4323 23.1406 20.0938 23.0104 19.8203 22.75C19.5469 22.4896 19.4102 22.1641 19.4102 21.7734C19.4102 21.3828 19.5469 21.0573 19.8203 20.7969C20.0938 20.5365 20.4323 20.4062 20.8359 20.4062H24.5078C25.0026 20.4062 25.3802 20.569 25.6406 20.8945C25.901 21.207 26.0312 21.6302 26.0312 22.1641V32.1055H28.4531C28.8568 32.1055 29.1953 32.2357 29.4688 32.4961C29.7422 32.7565 29.8789 33.082 29.8789 33.4727C29.8789 33.8633 29.7422 34.1888 29.4688 34.4492C29.1953 34.7096 28.8568 34.8398 28.4531 34.8398H20.5039ZM23.7461 17.1445C23.043 17.1445 22.444 16.8971 21.9492 16.4023C21.4544 15.9076 21.207 15.3086 21.207 14.6055C21.207 13.8893 21.4544 13.2839 21.9492 12.7891C22.444 12.2943 23.043 12.0469 23.7461 12.0469C24.4622 12.0469 25.0612 12.2943 25.543 12.7891C26.0378 13.2839 26.2852 13.8893 26.2852 14.6055C26.2852 15.3086 26.0378 15.9076 25.543 16.4023C25.0612 16.8971 24.4622 17.1445 23.7461 17.1445Z" fill="#64D2FF"/>
</svg>
