<svg width="14" height="14" viewBox="0 0 14 14" fill="none" xmlns="http://www.w3.org/2000/svg">
<path d="M9.59863 8.49977C9.33506 8.95565 8.95619 9.33418 8.50007 9.59734C8.04394 9.86051 7.52661 9.99904 7.00001 9.99905C6.47342 9.99905 5.95608 9.86052 5.49995 9.59737C5.04382 9.33421 4.66495 8.95569 4.40137 8.49981M5 5.66667H5.00667M9 5.66667H9.00667M13 7C13 10.3137 10.3137 13 7 13C3.68629 13 1 10.3137 1 7C1 3.68629 3.68629 1 7 1C10.3137 1 13 3.68629 13 7Z" stroke="#FF9501" stroke-width="1.75" stroke-linecap="square" stroke-linejoin="bevel"/>
</svg>
